Formera-Regular.ufo
<glyph name="ampersand" format="2">
  <advance width="636"/>
  <unicode hex="0026"/>
  <outline>
    <contour>
      <point x="575" y="249" type="line"/>
      <point x="575" y="253" type="line"/>
      <point x="574" y="281" type="line"/>
      <point x="576" y="300" type="line"/>
      <point x="574" y="314" type="line"/>
      <point x="575" y="323" type="line" smooth="yes"/>
      <point x="577" y="339"/>
      <point x="563" y="338"/>
      <point x="552" y="325" type="curve" smooth="yes"/>
      <point x="532" y="303" type="line"/>
      <point x="525" y="291"/>
      <point x="513" y="285"/>
      <point x="506" y="277" type="curve" smooth="yes"/>
      <point x="490" y="258" type="line"/>
      <point x="476" y="244" type="line"/>
      <point x="464" y="230" type="line"/>
      <point x="452" y="216" type="line"/>
      <point x="452" y="217"/>
      <point x="447" y="203"/>
      <point x="439" y="212" type="curve" smooth="yes"/>
      <point x="429" y="224" type="line"/>
      <point x="414" y="243" type="line"/>
      <point x="414" y="244" type="line"/>
      <point x="414" y="244"/>
      <point x="412" y="247"/>
      <point x="405" y="255" type="curve" smooth="yes"/>
      <point x="400" y="261" type="line"/>
      <point x="401" y="262" type="line"/>
      <point x="391" y="273" type="line"/>
      <point x="385" y="280" type="line"/>
      <point x="386" y="281" type="line"/>
      <point x="386" y="281"/>
      <point x="384" y="284"/>
      <point x="377" y="292" type="curve" smooth="yes"/>
      <point x="372" y="298" type="line"/>
      <point x="372" y="299" type="line"/>
      <point x="372" y="299"/>
      <point x="369" y="301"/>
      <point x="362" y="310" type="curve" smooth="yes"/>
      <point x="357" y="316" type="line"/>
      <point x="358" y="317" type="line"/>
      <point x="349" y="329" type="line"/>
      <point x="344" y="336" type="line"/>
      <point x="345" y="336"/>
      <point x="343" y="338"/>
      <point x="338" y="342" type="curve"/>
      <point x="339" y="342"/>
      <point x="337" y="345"/>
      <point x="330" y="353" type="curve" smooth="yes"/>
      <point x="320" y="365" type="line"/>
      <point x="320" y="366"/>
      <point x="319" y="368"/>
      <point x="315" y="372" type="curve" smooth="yes"/>
      <point x="310" y="378" type="line" smooth="yes"/>
      <point x="304" y="386"/>
      <point x="297" y="383"/>
      <point x="306" y="392" type="curve" smooth="yes"/>
      <point x="320" y="406" type="line"/>
      <point x="321" y="406" type="line"/>
      <point x="335" y="417" type="line"/>
      <point x="339" y="420" type="line"/>
      <point x="339" y="418"/>
      <point x="347" y="425"/>
      <point x="355" y="434" type="curve" smooth="yes"/>
      <point x="382" y="462" type="line"/>
      <point x="393" y="477" type="line"/>
      <point x="401" y="489" type="line" smooth="yes"/>
      <point x="402" y="490"/>
      <point x="403" y="493"/>
      <point x="407" y="501" type="curve" smooth="yes"/>
      <point x="411" y="508"/>
      <point x="412" y="515"/>
      <point x="415" y="526" type="curve" smooth="yes"/>
      <point x="418" y="537" type="line"/>
      <point x="418" y="534" type="line"/>
      <point x="419" y="543" type="line" smooth="yes"/>
      <point x="420" y="554"/>
      <point x="420" y="558"/>
      <point x="419" y="558" type="curve"/>
      <point x="419" y="571" type="line" smooth="yes"/>
      <point x="419" y="581"/>
      <point x="417" y="587"/>
      <point x="415" y="596" type="curve"/>
      <point x="410" y="608" type="line"/>
      <point x="404" y="621" type="line"/>
      <point x="398" y="631" type="line" smooth="yes"/>
      <point x="393" y="639"/>
      <point x="389" y="645"/>
      <point x="382" y="652" type="curve" smooth="yes"/>
      <point x="375" y="660"/>
      <point x="372" y="664"/>
      <point x="368" y="667" type="curve" smooth="yes"/>
      <point x="364" y="670"/>
      <point x="360" y="673"/>
      <point x="350" y="678" type="curve"/>
      <point x="346" y="679"/>
      <point x="342" y="681"/>
      <point x="337" y="683" type="curve" smooth="yes"/>
      <point x="327" y="687"/>
      <point x="319" y="690"/>
      <point x="309" y="692" type="curve"/>
      <point x="274" y="695" type="line"/>
      <point x="256" y="694" type="line"/>
      <point x="243" y="692" type="line"/>
      <point x="242" y="692" type="line" smooth="yes"/>
      <point x="231" y="692"/>
      <point x="224" y="688"/>
      <point x="216" y="685" type="curve" smooth="yes"/>
      <point x="208" y="682"/>
      <point x="202" y="679"/>
      <point x="193" y="674" type="curve"/>
      <point x="172" y="658" type="line"/>
      <point x="159" y="645" type="line"/>
      <point x="152" y="637" type="line"/>
      <point x="152" y="638"/>
      <point x="150" y="634"/>
      <point x="145" y="624" type="curve" smooth="yes"/>
      <point x="143" y="620" type="line"/>
      <point x="140" y="620"/>
      <point x="133" y="614"/>
      <point x="133" y="599" type="curve"/>
      <point x="128" y="575" type="line"/>
      <point x="126" y="564" type="line" smooth="yes"/>
      <point x="124" y="552"/>
      <point x="124" y="544"/>
      <point x="127" y="532" type="curve" smooth="yes"/>
      <point x="128" y="528" type="line"/>
      <point x="133" y="505" type="line"/>
      <point x="142" y="479" type="line"/>
      <point x="140" y="479"/>
      <point x="146" y="470"/>
      <point x="155" y="458" type="curve"/>
      <point x="172" y="429" type="line"/>
      <point x="175" y="425" type="line"/>
      <point x="183" y="414" type="line" smooth="yes"/>
      <point x="184" y="412"/>
      <point x="194" y="408"/>
      <point x="185" y="401" type="curve" smooth="yes"/>
      <point x="179" y="396" type="line"/>
      <point x="163" y="385" type="line"/>
      <point x="156" y="381" type="line" smooth="yes"/>
      <point x="146" y="375"/>
      <point x="142" y="368"/>
      <point x="132" y="363" type="curve" smooth="yes"/>
      <point x="130" y="362" type="line"/>
      <point x="116" y="353" type="line"/>
      <point x="102" y="341" type="line"/>
      <point x="90" y="331" type="line"/>
      <point x="78" y="319" type="line"/>
      <point x="75" y="316" type="line"/>
      <point x="63" y="306" type="line"/>
      <point x="63" y="307"/>
      <point x="61" y="303"/>
      <point x="55" y="293" type="curve" smooth="yes"/>
      <point x="52" y="288" type="line"/>
      <point x="52" y="289"/>
      <point x="49" y="286"/>
      <point x="44" y="277" type="curve" smooth="yes"/>
      <point x="39" y="268" type="line" smooth="yes"/>
      <point x="33" y="258"/>
      <point x="30" y="252"/>
      <point x="28" y="242" type="curve"/>
      <point x="23" y="228" type="line"/>
      <point x="23" y="227" type="line" smooth="yes"/>
      <point x="23" y="215"/>
      <point x="17" y="208"/>
      <point x="17" y="196" type="curve" smooth="yes"/>
      <point x="17" y="178" type="line"/>
      <point x="19" y="151" type="line" smooth="yes"/>
      <point x="20" y="140"/>
      <point x="20" y="133"/>
      <point x="24" y="126" type="curve"/>
      <point x="26" y="119" type="line" smooth="yes"/>
      <point x="28" y="113"/>
      <point x="29" y="109"/>
      <point x="32" y="102" type="curve" smooth="yes"/>
      <point x="43" y="80" type="line" smooth="yes"/>
      <point x="55" y="55"/>
      <point x="62" y="49"/>
      <point x="74" y="42" type="curve"/>
      <point x="91" y="21"/>
      <point x="95" y="20"/>
      <point x="100" y="19" type="curve"/>
      <point x="124" y="6" type="line"/>
      <point x="124" y="4"/>
      <point x="126" y="2"/>
      <point x="129" y="1" type="curve" smooth="yes"/>
      <point x="133" y="0"/>
      <point x="137" y="-2"/>
      <point x="145" y="-3" type="curve" smooth="yes"/>
      <point x="161" y="-5" type="line"/>
      <point x="161" y="-6" type="line" smooth="yes"/>
      <point x="161" y="-7"/>
      <point x="169" y="-9"/>
      <point x="185" y="-10" type="curve"/>
      <point x="191" y="-12" type="line" smooth="yes"/>
      <point x="195" y="-13"/>
      <point x="201" y="-12"/>
      <point x="213" y="-12" type="curve" smooth="yes"/>
      <point x="214" y="-12" type="line"/>
      <point x="227" y="-13" type="line" smooth="yes"/>
      <point x="236" y="-14"/>
      <point x="243" y="-14"/>
      <point x="254" y="-10" type="curve" smooth="yes"/>
      <point x="262" y="-7" type="line"/>
      <point x="263" y="-7" type="line"/>
      <point x="263" y="-7"/>
      <point x="267" y="-5"/>
      <point x="278" y="-4" type="curve" smooth="yes"/>
      <point x="286" y="-3" type="line" smooth="yes"/>
      <point x="293" y="-2"/>
      <point x="300" y="0"/>
      <point x="308" y="8" type="curve"/>
      <point x="332" y="17" type="line"/>
      <point x="355" y="32" type="line"/>
      <point x="373" y="43" type="line" smooth="yes"/>
      <point x="382" y="48"/>
      <point x="387" y="53"/>
      <point x="395" y="59" type="curve" smooth="yes"/>
      <point x="414" y="75" type="line"/>
      <point x="414" y="74"/>
      <point x="433" y="89"/>
      <point x="434" y="91" type="curve"/>
      <point x="450" y="77" type="line"/>
      <point x="456" y="70" type="line"/>
      <point x="456" y="69" type="line" smooth="yes"/>
      <point x="456" y="67"/>
      <point x="459" y="63"/>
      <point x="467" y="53" type="curve"/>
      <point x="469" y="46"/>
      <point x="471" y="42"/>
      <point x="476" y="38" type="curve"/>
      <point x="492" y="17"/>
      <point x="494" y="13"/>
      <point x="500" y="8" type="curve" smooth="yes"/>
      <point x="506" y="2"/>
      <point x="512" y="0"/>
      <point x="521" y="-1" type="curve" smooth="yes"/>
      <point x="530" y="-3"/>
      <point x="537" y="-2"/>
      <point x="548" y="-1" type="curve" smooth="yes"/>
      <point x="556" y="0" type="line"/>
      <point x="564" y="0" type="line" smooth="yes"/>
      <point x="585" y="0"/>
      <point x="593" y="15"/>
      <point x="579" y="31" type="curve" smooth="yes"/>
      <point x="574" y="37" type="line"/>
      <point x="561" y="57" type="line"/>
      <point x="546" y="75" type="line"/>
      <point x="532" y="94" type="line"/>
      <point x="517" y="112" type="line"/>
      <point x="511" y="120" type="line" smooth="yes"/>
      <point x="506" y="127"/>
      <point x="508" y="128"/>
      <point x="502" y="136" type="curve" smooth="yes"/>
      <point x="492" y="150" type="line"/>
      <point x="504" y="166" type="line"/>
      <point x="511" y="174" type="line"/>
      <point x="511" y="173"/>
      <point x="518" y="180"/>
      <point x="524" y="188" type="curve"/>
      <point x="538" y="202" type="line"/>
      <point x="550" y="216" type="line"/>
      <point x="550" y="215"/>
      <point x="557" y="225"/>
      <point x="563" y="234" type="curve" smooth="yes"/>
      <point x="564" y="235"/>
      <point x="565" y="239"/>
      <point x="573" y="247" type="curve" smooth="yes"/>
    </contour>
    <contour>
      <point x="93" y="176" type="line"/>
      <point x="95" y="194" type="line"/>
      <point x="96" y="194"/>
      <point x="96" y="195"/>
      <point x="96" y="199" type="curve"/>
      <point x="104" y="228" type="line"/>
      <point x="105" y="228" type="line"/>
      <point x="105" y="228"/>
      <point x="107" y="231"/>
      <point x="112" y="241" type="curve" smooth="yes"/>
      <point x="118" y="252" type="line"/>
      <point x="118" y="251" type="line" smooth="yes"/>
      <point x="118" y="250"/>
      <point x="126" y="262"/>
      <point x="136" y="272" type="curve" smooth="yes"/>
      <point x="141" y="277" type="line"/>
      <point x="141" y="275"/>
      <point x="147" y="281"/>
      <point x="154" y="288" type="curve"/>
      <point x="160" y="292" type="line" smooth="yes"/>
      <point x="164" y="294"/>
      <point x="177" y="295"/>
      <point x="177" y="306" type="curve" smooth="yes"/>
      <point x="177" y="307" type="line"/>
      <point x="184" y="311" type="line" smooth="yes"/>
      <point x="189" y="314"/>
      <point x="194" y="316"/>
      <point x="202" y="324" type="curve" smooth="yes"/>
      <point x="204" y="326" type="line"/>
      <point x="205" y="326" type="line"/>
      <point x="205" y="326"/>
      <point x="203" y="325"/>
      <point x="210" y="330" type="curve"/>
      <point x="215" y="332" type="line"/>
      <point x="216" y="333"/>
      <point x="212" y="335"/>
      <point x="228" y="340" type="curve" smooth="yes"/>
      <point x="234" y="342" type="line"/>
      <point x="232" y="340"/>
      <point x="243" y="331"/>
      <point x="249" y="325" type="curve"/>
      <point x="249" y="323"/>
      <point x="251" y="321"/>
      <point x="256" y="319" type="curve"/>
      <point x="255" y="319" type="line" smooth="yes"/>
      <point x="254" y="319"/>
      <point x="264" y="308"/>
      <point x="276" y="296" type="curve"/>
      <point x="276" y="295" type="line" smooth="yes"/>
      <point x="276" y="293"/>
      <point x="278" y="291"/>
      <point x="283" y="286" type="curve" smooth="yes"/>
      <point x="298" y="270" type="line"/>
      <point x="304" y="260" type="line" smooth="yes"/>
      <point x="308" y="253"/>
      <point x="313" y="247"/>
      <point x="320" y="239" type="curve" smooth="yes"/>
      <point x="328" y="230" type="line"/>
      <point x="330" y="225" type="line" smooth="yes"/>
      <point x="332" y="220"/>
      <point x="333" y="216"/>
      <point x="340" y="208" type="curve"/>
      <point x="339" y="208"/>
      <point x="351" y="195"/>
      <point x="356" y="192" type="curve"/>
      <point x="368" y="179" type="line" smooth="yes"/>
      <point x="375" y="172"/>
      <point x="381" y="157"/>
      <point x="387" y="154" type="curve"/>
      <point x="377" y="142" type="line"/>
      <point x="361" y="127" type="line"/>
      <point x="350" y="120" type="line"/>
      <point x="319" y="96" type="line"/>
      <point x="308" y="90" type="line"/>
      <point x="294" y="81" type="line"/>
      <point x="293" y="81" type="line" smooth="yes"/>
      <point x="291" y="81"/>
      <point x="288" y="79"/>
      <point x="282" y="75" type="curve"/>
      <point x="253" y="65" type="line"/>
      <point x="241" y="62" type="line"/>
      <point x="242" y="63"/>
      <point x="239" y="62"/>
      <point x="229" y="60" type="curve"/>
      <point x="229" y="61" type="line"/>
      <point x="229" y="61"/>
      <point x="225" y="60"/>
      <point x="214" y="60" type="curve" smooth="yes"/>
      <point x="200" y="60" type="line"/>
      <point x="201" y="61"/>
      <point x="197" y="62"/>
      <point x="186" y="64" type="curve" smooth="yes"/>
      <point x="172" y="66" type="line" smooth="yes"/>
      <point x="171" y="66"/>
      <point x="169" y="68"/>
      <point x="159" y="73" type="curve" smooth="yes"/>
      <point x="148" y="78" type="line"/>
      <point x="149" y="79"/>
      <point x="146" y="82"/>
      <point x="137" y="88" type="curve" smooth="yes"/>
      <point x="128" y="94" type="line"/>
      <point x="110" y="117" type="line"/>
      <point x="111" y="117"/>
      <point x="110" y="119"/>
      <point x="106" y="125" type="curve"/>
      <point x="102" y="137" type="line"/>
      <point x="102" y="138"/>
      <point x="101" y="142"/>
      <point x="98" y="152" type="curve" smooth="yes"/>
      <point x="94" y="166" type="line"/>
      <point x="94" y="167" type="line"/>
    </contour>
    <contour>
      <point x="200" y="569" type="line"/>
      <point x="201" y="570"/>
      <point x="202" y="574"/>
      <point x="207" y="585" type="curve" smooth="yes"/>
      <point x="211" y="594" type="line"/>
      <point x="211" y="595"/>
      <point x="221" y="604"/>
      <point x="231" y="615" type="curve"/>
      <point x="231" y="614"/>
      <point x="242" y="618"/>
      <point x="258" y="626" type="curve"/>
      <point x="259" y="626" type="line"/>
      <point x="289" y="625" type="line"/>
      <point x="297" y="622" type="line"/>
      <point x="308" y="619" type="line"/>
      <point x="331" y="600" type="line"/>
      <point x="333" y="599"/>
      <point x="333" y="594"/>
      <point x="338" y="583" type="curve" smooth="yes"/>
      <point x="342" y="575" type="line"/>
      <point x="345" y="552" type="line"/>
      <point x="346" y="547" type="line"/>
      <point x="343" y="544"/>
      <point x="345" y="539"/>
      <point x="339" y="528" type="curve" smooth="yes"/>
      <point x="336" y="522" type="line" smooth="yes"/>
      <point x="335" y="520"/>
      <point x="332" y="516"/>
      <point x="324" y="505" type="curve" smooth="yes"/>
      <point x="319" y="498" type="line"/>
      <point x="301" y="481" type="line"/>
      <point x="289" y="471" type="line"/>
      <point x="290" y="472" type="line"/>
      <point x="286" y="469" type="line"/>
      <point x="285" y="469" type="line" smooth="yes"/>
      <point x="283" y="469"/>
      <point x="281" y="465"/>
      <point x="271" y="457" type="curve" smooth="yes"/>
      <point x="257" y="446" type="line"/>
      <point x="246" y="460" type="line"/>
      <point x="235" y="473" type="line"/>
      <point x="233" y="475" type="line" smooth="yes"/>
      <point x="230" y="478"/>
      <point x="235" y="477"/>
      <point x="227" y="485" type="curve" smooth="yes"/>
      <point x="225" y="487" type="line"/>
      <point x="226" y="487"/>
      <point x="224" y="490"/>
      <point x="218" y="500" type="curve" smooth="yes"/>
      <point x="215" y="505" type="line"/>
      <point x="215" y="506"/>
      <point x="213" y="509"/>
      <point x="209" y="519" type="curve" smooth="yes"/>
      <point x="203" y="533" type="line"/>
      <point x="201" y="539" type="line"/>
      <point x="201" y="554" type="line"/>
    </contour>
  </outline>
</glyph>
<glyph name="asterisk" format="2">
  <advance width="395"/>
  <unicode hex="002A"/>
  <outline>
    <contour>
      <point x="261" y="512" type="line"/>
      <point x="272" y="504" type="line" smooth="yes"/>
      <point x="278" y="500"/>
      <point x="283" y="500"/>
      <point x="284" y="495" type="curve"/>
      <point x="298" y="491"/>
      <point x="303" y="478"/>
      <point x="318" y="475" type="curve"/>
      <point x="334" y="477"/>
      <point x="342" y="488"/>
      <point x="351" y="497" type="curve"/>
      <point x="354" y="523"/>
      <point x="338" y="529"/>
      <point x="318" y="532" type="curve"/>
      <point x="305" y="546"/>
      <point x="282" y="549"/>
      <point x="269" y="562" type="curve"/>
      <point x="257" y="565"/>
      <point x="244" y="567"/>
      <point x="241" y="580" type="curve"/>
      <point x="245" y="586"/>
      <point x="253" y="587"/>
      <point x="260" y="590" type="curve" smooth="yes"/>
      <point x="270" y="596"/>
      <point x="281" y="600"/>
      <point x="292" y="604" type="curve" smooth="yes"/>
      <point x="295" y="605"/>
      <point x="297" y="607"/>
      <point x="301" y="608" type="curve"/>
      <point x="304" y="610"/>
      <point x="310" y="610"/>
      <point x="315" y="611" type="curve" smooth="yes"/>
      <point x="318" y="612"/>
      <point x="322" y="616"/>
      <point x="326" y="614" type="curve"/>
      <point x="333" y="621"/>
      <point x="348" y="628"/>
      <point x="348" y="640" type="curve" smooth="yes"/>
      <point x="348" y="649"/>
      <point x="342" y="654"/>
      <point x="338" y="663" type="curve" smooth="yes"/>
      <point x="333" y="671"/>
      <point x="330" y="678"/>
      <point x="321" y="678" type="curve" smooth="yes"/>
      <point x="308" y="679"/>
      <point x="298" y="660"/>
      <point x="287" y="657" type="curve" smooth="yes"/>
      <point x="275" y="654"/>
      <point x="270" y="641"/>
      <point x="255" y="639" type="curve"/>
      <point x="248" y="630"/>
      <point x="239" y="623"/>
      <point x="224" y="620" type="curve"/>
      <point x="219" y="628"/>
      <point x="219" y="637"/>
      <point x="219" y="646" type="curve" smooth="yes"/>
      <point x="217" y="674"/>
      <point x="223" y="701"/>
      <point x="223" y="724" type="curve"/>
      <point x="219" y="728"/>
      <point x="222" y="738"/>
      <point x="217" y="741" type="curve"/>
      <point x="207" y="752"/>
      <point x="186" y="746"/>
      <point x="177" y="738" type="curve"/>
      <point x="172" y="720"/>
      <point x="179" y="702"/>
      <point x="179" y="684" type="curve" smooth="yes"/>
      <point x="179" y="679"/>
      <point x="177" y="673"/>
      <point x="177" y="669" type="curve" smooth="yes"/>
      <point x="177" y="660"/>
      <point x="179" y="651"/>
      <point x="179" y="642" type="curve" smooth="yes"/>
      <point x="179" y="633"/>
      <point x="179" y="622"/>
      <point x="173" y="616" type="curve"/>
      <point x="161" y="619"/>
      <point x="155" y="626"/>
      <point x="142" y="629" type="curve"/>
      <point x="134" y="639"/>
      <point x="120" y="644"/>
      <point x="110" y="654" type="curve"/>
      <point x="94" y="657"/>
      <point x="89" y="671"/>
      <point x="67" y="669" type="curve"/>
      <point x="58" y="663" type="line"/>
      <point x="53" y="641"/>
      <point x="64" y="623"/>
      <point x="74" y="612" type="curve"/>
      <point x="83" y="610"/>
      <point x="90" y="605"/>
      <point x="102" y="605" type="curve"/>
      <point x="108" y="600"/>
      <point x="118" y="597"/>
      <point x="127" y="594" type="curve"/>
      <point x="136" y="589"/>
      <point x="149" y="590"/>
      <point x="153" y="580" type="curve"/>
      <point x="151" y="570"/>
      <point x="139" y="570"/>
      <point x="134" y="564" type="curve"/>
      <point x="126" y="559"/>
      <point x="118" y="554"/>
      <point x="109" y="552" type="curve"/>
      <point x="102" y="544"/>
      <point x="92" y="540"/>
      <point x="84" y="533" type="curve"/>
      <point x="80" y="531"/>
      <point x="72" y="531"/>
      <point x="67" y="529" type="curve" smooth="yes"/>
      <point x="63" y="527"/>
      <point x="54" y="523"/>
      <point x="54" y="518" type="curve"/>
      <point x="51" y="515"/>
      <point x="52" y="504"/>
      <point x="54" y="500" type="curve" smooth="yes"/>
      <point x="57" y="496"/>
      <point x="56" y="489"/>
      <point x="60" y="485" type="curve" smooth="yes"/>
      <point x="64" y="482"/>
      <point x="69" y="482"/>
      <point x="72" y="478" type="curve"/>
      <point x="87" y="479"/>
      <point x="96" y="484"/>
      <point x="109" y="487" type="curve"/>
      <point x="121" y="497"/>
      <point x="129" y="510"/>
      <point x="147" y="515" type="curve"/>
      <point x="153" y="525"/>
      <point x="164" y="536"/>
      <point x="176" y="535" type="curve"/>
      <point x="179" y="534"/>
      <point x="180" y="529"/>
      <point x="180" y="527" type="curve"/>
      <point x="184" y="512"/>
      <point x="180" y="498"/>
      <point x="179" y="483" type="curve" smooth="yes"/>
      <point x="178" y="471"/>
      <point x="179" y="458"/>
      <point x="179" y="445" type="curve"/>
      <point x="176" y="435"/>
      <point x="173" y="426"/>
      <point x="177" y="417" type="curve"/>
      <point x="190" y="407"/>
      <point x="219" y="411"/>
      <point x="226" y="423" type="curve"/>
      <point x="222" y="448"/>
      <point x="216" y="483"/>
      <point x="217" y="513" type="curve" smooth="yes"/>
      <point x="217" y="520"/>
      <point x="215" y="531"/>
      <point x="223" y="535" type="curve"/>
      <point x="235" y="533"/>
      <point x="243" y="522"/>
      <point x="252" y="515" type="curve"/>
    </contour>
  </outline>
</glyph>
<glyph name="plus" format="2">
  <advance width="500"/>
  <unicode hex="002B"/>
  <outline>
    <contour>
      <point x="32" y="355" type="curve" smooth="yes"/>
      <point x="31" y="347"/>
      <point x="30" y="340"/>
      <point x="32" y="329" type="curve" smooth="yes"/>
      <point x="33" y="322" type="line"/>
      <point x="33" y="306"/>
      <point x="40" y="297"/>
      <point x="53" y="297" type="curve" smooth="yes"/>
      <point x="60" y="296"/>
      <point x="67" y="297"/>
      <point x="78" y="300" type="curve"/>
      <point x="100" y="300" type="line"/>
      <point x="107" y="299" type="line" smooth="yes"/>
      <point x="118" y="297"/>
      <point x="126" y="298"/>
      <point x="137" y="299" type="curve" smooth="yes"/>
      <point x="145" y="300" type="line"/>
      <point x="156" y="299" type="line" smooth="yes"/>
      <point x="164" y="298"/>
      <point x="171" y="299"/>
      <point x="182" y="299" type="curve" smooth="yes"/>
      <point x="213" y="299" type="line"/>
      <point x="214" y="275" type="line"/>
      <point x="214" y="202" type="line"/>
      <point x="212" y="196" type="line" smooth="yes"/>
      <point x="211" y="192"/>
      <point x="210" y="186"/>
      <point x="211" y="177" type="curve"/>
      <point x="210" y="176" type="line" smooth="yes"/>
      <point x="208" y="174"/>
      <point x="207" y="167"/>
      <point x="213" y="155" type="curve" smooth="yes"/>
      <point x="214" y="153" type="line"/>
      <point x="214" y="151" type="line" smooth="yes"/>
      <point x="215" y="136"/>
      <point x="223" y="127"/>
      <point x="238" y="125" type="curve"/>
      <point x="237" y="124"/>
      <point x="250" y="125"/>
      <point x="262" y="128" type="curve"/>
      <point x="262" y="126"/>
      <point x="266" y="126"/>
      <point x="274" y="127" type="curve" smooth="yes"/>
      <point x="282" y="128"/>
      <point x="287" y="136"/>
      <point x="287" y="152" type="curve" smooth="yes"/>
      <point x="287" y="153" type="line"/>
      <point x="287" y="154" type="line"/>
      <point x="286" y="177" type="line"/>
      <point x="287" y="184" type="line" smooth="yes"/>
      <point x="288" y="189"/>
      <point x="288" y="194"/>
      <point x="287" y="203" type="curve" smooth="yes"/>
      <point x="286" y="226" type="line"/>
      <point x="286" y="275" type="line"/>
      <point x="285" y="300" type="line"/>
      <point x="328" y="300" type="line"/>
      <point x="335" y="299" type="line" smooth="yes"/>
      <point x="340" y="298"/>
      <point x="346" y="296"/>
      <point x="358" y="299" type="curve" smooth="yes"/>
      <point x="362" y="300" type="line"/>
      <point x="387" y="299" type="line"/>
      <point x="387" y="298" type="line" smooth="yes"/>
      <point x="387" y="297"/>
      <point x="395" y="297"/>
      <point x="410" y="299" type="curve" smooth="yes"/>
      <point x="422" y="300" type="line"/>
      <point x="434" y="299" type="line" smooth="yes"/>
      <point x="442" y="298"/>
      <point x="448" y="298"/>
      <point x="456" y="299" type="curve" smooth="yes"/>
      <point x="463" y="300"/>
      <point x="467" y="308"/>
      <point x="468" y="323" type="curve"/>
      <point x="469" y="324" type="line"/>
      <point x="469" y="324"/>
      <point x="470" y="328"/>
      <point x="468" y="339" type="curve" smooth="yes"/>
      <point x="467" y="344" type="line"/>
      <point x="468" y="366" type="line"/>
      <point x="469" y="367" type="line"/>
      <point x="467" y="366" type="line"/>
      <point x="464" y="366" type="line"/>
      <point x="445" y="367" type="line"/>
      <point x="422" y="366" type="line"/>
      <point x="423" y="367" type="line"/>
      <point x="400" y="367" type="line"/>
      <point x="401" y="368"/>
      <point x="397" y="368"/>
      <point x="386" y="367" type="curve" smooth="yes"/>
      <point x="377" y="366" type="line"/>
      <point x="378" y="367"/>
      <point x="374" y="367"/>
      <point x="363" y="367" type="curve" smooth="yes"/>
      <point x="354" y="367" type="line"/>
      <point x="354" y="368" type="line"/>
      <point x="339" y="367" type="line"/>
      <point x="331" y="366" type="line"/>
      <point x="328" y="366" type="line"/>
      <point x="289" y="367" type="line"/>
      <point x="289" y="371" type="line" smooth="yes"/>
      <point x="289" y="377"/>
      <point x="287" y="375"/>
      <point x="287" y="378" type="curve" smooth="yes"/>
      <point x="287" y="391" type="line"/>
      <point x="288" y="392" type="line"/>
      <point x="288" y="392"/>
      <point x="289" y="397"/>
      <point x="287" y="409" type="curve" smooth="yes"/>
      <point x="286" y="415" type="line"/>
      <point x="287" y="422" type="line" smooth="yes"/>
      <point x="288" y="426"/>
      <point x="288" y="431"/>
      <point x="287" y="441" type="curve"/>
      <point x="288" y="442" type="line"/>
      <point x="288" y="442"/>
      <point x="289" y="446"/>
      <point x="287" y="457" type="curve" smooth="yes"/>
      <point x="286" y="464" type="line"/>
      <point x="286" y="513" type="line"/>
      <point x="287" y="523" type="line" smooth="yes"/>
      <point x="287" y="533"/>
      <point x="287" y="539"/>
      <point x="286" y="538" type="curve"/>
      <point x="239" y="538" type="line" smooth="yes"/>
      <point x="223" y="538"/>
      <point x="214" y="529"/>
      <point x="214" y="513" type="curve" smooth="yes"/>
      <point x="214" y="489" type="line"/>
      <point x="213" y="478" type="line"/>
      <point x="211" y="464" type="line"/>
      <point x="209" y="462"/>
      <point x="209" y="459"/>
      <point x="212" y="455" type="curve"/>
      <point x="211" y="454" type="line" smooth="yes"/>
      <point x="209" y="452"/>
      <point x="210" y="446"/>
      <point x="212" y="433" type="curve" smooth="yes"/>
      <point x="213" y="426" type="line"/>
      <point x="212" y="419" type="line" smooth="yes"/>
      <point x="211" y="414"/>
      <point x="211" y="408"/>
      <point x="213" y="397" type="curve" smooth="yes"/>
      <point x="214" y="391" type="line"/>
      <point x="214" y="388" type="line"/>
      <point x="214" y="367" type="line"/>
      <point x="192" y="368" type="line"/>
      <point x="192" y="368"/>
      <point x="187" y="369"/>
      <point x="175" y="367" type="curve" smooth="yes"/>
      <point x="169" y="366" type="line"/>
      <point x="146" y="367" type="line"/>
      <point x="147" y="368"/>
      <point x="143" y="368"/>
      <point x="132" y="367" type="curve" smooth="yes"/>
      <point x="124" y="366" type="line"/>
      <point x="102" y="367" type="line"/>
      <point x="79" y="366" type="line"/>
      <point x="56" y="366" type="line" smooth="yes"/>
      <point x="41" y="366"/>
      <point x="32" y="362"/>
    </contour>
  </outline>
</glyph>
<glyph name="comma" format="2">
  <advance width="289"/>
  <unicode hex="002C"/>
  <outline>
    <contour>
      <point x="65" y="-71" type="line" smooth="yes"/>
      <point x="61" y="-83"/>
      <point x="59" y="-95"/>
      <point x="56" y="-106" type="curve"/>
      <point x="52" y="-112"/>
      <point x="44" y="-112"/>
      <point x="42" y="-118" type="curve" smooth="yes"/>
      <point x="32" y="-156"/>
      <point x="68" y="-165"/>
      <point x="100" y="-159" type="curve"/>
      <point x="103" y="-156"/>
      <point x="106" y="-152"/>
      <point x="111" y="-150" type="curve"/>
      <point x="112" y="-144"/>
      <point x="115" y="-139"/>
      <point x="114" y="-130" type="curve"/>
      <point x="122" y="-114"/>
      <point x="128" y="-95"/>
      <point x="140" y="-83" type="curve"/>
      <point x="147" y="-66"/>
      <point x="152" y="-48"/>
      <point x="163" y="-34" type="curve"/>
      <point x="163" y="-27"/>
      <point x="165" y="-22"/>
      <point x="166" y="-14" type="curve" smooth="yes"/>
      <point x="168" y="-7"/>
      <point x="175" y="-6"/>
      <point x="177" y="2" type="curve"/>
      <point x="185" y="13"/>
      <point x="186" y="28"/>
      <point x="190" y="41" type="curve" smooth="yes"/>
      <point x="194" y="50"/>
      <point x="204" y="57"/>
      <point x="207" y="65" type="curve" smooth="yes"/>
      <point x="210" y="75"/>
      <point x="219" y="80"/>
      <point x="219" y="93" type="curve"/>
      <point x="215" y="100"/>
      <point x="206" y="103"/>
      <point x="201" y="109" type="curve"/>
      <point x="176" y="112"/>
      <point x="167" y="128"/>
      <point x="139" y="126" type="curve"/>
      <point x="124" y="115"/>
      <point x="122" y="92"/>
      <point x="117" y="71" type="curve"/>
      <point x="102" y="44"/>
      <point x="96" y="13"/>
      <point x="85" y="-16" type="curve"/>
      <point x="83" y="-24"/>
      <point x="80" y="-30"/>
      <point x="77" y="-38" type="curve" smooth="yes"/>
    </contour>
  </outline>
</glyph>
<glyph name="hyphen" format="2">
  <advance width="269"/>
  <unicode hex="002D"/>
  <outline>
    <contour>
      <point x="135" y="190" type="line" smooth="yes"/>
      <point x="146" y="191"/>
      <point x="158" y="187"/>
      <point x="170" y="187" type="curve" smooth="yes"/>
      <point x="189" y="187"/>
      <point x="206" y="193"/>
      <point x="223" y="196" type="curve"/>
      <point x="224" y="200"/>
      <point x="227" y="202"/>
      <point x="228" y="205" type="curve"/>
      <point x="233" y="214"/>
      <point x="235" y="229"/>
      <point x="234" y="240" type="curve"/>
      <point x="231" y="248"/>
      <point x="228" y="258"/>
      <point x="219" y="262" type="curve"/>
      <point x="204" y="264"/>
      <point x="188" y="261"/>
      <point x="171" y="262" type="curve" smooth="yes"/>
      <point x="164" y="262"/>
      <point x="157" y="263"/>
      <point x="149" y="263" type="curve" smooth="yes"/>
      <point x="142" y="263"/>
      <point x="135" y="260"/>
      <point x="127" y="260" type="curve" smooth="yes"/>
      <point x="112" y="260"/>
      <point x="98" y="263"/>
      <point x="83" y="263" type="curve" smooth="yes"/>
      <point x="67" y="263"/>
      <point x="52" y="261"/>
      <point x="37" y="260" type="curve"/>
      <point x="22" y="247"/>
      <point x="22" y="217"/>
      <point x="29" y="195" type="curve"/>
      <point x="36" y="190"/>
      <point x="48" y="189"/>
      <point x="56" y="184" type="curve"/>
      <point x="73" y="190"/>
      <point x="99" y="192"/>
      <point x="116" y="187" type="curve"/>
    </contour>
  </outline>
</glyph>
<glyph name="period" format="2">
  <advance width="252"/>
  <unicode hex="002E"/>
  <outline>
    <contour>
      <point x="181" y="85"/>
      <point x="171" y="100"/>
      <point x="160" y="116" type="curve"/>
      <point x="147" y="121"/>
      <point x="134" y="129"/>
      <point x="121" y="129" type="curve" smooth="yes"/>
      <point x="101" y="129"/>
      <point x="93" y="120"/>
      <point x="83" y="107" type="curve" smooth="yes"/>
      <point x="77" y="100"/>
      <point x="70" y="91"/>
      <point x="67" y="85" type="curve" smooth="yes"/>
      <point x="60" y="72"/>
      <point x="57" y="41"/>
      <point x="62" y="31" type="curve"/>
      <point x="68" y="23"/>
      <point x="76" y="21"/>
      <point x="82" y="16" type="curve"/>
      <point x="87" y="8"/>
      <point x="94" y="6"/>
      <point x="104" y="2" type="curve"/>
      <point x="130" y="2"/>
      <point x="150" y="8"/>
      <point x="170" y="18" type="curve"/>
      <point x="176" y="32"/>
      <point x="185" y="43"/>
      <point x="189" y="61" type="curve"/>
      <point x="188" y="63"/>
      <point x="188" y="64"/>
      <point x="187" y="64" type="curve"/>
    </contour>
  </outline>
</glyph>
<glyph name="slash" format="2">
  <advance width="425"/>
  <unicode hex="002F"/>
  <outline>
    <contour>
      <point x="265" y="509" type="line" smooth="yes"/>
      <point x="259" y="495"/>
      <point x="254" y="483"/>
      <point x="248" y="471" type="curve" smooth="yes"/>
      <point x="242" y="457"/>
      <point x="210" y="375"/>
      <point x="198" y="365" type="curve"/>
      <point x="195" y="349" type="line" smooth="yes"/>
      <point x="191" y="331"/>
      <point x="177" y="314"/>
      <point x="175" y="297" type="curve"/>
      <point x="162" y="280"/>
      <point x="160" y="262"/>
      <point x="149" y="245" type="curve"/>
      <point x="139" y="206"/>
      <point x="111" y="155"/>
      <point x="94" y="117" type="curve"/>
      <point x="82" y="77"/>
      <point x="48" y="18"/>
      <point x="37" y="-12" type="curve"/>
      <point x="30" y="-23"/>
      <point x="23" y="-36"/>
      <point x="20" y="-48" type="curve"/>
      <point x="15" y="-56"/>
      <point x="8" y="-64"/>
      <point x="4" y="-73" type="curve"/>
      <point x="5" y="-89"/>
      <point x="25" y="-92"/>
      <point x="47" y="-91" type="curve" smooth="yes"/>
      <point x="69" y="-90"/>
      <point x="70" y="-91"/>
      <point x="83" y="-74" type="curve"/>
      <point x="91" y="-68"/>
      <point x="88" y="-59"/>
      <point x="91" y="-53" type="curve"/>
      <point x="96" y="-48"/>
      <point x="94" y="-38"/>
      <point x="98" y="-31" type="curve"/>
      <point x="124" y="31"/>
      <point x="99" y="-35"/>
      <point x="122" y="27" type="curve" smooth="yes"/>
      <point x="125" y="34"/>
      <point x="130" y="37"/>
      <point x="134" y="45" type="curve"/>
      <point x="137" y="59"/>
      <point x="144" y="74"/>
      <point x="152" y="90" type="curve" smooth="yes"/>
      <point x="153" y="92"/>
      <point x="151" y="92"/>
      <point x="152" y="94" type="curve" smooth="yes"/>
      <point x="158" y="106"/>
      <point x="167" y="120"/>
      <point x="169" y="131" type="curve"/>
      <point x="179" y="153"/>
      <point x="188" y="176"/>
      <point x="198" y="200" type="curve" smooth="yes"/>
      <point x="207" y="224" type="line" smooth="yes"/>
      <point x="210" y="230"/>
      <point x="216" y="239"/>
      <point x="219" y="245" type="curve" smooth="yes"/>
      <point x="229" y="263"/>
      <point x="233" y="280"/>
      <point x="240" y="295" type="curve" smooth="yes"/>
      <point x="247" y="314"/>
      <point x="252" y="331"/>
      <point x="264" y="348" type="curve"/>
      <point x="264" y="348"/>
      <point x="296" y="416"/>
      <point x="294" y="419" type="curve"/>
      <point x="290" y="421"/>
      <point x="299" y="429"/>
      <point x="299" y="431" type="curve"/>
      <point x="316" y="482"/>
      <point x="339" y="527"/>
      <point x="364" y="582" type="curve" smooth="yes"/>
      <point x="367" y="590"/>
      <point x="374" y="591"/>
      <point x="377" y="602" type="curve" smooth="yes"/>
      <point x="383" y="626"/>
      <point x="392" y="647"/>
      <point x="404" y="675" type="curve"/>
      <point x="414" y="689"/>
      <point x="425" y="711"/>
      <point x="419" y="720" type="curve"/>
      <point x="409" y="725"/>
      <point x="393" y="722"/>
      <point x="379" y="722" type="curve" smooth="yes"/>
      <point x="363" y="722"/>
      <point x="372" y="725"/>
      <point x="353" y="719" type="curve"/>
      <point x="339" y="704"/>
      <point x="338" y="687"/>
      <point x="332" y="671" type="curve" smooth="yes"/>
      <point x="326" y="653"/>
      <point x="318" y="636"/>
      <point x="311" y="618" type="curve" smooth="yes"/>
      <point x="300" y="589"/>
      <point x="284" y="550"/>
      <point x="271" y="525" type="curve"/>
    </contour>
  </outline>
</glyph>
<glyph name="zero" format="2">
  <advance width="585"/>
  <unicode hex="0030"/>
  <outline>
    <contour>
      <point x="489" y="423" type="line" smooth="yes"/>
      <point x="483" y="430"/>
      <point x="475" y="439"/>
      <point x="469" y="446" type="curve"/>
      <point x="461" y="450"/>
      <point x="455" y="455"/>
      <point x="449" y="461" type="curve"/>
      <point x="440" y="465"/>
      <point x="437" y="472"/>
      <point x="429" y="476" type="curve" smooth="yes"/>
      <point x="418" y="483"/>
      <point x="404" y="485"/>
      <point x="397" y="495" type="curve"/>
      <point x="385" y="497"/>
      <point x="375" y="501"/>
      <point x="365" y="506" type="curve"/>
      <point x="347" y="510"/>
      <point x="327" y="510"/>
      <point x="312" y="516" type="curve"/>
      <point x="289" y="515"/>
      <point x="269" y="512"/>
      <point x="245" y="511" type="curve"/>
      <point x="227" y="507"/>
      <point x="212" y="501"/>
      <point x="193" y="499" type="curve"/>
      <point x="184" y="494"/>
      <point x="175" y="487"/>
      <point x="163" y="484" type="curve"/>
      <point x="154" y="472"/>
      <point x="139" y="466"/>
      <point x="130" y="455" type="curve"/>
      <point x="123" y="452"/>
      <point x="119" y="446"/>
      <point x="115" y="441" type="curve"/>
      <point x="108" y="436"/>
      <point x="104" y="430"/>
      <point x="98" y="426" type="curve"/>
      <point x="93" y="412"/>
      <point x="81" y="405"/>
      <point x="76" y="391" type="curve"/>
      <point x="72" y="386"/>
      <point x="69" y="379"/>
      <point x="66" y="373" type="curve" smooth="yes"/>
      <point x="63" y="365"/>
      <point x="62" y="358"/>
      <point x="56" y="353" type="curve"/>
      <point x="56" y="340"/>
      <point x="51" y="333"/>
      <point x="49" y="322" type="curve"/>
      <point x="49" y="304"/>
      <point x="45" y="291"/>
      <point x="43" y="275" type="curve" smooth="yes"/>
      <point x="42" y="254"/>
      <point x="47" y="236"/>
      <point x="40" y="220" type="curve"/>
      <point x="44" y="214"/>
      <point x="43" y="201"/>
      <point x="43" y="190" type="curve"/>
      <point x="48" y="171"/>
      <point x="58" y="157"/>
      <point x="61" y="136" type="curve"/>
      <point x="73" y="127"/>
      <point x="77" y="110"/>
      <point x="90" y="100" type="curve"/>
      <point x="119" y="63" type="line"/>
      <point x="131" y="58"/>
      <point x="138" y="48"/>
      <point x="150" y="43" type="curve" smooth="yes"/>
      <point x="161" y="37"/>
      <point x="169" y="28"/>
      <point x="183" y="25" type="curve"/>
      <point x="188" y="22"/>
      <point x="195" y="17"/>
      <point x="199" y="13" type="curve"/>
      <point x="217" y="15"/>
      <point x="221" y="8"/>
      <point x="235" y="5" type="curve"/>
      <point x="247" y="7"/>
      <point x="260" y="2"/>
      <point x="273" y="2" type="curve" smooth="yes"/>
      <point x="285" y="1"/>
      <point x="297" y="4"/>
      <point x="308" y="5" type="curve" smooth="yes"/>
      <point x="323" y="5"/>
      <point x="335" y="4"/>
      <point x="348" y="5" type="curve" smooth="yes"/>
      <point x="366" y="6"/>
      <point x="382" y="15"/>
      <point x="397" y="17" type="curve"/>
      <point x="402" y="23"/>
      <point x="412" y="24"/>
      <point x="417" y="29" type="curve" smooth="yes"/>
      <point x="423" y="35"/>
      <point x="432" y="39"/>
      <point x="440" y="42" type="curve"/>
      <point x="450" y="52"/>
      <point x="463" y="59"/>
      <point x="474" y="69" type="curve"/>
      <point x="482" y="80"/>
      <point x="490" y="91"/>
      <point x="502" y="98" type="curve"/>
      <point x="505" y="107"/>
      <point x="509" y="115"/>
      <point x="518" y="118" type="curve"/>
      <point x="516" y="134"/>
      <point x="526" y="136"/>
      <point x="529" y="148" type="curve" smooth="yes"/>
      <point x="535" y="167"/>
      <point x="541" y="185"/>
      <point x="545" y="205" type="curve"/>
      <point x="547" y="230"/>
      <point x="541" y="252"/>
      <point x="545" y="274" type="curve" smooth="yes"/>
      <point x="545" y="275"/>
      <point x="545" y="275"/>
      <point x="544" y="275" type="curve"/>
      <point x="544" y="300"/>
      <point x="536" y="322"/>
      <point x="534" y="349" type="curve"/>
      <point x="527" y="369"/>
      <point x="515" y="381"/>
      <point x="509" y="400" type="curve"/>
    </contour>
    <contour>
      <point x="202" y="125" type="line"/>
      <point x="199" y="130"/>
      <point x="193" y="133"/>
      <point x="190" y="136" type="curve"/>
      <point x="185" y="144" type="line"/>
      <point x="183" y="145"/>
      <point x="180" y="145"/>
      <point x="179" y="147" type="curve"/>
      <point x="170" y="154"/>
      <point x="162" y="162"/>
      <point x="156" y="170" type="curve"/>
      <point x="153" y="176"/>
      <point x="151" y="183"/>
      <point x="148" y="188" type="curve" smooth="yes"/>
      <point x="145" y="195"/>
      <point x="140" y="199"/>
      <point x="138" y="205" type="curve"/>
      <point x="134" y="227"/>
      <point x="130" y="247"/>
      <point x="131" y="274" type="curve"/>
      <point x="133" y="284"/>
      <point x="138" y="289"/>
      <point x="138" y="301" type="curve"/>
      <point x="144" y="308"/>
      <point x="148" y="317"/>
      <point x="150" y="327" type="curve"/>
      <point x="155" y="333"/>
      <point x="158" y="339"/>
      <point x="162" y="347" type="curve"/>
      <point x="168" y="351"/>
      <point x="170" y="358"/>
      <point x="176" y="361" type="curve"/>
      <point x="189" y="375"/>
      <point x="206" y="384"/>
      <point x="220" y="397" type="curve"/>
      <point x="234" y="400"/>
      <point x="242" y="410"/>
      <point x="253" y="416" type="curve"/>
      <point x="267" y="412"/>
      <point x="280" y="416"/>
      <point x="292" y="419" type="curve"/>
      <point x="316" y="420"/>
      <point x="339" y="418"/>
      <point x="359" y="414" type="curve"/>
      <point x="365" y="409"/>
      <point x="370" y="401"/>
      <point x="380" y="399" type="curve"/>
      <point x="384" y="391"/>
      <point x="393" y="387"/>
      <point x="402" y="384" type="curve"/>
      <point x="411" y="371"/>
      <point x="422" y="360"/>
      <point x="434" y="349" type="curve"/>
      <point x="434" y="340"/>
      <point x="439" y="336"/>
      <point x="443" y="329" type="curve"/>
      <point x="444" y="321"/>
      <point x="448" y="317"/>
      <point x="452" y="312" type="curve"/>
      <point x="451" y="296"/>
      <point x="457" y="289"/>
      <point x="461" y="278" type="curve"/>
      <point x="458" y="269"/>
      <point x="463" y="260"/>
      <point x="463" y="252" type="curve" smooth="yes"/>
      <point x="462" y="240"/>
      <point x="457" y="230"/>
      <point x="457" y="217" type="curve"/>
      <point x="449" y="202"/>
      <point x="443" y="185"/>
      <point x="435" y="168" type="curve"/>
      <point x="423" y="153"/>
      <point x="411" y="140"/>
      <point x="397" y="127" type="curve"/>
      <point x="384" y="124"/>
      <point x="376" y="116"/>
      <point x="365" y="110" type="curve"/>
      <point x="355" y="109"/>
      <point x="347" y="106"/>
      <point x="339" y="104" type="curve"/>
      <point x="330" y="100"/>
      <point x="318" y="101"/>
      <point x="310" y="98" type="curve"/>
      <point x="306" y="101"/>
      <point x="298" y="100"/>
      <point x="293" y="104" type="curve"/>
      <point x="287" y="104"/>
      <point x="284" y="100"/>
      <point x="277" y="100" type="curve"/>
      <point x="270" y="104"/>
      <point x="258" y="102"/>
      <point x="250" y="105" type="curve" smooth="yes"/>
    </contour>
  </outline>
</glyph>
<glyph name="one" format="2">
  <advance width="317"/>
  <unicode hex="0031"/>
  <outline>
    <contour>
      <point x="244" y="263" type="line" smooth="yes"/>
      <point x="244" y="316"/>
      <point x="243" y="368"/>
      <point x="244" y="417" type="curve" smooth="yes"/>
      <point x="245" y="429"/>
      <point x="246" y="442"/>
      <point x="246" y="455" type="curve" smooth="yes"/>
      <point x="246" y="466"/>
      <point x="247" y="480"/>
      <point x="240" y="490" type="curve"/>
      <point x="229" y="496"/>
      <point x="216" y="492"/>
      <point x="208" y="492" type="curve"/>
      <point x="204" y="491"/>
      <point x="199" y="493"/>
      <point x="196" y="493" type="curve" smooth="yes"/>
      <point x="180" y="493"/>
      <point x="165" y="490"/>
      <point x="149" y="490" type="curve" smooth="yes"/>
      <point x="102" y="490" type="line" smooth="yes"/>
      <point x="86" y="490"/>
      <point x="70" y="492"/>
      <point x="55" y="487" type="curve"/>
      <point x="49" y="477"/>
      <point x="50" y="463"/>
      <point x="49" y="449" type="curve" smooth="yes"/>
      <point x="48" y="436"/>
      <point x="46" y="421"/>
      <point x="49" y="408" type="curve"/>
      <point x="53" y="405"/>
      <point x="56" y="402"/>
      <point x="58" y="398" type="curve"/>
      <point x="87" y="389"/>
      <point x="110" y="405"/>
      <point x="144" y="401" type="curve"/>
      <point x="156" y="392"/>
      <point x="152" y="367"/>
      <point x="159" y="353" type="curve"/>
      <point x="156" y="335"/>
      <point x="160" y="319"/>
      <point x="156" y="301" type="curve"/>
      <point x="159" y="276" type="line"/>
      <point x="154" y="252"/>
      <point x="157" y="227"/>
      <point x="161" y="202" type="curve"/>
      <point x="156" y="166"/>
      <point x="163" y="120"/>
      <point x="156" y="87" type="curve"/>
      <point x="163" y="64"/>
      <point x="154" y="38"/>
      <point x="156" y="17" type="curve"/>
      <point x="159" y="16"/>
      <point x="161" y="12"/>
      <point x="162" y="8" type="curve"/>
      <point x="175" y="0"/>
      <point x="194" y="4"/>
      <point x="211" y="5" type="curve" smooth="yes"/>
      <point x="223" y="5"/>
      <point x="234" y="2"/>
      <point x="243" y="6" type="curve"/>
      <point x="248" y="15"/>
      <point x="254" y="21"/>
      <point x="252" y="37" type="curve" smooth="yes"/>
      <point x="252" y="39"/>
      <point x="250" y="39"/>
      <point x="251" y="41" type="curve"/>
      <point x="250" y="52"/>
      <point x="247" y="63"/>
      <point x="246" y="73" type="curve" smooth="yes"/>
      <point x="246" y="76"/>
      <point x="248" y="78"/>
      <point x="248" y="82" type="curve" smooth="yes"/>
      <point x="248" y="85"/>
      <point x="246" y="89"/>
      <point x="246" y="92" type="curve" smooth="yes"/>
      <point x="245" y="117"/>
      <point x="248" y="143"/>
      <point x="243" y="164" type="curve"/>
      <point x="249" y="180"/>
      <point x="245" y="201"/>
      <point x="244" y="220" type="curve" smooth="yes"/>
    </contour>
  </outline>
</glyph>
<glyph name="two" format="2">
  <advance width="554"/>
  <unicode hex="0032"/>
  <outline>
    <contour>
      <point x="458" y="356" type="line"/>
      <point x="454" y="366"/>
      <point x="449" y="374"/>
      <point x="448" y="388" type="curve"/>
      <point x="439" y="405"/>
      <point x="427" y="420"/>
      <point x="417" y="436" type="curve"/>
      <point x="407" y="446"/>
      <point x="395" y="455"/>
      <point x="387" y="466" type="curve"/>
      <point x="377" y="470"/>
      <point x="370" y="477"/>
      <point x="361" y="481" type="curve" smooth="yes"/>
      <point x="335" y="496" type="line"/>
      <point x="314" y="497"/>
      <point x="302" y="507"/>
      <point x="283" y="510" type="curve"/>
      <point x="253" y="510" type="line"/>
      <point x="246" y="508"/>
      <point x="241" y="506"/>
      <point x="231" y="507" type="curve"/>
      <point x="224" y="504"/>
      <point x="218" y="498"/>
      <point x="206" y="499" type="curve"/>
      <point x="200" y="495"/>
      <point x="193" y="492"/>
      <point x="186" y="488" type="curve"/>
      <point x="164" y="483"/>
      <point x="153" y="471"/>
      <point x="136" y="461" type="curve"/>
      <point x="109" y="432" type="line"/>
      <point x="102" y="419"/>
      <point x="95" y="404"/>
      <point x="84" y="393" type="curve"/>
      <point x="83" y="383"/>
      <point x="80" y="376"/>
      <point x="75" y="369" type="curve"/>
      <point x="74" y="356"/>
      <point x="73" y="342"/>
      <point x="69" y="333" type="curve"/>
      <point x="71" y="321"/>
      <point x="67" y="312"/>
      <point x="66" y="301" type="curve" smooth="yes"/>
      <point x="65" y="280"/>
      <point x="72" y="262"/>
      <point x="72" y="241" type="curve"/>
      <point x="78" y="234"/>
      <point x="80" y="222"/>
      <point x="84" y="214" type="curve"/>
      <point x="85" y="213"/>
      <point x="92" y="207"/>
      <point x="92" y="206" type="curve"/>
      <point x="93" y="204"/>
      <point x="142" y="215"/>
      <point x="149" y="219" type="curve"/>
      <point x="158" y="222"/>
      <point x="165" y="230"/>
      <point x="165" y="233" type="curve" smooth="yes"/>
      <point x="165" y="236"/>
      <point x="153" y="284"/>
      <point x="151" y="298" type="curve"/>
      <point x="151" y="305"/>
      <point x="155" y="315"/>
      <point x="151" y="324" type="curve"/>
      <point x="155" y="333"/>
      <point x="160" y="340"/>
      <point x="161" y="353" type="curve"/>
      <point x="167" y="359"/>
      <point x="174" y="367"/>
      <point x="178" y="376" type="curve"/>
      <point x="190" y="384"/>
      <point x="197" y="395"/>
      <point x="210" y="403" type="curve"/>
      <point x="219" y="407"/>
      <point x="230" y="413"/>
      <point x="241" y="414" type="curve" smooth="yes"/>
      <point x="244" y="414"/>
      <point x="246" y="412"/>
      <point x="249" y="412" type="curve" smooth="yes"/>
      <point x="266" y="413"/>
      <point x="281" y="416"/>
      <point x="295" y="411" type="curve" smooth="yes"/>
      <point x="306" y="408"/>
      <point x="317" y="399"/>
      <point x="328" y="398" type="curve"/>
      <point x="337" y="390"/>
      <point x="348" y="383"/>
      <point x="356" y="374" type="curve"/>
      <point x="359" y="363"/>
      <point x="368" y="356"/>
      <point x="371" y="346" type="curve" smooth="yes"/>
      <point x="377" y="332"/>
      <point x="378" y="313"/>
      <point x="379" y="295" type="curve"/>
      <point x="375" y="281"/>
      <point x="375" y="273"/>
      <point x="367" y="255" type="curve" smooth="yes"/>
      <point x="358" y="237"/>
      <point x="316" y="191"/>
      <point x="316" y="191" type="curve"/>
      <point x="316" y="191"/>
      <point x="298" y="174"/>
      <point x="286" y="169" type="curve"/>
      <point x="280" y="158"/>
      <point x="263" y="157"/>
      <point x="258" y="145" type="curve"/>
      <point x="236" y="133"/>
      <point x="220" y="113"/>
      <point x="196" y="104" type="curve"/>
      <point x="192" y="92"/>
      <point x="179" y="89"/>
      <point x="173" y="81" type="curve"/>
      <point x="162" y="75"/>
      <point x="152" y="68"/>
      <point x="144" y="64" type="curve"/>
      <point x="141" y="61"/>
      <point x="137" y="60"/>
      <point x="135" y="58" type="curve"/>
      <point x="122" y="51"/>
      <point x="112" y="40"/>
      <point x="100" y="34" type="curve"/>
      <point x="94" y="24"/>
      <point x="81" y="25"/>
      <point x="81" y="12" type="curve"/>
      <point x="89" y="2"/>
      <point x="103" y="7"/>
      <point x="116" y="8" type="curve" smooth="yes"/>
      <point x="146" y="10"/>
      <point x="182" y="5"/>
      <point x="208" y="8" type="curve"/>
      <point x="214" y="10"/>
      <point x="214" y="4"/>
      <point x="222" y="5" type="curve" smooth="yes"/>
      <point x="227" y="6"/>
      <point x="231" y="10"/>
      <point x="237" y="11" type="curve"/>
      <point x="249" y="8"/>
      <point x="266" y="6"/>
      <point x="278" y="6" type="curve" smooth="yes"/>
      <point x="285" y="7"/>
      <point x="297" y="6"/>
      <point x="308" y="6" type="curve" smooth="yes"/>
      <point x="322" y="6"/>
      <point x="336" y="8"/>
      <point x="348" y="5" type="curve"/>
      <point x="357" y="8"/>
      <point x="374" y="4"/>
      <point x="382" y="11" type="curve"/>
      <point x="389" y="5"/>
      <point x="400" y="8"/>
      <point x="408" y="8" type="curve" smooth="yes"/>
      <point x="414" y="8"/>
      <point x="419" y="6"/>
      <point x="425" y="6" type="curve" smooth="yes"/>
      <point x="440" y="7"/>
      <point x="456" y="11"/>
      <point x="472" y="12" type="curve" smooth="yes"/>
      <point x="487" y="13"/>
      <point x="512" y="17"/>
      <point x="512" y="17" type="curve"/>
      <point x="512" y="17"/>
      <point x="513" y="83"/>
      <point x="500" y="101" type="curve"/>
      <point x="484" y="103"/>
      <point x="467" y="94"/>
      <point x="446" y="95" type="curve"/>
      <point x="434" y="93"/>
      <point x="410" y="93"/>
      <point x="390" y="93" type="curve"/>
      <point x="385" y="94"/>
      <point x="382" y="91"/>
      <point x="378" y="90" type="curve"/>
      <point x="361" y="95"/>
      <point x="342" y="93"/>
      <point x="323" y="92" type="curve" smooth="yes"/>
      <point x="315" y="91"/>
      <point x="305" y="89"/>
      <point x="301" y="95" type="curve"/>
      <point x="305" y="102"/>
      <point x="308" y="108"/>
      <point x="318" y="109" type="curve"/>
      <point x="328" y="119"/>
      <point x="339" y="126"/>
      <point x="355" y="130" type="curve"/>
      <point x="361" y="139"/>
      <point x="370" y="146"/>
      <point x="378" y="154" type="curve"/>
      <point x="389" y="159"/>
      <point x="396" y="169"/>
      <point x="408" y="172" type="curve"/>
      <point x="412" y="177"/>
      <point x="417" y="182"/>
      <point x="420" y="188" type="curve"/>
      <point x="424" y="192"/>
      <point x="432" y="193"/>
      <point x="434" y="200" type="curve"/>
      <point x="441" y="212"/>
      <point x="444" y="228"/>
      <point x="454" y="237" type="curve"/>
      <point x="453" y="248"/>
      <point x="458" y="252"/>
      <point x="460" y="261" type="curve"/>
      <point x="459" y="272"/>
      <point x="461" y="300"/>
      <point x="460" y="307" type="curve" smooth="yes"/>
    </contour>
  </outline>
</glyph>
<glyph name="three" format="2">
  <advance width="482"/>
  <unicode hex="0033"/>
  <outline>
    <contour>
      <point x="363" y="-157" type="line"/>
      <point x="373" y="-152"/>
      <point x="379" y="-141"/>
      <point x="394" y="-139" type="curve"/>
      <point x="398" y="-129"/>
      <point x="405" y="-123"/>
      <point x="410" y="-116" type="curve" smooth="yes"/>
      <point x="417" y="-107"/>
      <point x="421" y="-99"/>
      <point x="429" y="-93" type="curve"/>
      <point x="432" y="-83"/>
      <point x="438" y="-73"/>
      <point x="444" y="-65" type="curve"/>
      <point x="442" y="-51"/>
      <point x="452" y="-47"/>
      <point x="453" y="-35" type="curve" smooth="yes"/>
      <point x="455" y="-23"/>
      <point x="455" y="-11"/>
      <point x="456" y="2" type="curve"/>
      <point x="454" y="11"/>
      <point x="448" y="20"/>
      <point x="447" y="32" type="curve" smooth="yes"/>
      <point x="445" y="48"/>
      <point x="449" y="65"/>
      <point x="445" y="81" type="curve"/>
      <point x="437" y="99"/>
      <point x="429" y="120"/>
      <point x="416" y="134" type="curve"/>
      <point x="412" y="137"/>
      <point x="413" y="142"/>
      <point x="407" y="142" type="curve"/>
      <point x="400" y="146"/>
      <point x="401" y="158"/>
      <point x="392" y="160" type="curve"/>
      <point x="386" y="167"/>
      <point x="374" y="169"/>
      <point x="366" y="174" type="curve" smooth="yes"/>
      <point x="358" y="180"/>
      <point x="342" y="178"/>
      <point x="340" y="189" type="curve"/>
      <point x="347" y="197"/>
      <point x="358" y="199"/>
      <point x="369" y="202" type="curve"/>
      <point x="370" y="206"/>
      <point x="373" y="207"/>
      <point x="377" y="208" type="curve"/>
      <point x="391" y="219"/>
      <point x="404" y="233"/>
      <point x="416" y="247" type="curve"/>
      <point x="418" y="262"/>
      <point x="425" y="272"/>
      <point x="430" y="284" type="curve"/>
      <point x="434" y="302"/>
      <point x="431" y="315"/>
      <point x="434" y="333" type="curve"/>
      <point x="430" y="348"/>
      <point x="426" y="361"/>
      <point x="424" y="377" type="curve"/>
      <point x="414" y="395"/>
      <point x="406" y="414"/>
      <point x="398" y="432" type="curve"/>
      <point x="389" y="439"/>
      <point x="384" y="448"/>
      <point x="377" y="456" type="curve" smooth="yes"/>
      <point x="371" y="462"/>
      <point x="361" y="465"/>
      <point x="357" y="473" type="curve"/>
      <point x="349" y="478"/>
      <point x="340" y="482"/>
      <point x="334" y="488" type="curve"/>
      <point x="320" y="492"/>
      <point x="305" y="495"/>
      <point x="296" y="504" type="curve"/>
      <point x="280" y="504"/>
      <point x="267" y="507"/>
      <point x="253" y="508" type="curve"/>
      <point x="239" y="506"/>
      <point x="223" y="502"/>
      <point x="204" y="504" type="curve"/>
      <point x="188" y="499"/>
      <point x="175" y="494"/>
      <point x="161" y="488" type="curve"/>
      <point x="152" y="479"/>
      <point x="142" y="470"/>
      <point x="126" y="466" type="curve"/>
      <point x="120" y="458"/>
      <point x="112" y="451"/>
      <point x="103" y="444" type="curve"/>
      <point x="98" y="435"/>
      <point x="92" y="425"/>
      <point x="85" y="417" type="curve"/>
      <point x="82" y="402"/>
      <point x="78" y="388"/>
      <point x="71" y="377" type="curve"/>
      <point x="70" y="359"/>
      <point x="66" y="345"/>
      <point x="63" y="328" type="curve"/>
      <point x="63" y="312"/>
      <point x="63" y="297"/>
      <point x="68" y="287" type="curve"/>
      <point x="73" y="283"/>
      <point x="82" y="282"/>
      <point x="87" y="278" type="curve"/>
      <point x="111" y="283"/>
      <point x="145" y="269"/>
      <point x="155" y="289" type="curve"/>
      <point x="155" y="306"/>
      <point x="148" y="316"/>
      <point x="148" y="333" type="curve"/>
      <point x="158" y="361"/>
      <point x="172" y="385"/>
      <point x="192" y="403" type="curve"/>
      <point x="204" y="410"/>
      <point x="217" y="416"/>
      <point x="233" y="420" type="curve"/>
      <point x="254" y="421"/>
      <point x="272" y="419"/>
      <point x="287" y="414" type="curve"/>
      <point x="320" y="393" type="line"/>
      <point x="331" y="374"/>
      <point x="347" y="360"/>
      <point x="351" y="334" type="curve"/>
      <point x="347" y="301" type="line"/>
      <point x="340" y="282"/>
      <point x="328" y="269"/>
      <point x="319" y="252" type="curve"/>
      <point x="310" y="250"/>
      <point x="306" y="242"/>
      <point x="299" y="239" type="curve" smooth="yes"/>
      <point x="290" y="235"/>
      <point x="281" y="234"/>
      <point x="271" y="231" type="curve"/>
      <point x="258" y="232"/>
      <point x="248" y="229"/>
      <point x="241" y="224" type="curve"/>
      <point x="236" y="198"/>
      <point x="239" y="164"/>
      <point x="241" y="142" type="curve"/>
      <point x="246" y="137"/>
      <point x="254" y="135"/>
      <point x="267" y="136" type="curve"/>
      <point x="276" y="133"/>
      <point x="286" y="131"/>
      <point x="297" y="130" type="curve"/>
      <point x="297" y="128"/>
      <point x="300" y="128"/>
      <point x="302" y="128" type="curve"/>
      <point x="321" y="117"/>
      <point x="340" y="104"/>
      <point x="352" y="85" type="curve"/>
      <point x="358" y="66"/>
      <point x="372" y="53"/>
      <point x="372" y="27" type="curve" smooth="yes"/>
      <point x="373" y="17"/>
      <point x="370" y="7"/>
      <point x="369" y="-1" type="curve" smooth="yes"/>
      <point x="364" y="-29" type="line"/>
      <point x="358" y="-45"/>
      <point x="346" y="-51"/>
      <point x="339" y="-64" type="curve"/>
      <point x="326" y="-66"/>
      <point x="323" y="-76"/>
      <point x="314" y="-81" type="curve"/>
      <point x="290" y="-90"/>
      <point x="264" y="-96"/>
      <point x="232" y="-99" type="curve"/>
      <point x="213" y="-92"/>
      <point x="197" y="-84"/>
      <point x="178" y="-78" type="curve"/>
      <point x="171" y="-71"/>
      <point x="162" y="-64"/>
      <point x="154" y="-57" type="curve"/>
      <point x="148" y="-43"/>
      <point x="139" y="-36"/>
      <point x="134" y="-23" type="curve"/>
      <point x="133" y="-12"/>
      <point x="128" y="-3"/>
      <point x="126" y="8" type="curve"/>
      <point x="126" y="21"/>
      <point x="131" y="36"/>
      <point x="126" y="47" type="curve"/>
      <point x="119" y="57"/>
      <point x="98" y="53"/>
      <point x="80" y="54" type="curve" smooth="yes"/>
      <point x="69" y="54"/>
      <point x="57" y="56"/>
      <point x="51" y="52" type="curve"/>
      <point x="41" y="36"/>
      <point x="45" y="15"/>
      <point x="41" y="-5" type="curve"/>
      <point x="41" y="-11"/>
      <point x="43" y="-15"/>
      <point x="43" y="-21" type="curve"/>
      <point x="49" y="-33"/>
      <point x="52" y="-47"/>
      <point x="55" y="-61" type="curve"/>
      <point x="67" y="-73"/>
      <point x="71" y="-92"/>
      <point x="82" y="-105" type="curve"/>
      <point x="91" y="-119"/>
      <point x="105" y="-128"/>
      <point x="113" y="-143" type="curve"/>
      <point x="127" y="-147"/>
      <point x="135" y="-156"/>
      <point x="143" y="-165" type="curve"/>
      <point x="153" y="-167"/>
      <point x="164" y="-173"/>
      <point x="170" y="-177" type="curve" smooth="yes"/>
      <point x="174" y="-180"/>
      <point x="177" y="-180"/>
      <point x="181" y="-182" type="curve" smooth="yes"/>
      <point x="192" y="-187"/>
      <point x="207" y="-192"/>
      <point x="224" y="-187" type="curve"/>
      <point x="228" y="-190"/>
      <point x="231" y="-193"/>
      <point x="239" y="-192" type="curve" smooth="yes"/>
      <point x="246" y="-192"/>
      <point x="247" y="-185"/>
      <point x="255" y="-187" type="curve" smooth="yes"/>
      <point x="272" y="-191"/>
      <point x="283" y="-182"/>
      <point x="300" y="-187" type="curve"/>
      <point x="311" y="-183"/>
      <point x="320" y="-179"/>
      <point x="332" y="-177" type="curve"/>
    </contour>
  </outline>
</glyph>
<glyph name="five" format="2">
  <advance width="504"/>
  <unicode hex="0035"/>
  <outline>
    <contour>
      <point x="336" y="-179" type="line"/>
      <point x="341" y="-173"/>
      <point x="350" y="-169"/>
      <point x="357" y="-163" type="curve"/>
      <point x="367" y="-160"/>
      <point x="371" y="-153"/>
      <point x="381" y="-151" type="curve"/>
      <point x="386" y="-143"/>
      <point x="392" y="-138"/>
      <point x="400" y="-131" type="curve"/>
      <point x="404" y="-130"/>
      <point x="406" y="-126"/>
      <point x="408" y="-122" type="curve"/>
      <point x="411" y="-119"/>
      <point x="418" y="-119"/>
      <point x="418" y="-112" type="curve"/>
      <point x="423" y="-108"/>
      <point x="423" y="-99"/>
      <point x="427" y="-95" type="curve" smooth="yes"/>
      <point x="431" y="-90"/>
      <point x="435" y="-85"/>
      <point x="436" y="-76" type="curve"/>
      <point x="441" y="-72"/>
      <point x="447" y="-69"/>
      <point x="452" y="-64" type="curve"/>
      <point x="451" y="-56"/>
      <point x="456" y="-55"/>
      <point x="459" y="-52" type="curve"/>
      <point x="457" y="-39"/>
      <point x="463" y="-36"/>
      <point x="464" y="-26" type="curve" smooth="yes"/>
      <point x="464" y="-11"/>
      <point x="463" y="6"/>
      <point x="466" y="20" type="curve"/>
      <point x="463" y="32"/>
      <point x="463" y="46"/>
      <point x="463" y="60" type="curve"/>
      <point x="458" y="72"/>
      <point x="455" y="85"/>
      <point x="455" y="101" type="curve"/>
      <point x="446" y="121"/>
      <point x="436" y="139"/>
      <point x="427" y="159" type="curve"/>
      <point x="419" y="169"/>
      <point x="411" y="179"/>
      <point x="404" y="191" type="curve"/>
      <point x="383" y="213"/>
      <point x="356" y="229"/>
      <point x="329" y="246" type="curve"/>
      <point x="317" y="247"/>
      <point x="305" y="250"/>
      <point x="298" y="255" type="curve"/>
      <point x="277" y="258"/>
      <point x="263" y="260"/>
      <point x="241" y="258" type="curve"/>
      <point x="232" y="254"/>
      <point x="223" y="252"/>
      <point x="212" y="251" type="curve"/>
      <point x="207" y="247"/>
      <point x="190" y="243"/>
      <point x="183" y="249" type="curve"/>
      <point x="186" y="265"/>
      <point x="192" y="275"/>
      <point x="194" y="289" type="curve" smooth="yes"/>
      <point x="200" y="317"/>
      <point x="209" y="341"/>
      <point x="215" y="369" type="curve"/>
      <point x="220" y="382"/>
      <point x="222" y="399"/>
      <point x="229" y="408" type="curve"/>
      <point x="260" y="411"/>
      <point x="295" y="405"/>
      <point x="325" y="409" type="curve"/>
      <point x="331" y="409"/>
      <point x="336" y="408"/>
      <point x="339" y="406" type="curve"/>
      <point x="376" y="410"/>
      <point x="409" y="407"/>
      <point x="444" y="409" type="curve"/>
      <point x="453" y="417"/>
      <point x="451" y="428"/>
      <point x="452" y="440" type="curve" smooth="yes"/>
      <point x="453" y="462"/>
      <point x="454" y="483"/>
      <point x="446" y="496" type="curve"/>
      <point x="426" y="506"/>
      <point x="401" y="498"/>
      <point x="376" y="498" type="curve" smooth="yes"/>
      <point x="369" y="498"/>
      <point x="363" y="499"/>
      <point x="356" y="499" type="curve" smooth="yes"/>
      <point x="339" y="499"/>
      <point x="321" y="498"/>
      <point x="304" y="498" type="curve" smooth="yes"/>
      <point x="262" y="498"/>
      <point x="214" y="501"/>
      <point x="175" y="498" type="curve" smooth="yes"/>
      <point x="167" y="497"/>
      <point x="160" y="498"/>
      <point x="154" y="495" type="curve"/>
      <point x="153" y="482"/>
      <point x="147" y="472"/>
      <point x="144" y="460" type="curve" smooth="yes"/>
      <point x="140" y="447"/>
      <point x="138" y="434"/>
      <point x="136" y="421" type="curve" smooth="yes"/>
      <point x="130" y="395"/>
      <point x="125" y="371"/>
      <point x="116" y="350" type="curve"/>
      <point x="113" y="325"/>
      <point x="109" y="304"/>
      <point x="101" y="287" type="curve"/>
      <point x="101" y="265"/>
      <point x="88" y="258"/>
      <point x="90" y="234" type="curve"/>
      <point x="82" y="220"/>
      <point x="83" y="198"/>
      <point x="75" y="183" type="curve"/>
      <point x="74" y="180"/>
      <point x="73" y="175"/>
      <point x="73" y="169" type="curve"/>
      <point x="69" y="160"/>
      <point x="66" y="149"/>
      <point x="64" y="139" type="curve"/>
      <point x="60" y="128"/>
      <point x="55" y="117"/>
      <point x="58" y="105" type="curve"/>
      <point x="68" y="101"/>
      <point x="76" y="108"/>
      <point x="85" y="110" type="curve"/>
      <point x="92" y="114"/>
      <point x="95" y="124"/>
      <point x="105" y="125" type="curve"/>
      <point x="109" y="133"/>
      <point x="118" y="137"/>
      <point x="125" y="140" type="curve"/>
      <point x="130" y="147"/>
      <point x="141" y="149"/>
      <point x="147" y="156" type="curve"/>
      <point x="162" y="153"/>
      <point x="162" y="164"/>
      <point x="175" y="164" type="curve"/>
      <point x="182" y="169"/>
      <point x="195" y="170"/>
      <point x="204" y="172" type="curve"/>
      <point x="224" y="173"/>
      <point x="235" y="174"/>
      <point x="254" y="172" type="curve"/>
      <point x="267" y="169"/>
      <point x="280" y="164"/>
      <point x="294" y="160" type="curve"/>
      <point x="310" y="152"/>
      <point x="323" y="141"/>
      <point x="337" y="130" type="curve"/>
      <point x="345" y="121"/>
      <point x="353" y="112"/>
      <point x="359" y="102" type="curve"/>
      <point x="364" y="88"/>
      <point x="373" y="77"/>
      <point x="377" y="64" type="curve"/>
      <point x="379" y="51"/>
      <point x="382" y="37"/>
      <point x="379" y="25" type="curve" smooth="yes"/>
      <point x="377" y="18"/>
      <point x="374" y="15"/>
      <point x="372" y="11" type="curve"/>
      <point x="371" y="3"/>
      <point x="371" y="-4"/>
      <point x="369" y="-10" type="curve"/>
      <point x="369" y="-11"/>
      <point x="367" y="-14"/>
      <point x="366" y="-15" type="curve"/>
      <point x="363" y="-22"/>
      <point x="361" y="-24"/>
      <point x="357" y="-30" type="curve" smooth="yes"/>
      <point x="350" y="-39"/>
      <point x="342" y="-49"/>
      <point x="337" y="-58" type="curve"/>
      <point x="328" y="-60"/>
      <point x="321" y="-69"/>
      <point x="314" y="-73" type="curve" smooth="yes"/>
      <point x="306" y="-79"/>
      <point x="297" y="-83"/>
      <point x="287" y="-87" type="curve" smooth="yes"/>
      <point x="272" y="-92"/>
      <point x="253" y="-93"/>
      <point x="239" y="-99" type="curve"/>
      <point x="232" y="-98"/>
      <point x="223" y="-91"/>
      <point x="215" y="-95" type="curve"/>
      <point x="207" y="-93"/>
      <point x="200" y="-90"/>
      <point x="189" y="-92" type="curve"/>
      <point x="178" y="-84"/>
      <point x="165" y="-77"/>
      <point x="152" y="-72" type="curve"/>
      <point x="135" y="-56"/>
      <point x="124" y="-36"/>
      <point x="112" y="-15" type="curve" smooth="yes"/>
      <point x="107" y="-4"/>
      <point x="109" y="14"/>
      <point x="96" y="17" type="curve" smooth="yes"/>
      <point x="89" y="19"/>
      <point x="75" y="14"/>
      <point x="67" y="11" type="curve"/>
      <point x="58" y="5"/>
      <point x="46" y="4"/>
      <point x="37" y="0" type="curve"/>
      <point x="31" y="-7"/>
      <point x="27" y="-15"/>
      <point x="23" y="-25" type="curve"/>
      <point x="21" y="-38"/>
      <point x="27" y="-43"/>
      <point x="27" y="-55" type="curve"/>
      <point x="34" y="-63"/>
      <point x="39" y="-72"/>
      <point x="40" y="-85" type="curve"/>
      <point x="70" y="-117" type="line"/>
      <point x="78" y="-129"/>
      <point x="92" y="-137"/>
      <point x="101" y="-151" type="curve"/>
      <point x="125" y="-161"/>
      <point x="145" y="-177"/>
      <point x="167" y="-191" type="curve"/>
      <point x="201" y="-197"/>
      <point x="242" y="-200"/>
      <point x="276" y="-194" type="curve"/>
      <point x="283" y="-195"/>
      <point x="289" y="-197"/>
      <point x="298" y="-197" type="curve"/>
      <point x="305" y="-193"/>
      <point x="311" y="-185"/>
      <point x="319" y="-182" type="curve"/>
    </contour>
  </outline>
</glyph>
<glyph name="eight" format="2">
  <advance width="520"/>
  <unicode hex="0038"/>
  <outline>
    <contour>
      <point x="82" y="363" type="line"/>
      <point x="75" y="347"/>
      <point x="67" y="333"/>
      <point x="58" y="319" type="curve"/>
      <point x="51" y="304"/>
      <point x="47" y="286"/>
      <point x="41" y="269" type="curve"/>
      <point x="45" y="255"/>
      <point x="40" y="242"/>
      <point x="38" y="229" type="curve" smooth="yes"/>
      <point x="37" y="219"/>
      <point x="39" y="207"/>
      <point x="36" y="199" type="curve"/>
      <point x="39" y="194"/>
      <point x="41" y="187"/>
      <point x="38" y="180" type="curve"/>
      <point x="40" y="176"/>
      <point x="43" y="172"/>
      <point x="43" y="164" type="curve"/>
      <point x="49" y="155"/>
      <point x="54" y="145"/>
      <point x="56" y="134" type="curve"/>
      <point x="63" y="126"/>
      <point x="68" y="118"/>
      <point x="71" y="110" type="curve"/>
      <point x="73" y="107"/>
      <point x="75" y="105"/>
      <point x="76" y="102" type="curve"/>
      <point x="78" y="100"/>
      <point x="78" y="96"/>
      <point x="80" y="93" type="curve"/>
      <point x="87" y="87" type="line" smooth="yes"/>
      <point x="88" y="86"/>
      <point x="87" y="84"/>
      <point x="88" y="82" type="curve" smooth="yes"/>
      <point x="91" y="77"/>
      <point x="95" y="75"/>
      <point x="96" y="70" type="curve"/>
      <point x="103" y="65"/>
      <point x="110" y="59"/>
      <point x="114" y="52" type="curve"/>
      <point x="133" y="47"/>
      <point x="145" y="38"/>
      <point x="157" y="27" type="curve"/>
      <point x="163" y="27"/>
      <point x="170" y="24"/>
      <point x="174" y="20" type="curve"/>
      <point x="202" y="19"/>
      <point x="218" y="5"/>
      <point x="250" y="6" type="curve" smooth="yes"/>
      <point x="255" y="6"/>
      <point x="257" y="2"/>
      <point x="264" y="3" type="curve"/>
      <point x="279" y="2"/>
      <point x="293" y="5"/>
      <point x="302" y="6" type="curve"/>
      <point x="304" y="7"/>
      <point x="308" y="7"/>
      <point x="314" y="8" type="curve"/>
      <point x="322" y="11"/>
      <point x="328" y="13"/>
      <point x="334" y="15" type="curve" smooth="yes"/>
      <point x="372" y="29" type="line"/>
      <point x="381" y="37"/>
      <point x="393" y="41"/>
      <point x="403" y="50" type="curve" smooth="yes"/>
      <point x="411" y="58"/>
      <point x="421" y="67"/>
      <point x="430" y="73" type="curve"/>
      <point x="441" y="88"/>
      <point x="449" y="103"/>
      <point x="462" y="113" type="curve"/>
      <point x="461" y="125"/>
      <point x="470" y="126"/>
      <point x="467" y="137" type="curve"/>
      <point x="471" y="143"/>
      <point x="478" y="145"/>
      <point x="479" y="154" type="curve"/>
      <point x="477" y="170"/>
      <point x="483" y="178"/>
      <point x="485" y="191" type="curve" smooth="yes"/>
      <point x="491" y="224"/>
      <point x="480" y="254"/>
      <point x="482" y="284" type="curve"/>
      <point x="478" y="294"/>
      <point x="475" y="304"/>
      <point x="473" y="316" type="curve"/>
      <point x="462" y="333"/>
      <point x="454" y="352"/>
      <point x="441" y="366" type="curve"/>
      <point x="432" y="371"/>
      <point x="428" y="379"/>
      <point x="422" y="388" type="curve"/>
      <point x="416" y="388"/>
      <point x="416" y="394"/>
      <point x="410" y="396" type="curve"/>
      <point x="407" y="400"/>
      <point x="402" y="402"/>
      <point x="399" y="406" type="curve"/>
      <point x="391" y="408"/>
      <point x="387" y="412"/>
      <point x="381" y="414" type="curve"/>
      <point x="376" y="419"/>
      <point x="364" y="417"/>
      <point x="364" y="426" type="curve"/>
      <point x="369" y="434"/>
      <point x="383" y="432"/>
      <point x="390" y="436" type="curve"/>
      <point x="407" y="449"/>
      <point x="420" y="467"/>
      <point x="436" y="481" type="curve"/>
      <point x="441" y="493"/>
      <point x="448" y="502"/>
      <point x="454" y="513" type="curve"/>
      <point x="452" y="527"/>
      <point x="458" y="537"/>
      <point x="458" y="550" type="curve" smooth="yes"/>
      <point x="458" y="562"/>
      <point x="453" y="573"/>
      <point x="451" y="585" type="curve" smooth="yes"/>
      <point x="448" y="597"/>
      <point x="446" y="608"/>
      <point x="445" y="621" type="curve"/>
      <point x="441" y="628"/>
      <point x="439" y="636"/>
      <point x="438" y="646" type="curve"/>
      <point x="429" y="657"/>
      <point x="421" y="669"/>
      <point x="416" y="684" type="curve"/>
      <point x="398" y="701" type="line"/>
      <point x="393" y="708"/>
      <point x="386" y="712"/>
      <point x="378" y="717" type="curve"/>
      <point x="375" y="725"/>
      <point x="365" y="726"/>
      <point x="359" y="732" type="curve" smooth="yes"/>
      <point x="353" y="738"/>
      <point x="343" y="740"/>
      <point x="337" y="745" type="curve"/>
      <point x="325" y="743"/>
      <point x="320" y="748"/>
      <point x="312" y="750" type="curve"/>
      <point x="297" y="750"/>
      <point x="282" y="755"/>
      <point x="267" y="756" type="curve" smooth="yes"/>
      <point x="246" y="756"/>
      <point x="226" y="748"/>
      <point x="204" y="748" type="curve"/>
      <point x="195" y="741"/>
      <point x="179" y="740"/>
      <point x="170" y="732" type="curve"/>
      <point x="158" y="726"/>
      <point x="151" y="718"/>
      <point x="138" y="712" type="curve"/>
      <point x="124" y="699"/>
      <point x="114" y="681"/>
      <point x="100" y="669" type="curve"/>
      <point x="80" y="610" type="line"/>
      <point x="80" y="590" type="line"/>
      <point x="73" y="570"/>
      <point x="73" y="554"/>
      <point x="73" y="528" type="curve"/>
      <point x="76" y="519"/>
      <point x="81" y="511"/>
      <point x="82" y="499" type="curve"/>
      <point x="88" y="493"/>
      <point x="92" y="482"/>
      <point x="96" y="473" type="curve"/>
      <point x="109" y="465"/>
      <point x="119" y="452"/>
      <point x="134" y="446" type="curve" smooth="yes"/>
      <point x="142" y="443"/>
      <point x="166" y="423"/>
      <point x="162" y="418" type="curve"/>
      <point x="144" y="411"/>
      <point x="133" y="402"/>
      <point x="117" y="396" type="curve"/>
    </contour>
    <contour>
      <point x="367" y="547" type="line"/>
      <point x="364" y="533"/>
      <point x="357" y="520"/>
      <point x="352" y="508" type="curve"/>
      <point x="342" y="499"/>
      <point x="333" y="490"/>
      <point x="323" y="479" type="curve"/>
      <point x="312" y="475"/>
      <point x="301" y="470"/>
      <point x="288" y="464" type="curve"/>
      <point x="276" y="466"/>
      <point x="263" y="462"/>
      <point x="252" y="463" type="curve" smooth="yes"/>
      <point x="234" y="463"/>
      <point x="220" y="471"/>
      <point x="207" y="476" type="curve"/>
      <point x="180" y="497"/>
      <point x="158" y="524"/>
      <point x="162" y="575" type="curve"/>
      <point x="167" y="590"/>
      <point x="179" y="613"/>
      <point x="181" y="618" type="curve" smooth="yes"/>
      <point x="184" y="624"/>
      <point x="207" y="655"/>
      <point x="224" y="666" type="curve" smooth="yes"/>
      <point x="241" y="676"/>
      <point x="283" y="665"/>
      <point x="294" y="669" type="curve"/>
      <point x="303" y="665"/>
      <point x="308" y="657"/>
      <point x="316" y="652" type="curve"/>
      <point x="324" y="650"/>
      <point x="331" y="644"/>
      <point x="337" y="640" type="curve"/>
      <point x="340" y="635"/>
      <point x="341" y="628"/>
      <point x="342" y="620" type="curve"/>
      <point x="347" y="612"/>
      <point x="355" y="607"/>
      <point x="359" y="598" type="curve"/>
      <point x="361" y="589"/>
      <point x="365" y="581"/>
      <point x="367" y="571" type="curve"/>
    </contour>
    <contour>
      <point x="399" y="227" type="line"/>
      <point x="401" y="227"/>
      <point x="400" y="226"/>
      <point x="399" y="226" type="curve"/>
      <point x="400" y="217"/>
      <point x="396" y="213"/>
      <point x="398" y="204" type="curve"/>
      <point x="388" y="189"/>
      <point x="381" y="173"/>
      <point x="372" y="157" type="curve"/>
      <point x="359" y="144"/>
      <point x="346" y="131"/>
      <point x="329" y="122" type="curve"/>
      <point x="314" y="117"/>
      <point x="295" y="114"/>
      <point x="280" y="109" type="curve"/>
      <point x="269" y="109"/>
      <point x="258" y="109"/>
      <point x="248" y="107" type="curve"/>
      <point x="228" y="113"/>
      <point x="209" y="120"/>
      <point x="189" y="125" type="curve"/>
      <point x="167" y="143"/>
      <point x="151" y="165"/>
      <point x="137" y="191" type="curve"/>
      <point x="131" y="209"/>
      <point x="127" y="226"/>
      <point x="128" y="244" type="curve" smooth="yes"/>
      <point x="128" y="248"/>
      <point x="130" y="253"/>
      <point x="131" y="258" type="curve" smooth="yes"/>
      <point x="134" y="270" type="line" smooth="yes"/>
      <point x="135" y="276"/>
      <point x="139" y="281"/>
      <point x="142" y="286" type="curve"/>
      <point x="144" y="292"/>
      <point x="146" y="299"/>
      <point x="148" y="302" type="curve" smooth="yes"/>
      <point x="153" y="308"/>
      <point x="158" y="312"/>
      <point x="163" y="318" type="curve"/>
      <point x="166" y="319" type="line"/>
      <point x="171" y="328"/>
      <point x="179" y="334"/>
      <point x="186" y="341" type="curve"/>
      <point x="192" y="343"/>
      <point x="198" y="346"/>
      <point x="201" y="351" type="curve"/>
      <point x="212" y="352"/>
      <point x="223" y="353"/>
      <point x="227" y="359" type="curve"/>
      <point x="237" y="359"/>
      <point x="243" y="365"/>
      <point x="252" y="366" type="curve" smooth="yes"/>
      <point x="271" y="366"/>
      <point x="290" y="364"/>
      <point x="305" y="359" type="curve"/>
      <point x="315" y="358"/>
      <point x="321" y="351"/>
      <point x="329" y="346" type="curve"/>
      <point x="332" y="345"/>
      <point x="335" y="345"/>
      <point x="337" y="342" type="curve"/>
      <point x="348" y="337"/>
      <point x="356" y="330"/>
      <point x="366" y="322" type="curve"/>
      <point x="378" y="304"/>
      <point x="389" y="284"/>
      <point x="399" y="263" type="curve"/>
    </contour>
  </outline>
</glyph>
<glyph name="semicolon" format="2">
  <advance width="265"/>
  <unicode hex="003B"/>
  <outline>
    <contour>
      <point x="146" y="378" type="line"/>
      <point x="141" y="380"/>
      <point x="138" y="385"/>
      <point x="134" y="388" type="curve"/>
      <point x="125" y="389"/>
      <point x="117" y="391"/>
      <point x="108" y="393" type="curve"/>
      <point x="88" y="391"/>
      <point x="74" y="382"/>
      <point x="63" y="371" type="curve"/>
      <point x="59" y="362"/>
      <point x="54" y="352"/>
      <point x="48" y="345" type="curve"/>
      <point x="42" y="309"/>
      <point x="61" y="286"/>
      <point x="85" y="275" type="curve"/>
      <point x="108" y="272"/>
      <point x="128" y="274"/>
      <point x="145" y="283" type="curve"/>
      <point x="157" y="297"/>
      <point x="171" y="317"/>
      <point x="163" y="346" type="curve"/>
      <point x="163" y="348"/>
      <point x="163" y="350"/>
      <point x="161" y="350" type="curve"/>
      <point x="161" y="356"/>
      <point x="154" y="356"/>
      <point x="153" y="363" type="curve"/>
    </contour>
    <contour>
      <point x="155" y="104" type="line"/>
      <point x="134" y="118"/>
      <point x="107" y="136"/>
      <point x="71" y="129" type="curve"/>
      <point x="58" y="111"/>
      <point x="58" y="81"/>
      <point x="45" y="64" type="curve"/>
      <point x="33" y="11"/>
      <point x="8" y="-32"/>
      <point x="-2" y="-87" type="curve"/>
      <point x="-10" y="-93"/>
      <point x="-13" y="-103"/>
      <point x="-17" y="-111" type="curve"/>
      <point x="-21" y="-111"/>
      <point x="-19" y="-116"/>
      <point x="-21" y="-118" type="curve"/>
      <point x="-24" y="-125"/>
      <point x="-31" y="-129"/>
      <point x="-29" y="-140" type="curve"/>
      <point x="-24" y="-149"/>
      <point x="-14" y="-155"/>
      <point x="-4" y="-160" type="curve"/>
      <point x="11" y="-160"/>
      <point x="22" y="-158"/>
      <point x="35" y="-157" type="curve"/>
      <point x="53" y="-135"/>
      <point x="61" y="-104"/>
      <point x="80" y="-82" type="curve"/>
      <point x="83" y="-59"/>
      <point x="92" y="-40"/>
      <point x="105" y="-30" type="curve"/>
      <point x="104" y="-2"/>
      <point x="122" y="7"/>
      <point x="126" y="31" type="curve"/>
      <point x="129" y="34"/>
      <point x="134" y="36"/>
      <point x="137" y="40" type="curve"/>
      <point x="139" y="45"/>
      <point x="140" y="51"/>
      <point x="145" y="52" type="curve"/>
      <point x="143" y="73"/>
      <point x="158" y="77"/>
      <point x="158" y="98" type="curve"/>
    </contour>
  </outline>
</glyph>
<glyph name="equal" format="2">
  <advance width="500"/>
  <unicode hex="003D"/>
  <outline>
    <contour>
      <point x="81" y="450" type="line"/>
      <point x="55" y="450" type="line" smooth="yes"/>
      <point x="39" y="450"/>
      <point x="30" y="443"/>
      <point x="30" y="429" type="curve"/>
      <point x="33" y="406" type="line"/>
      <point x="33" y="392"/>
      <point x="42" y="384"/>
      <point x="58" y="384" type="curve" smooth="yes"/>
      <point x="130" y="384" type="line"/>
      <point x="136" y="383" type="line" smooth="yes"/>
      <point x="147" y="381"/>
      <point x="155" y="382"/>
      <point x="166" y="383" type="curve" smooth="yes"/>
      <point x="178" y="384" type="line"/>
      <point x="176" y="382"/>
      <point x="187" y="381"/>
      <point x="199" y="381" type="curve" smooth="yes"/>
      <point x="211" y="382" type="line"/>
      <point x="210" y="381"/>
      <point x="223" y="381"/>
      <point x="237" y="383" type="curve"/>
      <point x="236" y="382"/>
      <point x="241" y="381"/>
      <point x="247" y="381" type="curve" smooth="yes"/>
      <point x="253" y="381" type="line" smooth="yes"/>
      <point x="257" y="381"/>
      <point x="262" y="384"/>
      <point x="273" y="384" type="curve" smooth="yes"/>
      <point x="274" y="384" type="line"/>
      <point x="319" y="384" type="line"/>
      <point x="343" y="381" type="line" smooth="yes"/>
      <point x="351" y="380"/>
      <point x="358" y="384"/>
      <point x="369" y="384" type="curve" smooth="yes"/>
      <point x="371" y="384" type="line"/>
      <point x="383" y="383" type="line" smooth="yes"/>
      <point x="392" y="382"/>
      <point x="399" y="382"/>
      <point x="410" y="383" type="curve" smooth="yes"/>
      <point x="419" y="384" type="line"/>
      <point x="442" y="384" type="line" smooth="yes"/>
      <point x="458" y="384"/>
      <point x="467" y="393"/>
      <point x="467" y="409" type="curve" smooth="yes"/>
      <point x="467" y="428" type="line"/>
      <point x="468" y="428"/>
      <point x="468" y="431"/>
      <point x="468" y="440" type="curve" smooth="yes"/>
      <point x="468" y="447"/>
      <point x="460" y="452"/>
      <point x="459" y="451" type="curve"/>
      <point x="444" y="451" type="line"/>
      <point x="419" y="450" type="line"/>
      <point x="419" y="451" type="line"/>
      <point x="395" y="451" type="line"/>
      <point x="371" y="450" type="line"/>
      <point x="323" y="450" type="line"/>
      <point x="299" y="451" type="line"/>
      <point x="275" y="450" type="line"/>
      <point x="226" y="450" type="line"/>
      <point x="202" y="451" type="line"/>
      <point x="178" y="450" type="line"/>
      <point x="157" y="451" type="line" smooth="yes"/>
      <point x="146" y="452"/>
      <point x="139" y="451"/>
      <point x="129" y="450" type="curve"/>
      <point x="105" y="451" type="line"/>
    </contour>
    <contour>
      <point x="57" y="230" type="curve" smooth="yes"/>
      <point x="129" y="230" type="line"/>
      <point x="139" y="229" type="line" smooth="yes"/>
      <point x="150" y="228"/>
      <point x="154" y="227"/>
      <point x="155" y="227" type="curve" smooth="yes"/>
      <point x="178" y="230" type="line"/>
      <point x="189" y="229" type="line" smooth="yes"/>
      <point x="196" y="228"/>
      <point x="203" y="228"/>
      <point x="214" y="229" type="curve" smooth="yes"/>
      <point x="226" y="230" type="line"/>
      <point x="274" y="230" type="line"/>
      <point x="283" y="229" type="line" smooth="yes"/>
      <point x="294" y="228"/>
      <point x="302" y="228"/>
      <point x="313" y="229" type="curve" smooth="yes"/>
      <point x="321" y="230" type="line"/>
      <point x="343" y="227" type="line" smooth="yes"/>
      <point x="353" y="226"/>
      <point x="361" y="227"/>
      <point x="371" y="230" type="curve"/>
      <point x="383" y="229" type="line" smooth="yes"/>
      <point x="392" y="228"/>
      <point x="399" y="228"/>
      <point x="410" y="229" type="curve" smooth="yes"/>
      <point x="419" y="230" type="line"/>
      <point x="418" y="229" type="line" smooth="yes"/>
      <point x="417" y="228"/>
      <point x="430" y="227"/>
      <point x="444" y="227" type="curve"/>
      <point x="468" y="230" type="line"/>
      <point x="468" y="253" type="line"/>
      <point x="469" y="254" type="line"/>
      <point x="469" y="254"/>
      <point x="470" y="258"/>
      <point x="468" y="269" type="curve" smooth="yes"/>
      <point x="467" y="274" type="line"/>
      <point x="468" y="288"/>
      <point x="460" y="296"/>
      <point x="445" y="297" type="curve"/>
      <point x="419" y="296" type="line"/>
      <point x="395" y="297" type="line"/>
      <point x="371" y="296" type="line"/>
      <point x="347" y="297" type="line"/>
      <point x="322" y="296" type="line"/>
      <point x="319" y="296" type="line"/>
      <point x="299" y="297" type="line" smooth="yes"/>
      <point x="290" y="298"/>
      <point x="284" y="297"/>
      <point x="274" y="296" type="curve"/>
      <point x="250" y="297" type="line"/>
      <point x="251" y="298"/>
      <point x="247" y="298"/>
      <point x="236" y="297" type="curve" smooth="yes"/>
      <point x="226" y="296" type="line"/>
      <point x="126" y="296" type="line"/>
      <point x="110" y="297" type="line" smooth="yes"/>
      <point x="99" y="298"/>
      <point x="91" y="297"/>
      <point x="81" y="296" type="curve"/>
      <point x="58" y="297" type="line"/>
      <point x="57" y="297" type="line" smooth="yes"/>
      <point x="41" y="297"/>
      <point x="33" y="288"/>
      <point x="33" y="271" type="curve" smooth="yes"/>
      <point x="33" y="252" type="line"/>
      <point x="31" y="238"/>
      <point x="40" y="230"/>
    </contour>
  </outline>
</glyph>
<glyph name="greater" format="2">
  <advance width="500"/>
  <unicode hex="003E"/>
  <outline>
    <contour>
      <point x="33" y="492" type="curve"/>
      <point x="46" y="485" type="line"/>
      <point x="64" y="478" type="line"/>
      <point x="64" y="477" type="line" smooth="yes"/>
      <point x="64" y="475"/>
      <point x="71" y="475"/>
      <point x="84" y="468" type="curve" smooth="yes"/>
      <point x="88" y="466" type="line"/>
      <point x="88" y="464"/>
      <point x="91" y="462"/>
      <point x="97" y="459" type="curve"/>
      <point x="108" y="456" type="line"/>
      <point x="108" y="455" type="line" smooth="yes"/>
      <point x="108" y="453"/>
      <point x="115" y="453"/>
      <point x="130" y="448" type="curve" smooth="yes"/>
      <point x="136" y="446" type="line"/>
      <point x="149" y="439" type="line"/>
      <point x="167" y="431" type="line"/>
      <point x="186" y="421" type="line"/>
      <point x="186" y="419"/>
      <point x="190" y="417"/>
      <point x="198" y="416" type="curve" smooth="yes"/>
      <point x="197" y="416"/>
      <point x="213" y="409"/>
      <point x="222" y="405" type="curve"/>
      <point x="221" y="405"/>
      <point x="226" y="401"/>
      <point x="231" y="398" type="curve"/>
      <point x="229" y="396"/>
      <point x="234" y="395"/>
      <point x="241" y="395" type="curve"/>
      <point x="241" y="394" type="line" smooth="yes"/>
      <point x="241" y="392"/>
      <point x="248" y="390"/>
      <point x="262" y="386" type="curve" smooth="yes"/>
      <point x="269" y="384" type="line"/>
      <point x="268" y="384"/>
      <point x="273" y="382"/>
      <point x="275" y="381" type="curve" smooth="yes"/>
      <point x="287" y="376" type="line"/>
      <point x="287" y="375" type="line" smooth="yes"/>
      <point x="287" y="373"/>
      <point x="294" y="370"/>
      <point x="307" y="366" type="curve" smooth="yes"/>
      <point x="314" y="364" type="line"/>
      <point x="320" y="360" type="line"/>
      <point x="330" y="355" type="line"/>
      <point x="345" y="350" type="line"/>
      <point x="345" y="348"/>
      <point x="347" y="347"/>
      <point x="352" y="347" type="curve"/>
      <point x="375" y="331" type="line"/>
      <point x="377" y="329"/>
      <point x="381" y="324"/>
      <point x="368" y="319" type="curve" smooth="yes"/>
      <point x="352" y="313" type="line"/>
      <point x="345" y="310" type="line"/>
      <point x="343" y="310"/>
      <point x="338" y="308"/>
      <point x="327" y="303" type="curve" smooth="yes"/>
      <point x="323" y="301" type="line"/>
      <point x="324" y="302"/>
      <point x="321" y="300"/>
      <point x="311" y="295" type="curve" smooth="yes"/>
      <point x="301" y="290" type="line" smooth="yes"/>
      <point x="291" y="285"/>
      <point x="285" y="284"/>
      <point x="278" y="280" type="curve"/>
      <point x="278" y="281"/>
      <point x="275" y="279"/>
      <point x="265" y="274" type="curve" smooth="yes"/>
      <point x="256" y="269" type="line"/>
      <point x="257" y="270"/>
      <point x="254" y="268"/>
      <point x="244" y="264" type="curve" smooth="yes"/>
      <point x="234" y="260" type="line"/>
      <point x="212" y="249" type="line"/>
      <point x="211" y="249" type="line" smooth="yes"/>
      <point x="209" y="249"/>
      <point x="205" y="247"/>
      <point x="194" y="242" type="curve" smooth="yes"/>
      <point x="190" y="240" type="line"/>
      <point x="180" y="236" type="line"/>
      <point x="167" y="229" type="line"/>
      <point x="167" y="230"/>
      <point x="164" y="228"/>
      <point x="154" y="224" type="curve" smooth="yes"/>
      <point x="145" y="220" type="line"/>
      <point x="122" y="209" type="line"/>
      <point x="100" y="200" type="line"/>
      <point x="78" y="188" type="line"/>
      <point x="56" y="179" type="line" smooth="yes"/>
      <point x="46" y="175"/>
      <point x="41" y="173"/>
      <point x="38" y="171" type="curve" smooth="yes"/>
      <point x="34" y="169"/>
      <point x="33" y="163"/>
      <point x="31" y="149" type="curve" smooth="yes"/>
      <point x="30" y="141" type="line"/>
      <point x="28" y="139"/>
      <point x="28" y="137"/>
      <point x="31" y="135" type="curve"/>
      <point x="32" y="108" type="line"/>
      <point x="31" y="101" type="line" smooth="yes"/>
      <point x="30" y="97"/>
      <point x="32" y="95"/>
      <point x="33" y="96" type="curve"/>
      <point x="56" y="106" type="line"/>
      <point x="76" y="116" type="line"/>
      <point x="75" y="115"/>
      <point x="88" y="120"/>
      <point x="95" y="123" type="curve" smooth="yes"/>
      <point x="109" y="130" type="line"/>
      <point x="120" y="137" type="line"/>
      <point x="163" y="157" type="line"/>
      <point x="162" y="156"/>
      <point x="175" y="160"/>
      <point x="182" y="164" type="curve" smooth="yes"/>
      <point x="207" y="177" type="line"/>
      <point x="206" y="176"/>
      <point x="219" y="181"/>
      <point x="225" y="184" type="curve" smooth="yes"/>
      <point x="239" y="191" type="line"/>
      <point x="250" y="198" type="line"/>
      <point x="273" y="208" type="line"/>
      <point x="272" y="207"/>
      <point x="288" y="215"/>
      <point x="293" y="218" type="curve"/>
      <point x="293" y="216"/>
      <point x="301" y="219"/>
      <point x="312" y="225" type="curve"/>
      <point x="319" y="227" type="line" smooth="yes"/>
      <point x="323" y="228"/>
      <point x="328" y="231"/>
      <point x="337" y="238" type="curve"/>
      <point x="356" y="245" type="line"/>
      <point x="380" y="258" type="line"/>
      <point x="380" y="256"/>
      <point x="388" y="260"/>
      <point x="399" y="266" type="curve" smooth="yes"/>
      <point x="424" y="279" type="line"/>
      <point x="423" y="278"/>
      <point x="440" y="286"/>
      <point x="446" y="289" type="curve" smooth="yes"/>
      <point x="453" y="293"/>
      <point x="461" y="293"/>
      <point x="465" y="300" type="curve" smooth="yes"/>
      <point x="469" y="307"/>
      <point x="467" y="313"/>
      <point x="467" y="320" type="curve"/>
      <point x="467" y="341" type="line" smooth="yes"/>
      <point x="467" y="355"/>
      <point x="460" y="364"/>
      <point x="448" y="370" type="curve" smooth="yes"/>
      <point x="446" y="371" type="line"/>
      <point x="447" y="372"/>
      <point x="443" y="373"/>
      <point x="433" y="377" type="curve" smooth="yes"/>
      <point x="424" y="381" type="line"/>
      <point x="403" y="392" type="line" smooth="yes"/>
      <point x="396" y="396"/>
      <point x="390" y="399"/>
      <point x="380" y="402" type="curve"/>
      <point x="337" y="422" type="line"/>
      <point x="338" y="423"/>
      <point x="335" y="425"/>
      <point x="324" y="429" type="curve" smooth="yes"/>
      <point x="316" y="432" type="line" smooth="yes"/>
      <point x="308" y="435"/>
      <point x="302" y="439"/>
      <point x="293" y="442" type="curve"/>
      <point x="272" y="453" type="line"/>
      <point x="273" y="454"/>
      <point x="269" y="455"/>
      <point x="259" y="459" type="curve" smooth="yes"/>
      <point x="250" y="463" type="line"/>
      <point x="251" y="463"/>
      <point x="248" y="464"/>
      <point x="238" y="469" type="curve" smooth="yes"/>
      <point x="228" y="474" type="line"/>
      <point x="229" y="474"/>
      <point x="226" y="476"/>
      <point x="215" y="480" type="curve" smooth="yes"/>
      <point x="207" y="483" type="line"/>
      <point x="186" y="494" type="line"/>
      <point x="163" y="503" type="line"/>
      <point x="142" y="514" type="line"/>
      <point x="143" y="515"/>
      <point x="139" y="517"/>
      <point x="129" y="520" type="curve" smooth="yes"/>
      <point x="120" y="523" type="line"/>
      <point x="115" y="527" type="line" smooth="yes"/>
      <point x="112" y="530"/>
      <point x="107" y="531"/>
      <point x="98" y="535" type="curve"/>
      <point x="98" y="536"/>
      <point x="94" y="537"/>
      <point x="84" y="541" type="curve" smooth="yes"/>
      <point x="76" y="544" type="line"/>
      <point x="77" y="544"/>
      <point x="74" y="546"/>
      <point x="64" y="551" type="curve" smooth="yes"/>
      <point x="55" y="555" type="line"/>
      <point x="56" y="556"/>
      <point x="53" y="557"/>
      <point x="45" y="560" type="curve" smooth="yes"/>
      <point x="38" y="562"/>
      <point x="33" y="552"/>
      <point x="33" y="534" type="curve" smooth="yes"/>
      <point x="33" y="516" type="line"/>
      <point x="31" y="501"/>
      <point x="31" y="492"/>
    </contour>
  </outline>
</glyph>
<glyph name="question" format="2">
  <advance width="449"/>
  <unicode hex="003F"/>
  <outline>
    <contour>
      <point x="331" y="457" type="line"/>
      <point x="343" y="460"/>
      <point x="350" y="469"/>
      <point x="360" y="474" type="curve"/>
      <point x="366" y="487"/>
      <point x="379" y="493"/>
      <point x="386" y="507" type="curve" smooth="yes"/>
      <point x="388" y="512"/>
      <point x="388" y="519"/>
      <point x="390" y="527" type="curve" smooth="yes"/>
      <point x="392" y="533"/>
      <point x="396" y="540"/>
      <point x="398" y="545" type="curve"/>
      <point x="398" y="552"/>
      <point x="395" y="559"/>
      <point x="395" y="565" type="curve" smooth="yes"/>
      <point x="395" y="578"/>
      <point x="396" y="591"/>
      <point x="394" y="600" type="curve" smooth="yes"/>
      <point x="389" y="621"/>
      <point x="386" y="642"/>
      <point x="381" y="660" type="curve"/>
      <point x="373" y="672"/>
      <point x="367" y="684"/>
      <point x="360" y="695" type="curve"/>
      <point x="354" y="700"/>
      <point x="348" y="706"/>
      <point x="343" y="709" type="curve" smooth="yes"/>
      <point x="339" y="712"/>
      <point x="339" y="719"/>
      <point x="334" y="719" type="curve"/>
      <point x="332" y="724"/>
      <point x="323" y="724"/>
      <point x="320" y="726" type="curve"/>
      <point x="320" y="726"/>
      <point x="319" y="728"/>
      <point x="319" y="729" type="curve"/>
      <point x="318" y="729"/>
      <point x="316" y="728"/>
      <point x="315" y="729" type="curve"/>
      <point x="315" y="729"/>
      <point x="314" y="731"/>
      <point x="314" y="732" type="curve"/>
      <point x="294" y="745" type="line"/>
      <point x="278" y="750"/>
      <point x="260" y="758"/>
      <point x="241" y="759" type="curve" smooth="yes"/>
      <point x="222" y="761"/>
      <point x="202" y="755"/>
      <point x="181" y="756" type="curve"/>
      <point x="174" y="754"/>
      <point x="171" y="748"/>
      <point x="160" y="749" type="curve"/>
      <point x="155" y="743"/>
      <point x="147" y="740"/>
      <point x="138" y="738" type="curve"/>
      <point x="123" y="723"/>
      <point x="108" y="708"/>
      <point x="90" y="697" type="curve"/>
      <point x="86" y="689"/>
      <point x="80" y="682"/>
      <point x="76" y="672" type="curve"/>
      <point x="76" y="668"/>
      <point x="73" y="663"/>
      <point x="71" y="659" type="curve" smooth="yes"/>
      <point x="69" y="654"/>
      <point x="69" y="649"/>
      <point x="65" y="646" type="curve"/>
      <point x="65" y="631"/>
      <point x="60" y="621"/>
      <point x="58" y="611" type="curve"/>
      <point x="58" y="590" type="line"/>
      <point x="56" y="582"/>
      <point x="50" y="577"/>
      <point x="50" y="567" type="curve"/>
      <point x="54" y="559"/>
      <point x="61" y="552"/>
      <point x="70" y="548" type="curve"/>
      <point x="83" y="548"/>
      <point x="89" y="552"/>
      <point x="100" y="553" type="curve"/>
      <point x="114" y="551"/>
      <point x="139" y="549"/>
      <point x="143" y="562" type="curve"/>
      <point x="151" y="567"/>
      <point x="143" y="577"/>
      <point x="145" y="587" type="curve"/>
      <point x="147" y="591"/>
      <point x="146" y="600"/>
      <point x="148" y="605" type="curve" smooth="yes"/>
      <point x="157" y="624"/>
      <point x="166" y="643"/>
      <point x="183" y="655" type="curve"/>
      <point x="190" y="657"/>
      <point x="196" y="659"/>
      <point x="201" y="663" type="curve"/>
      <point x="214" y="659"/>
      <point x="225" y="661"/>
      <point x="233" y="666" type="curve"/>
      <point x="241" y="663"/>
      <point x="248" y="660"/>
      <point x="259" y="660" type="curve"/>
      <point x="265" y="655"/>
      <point x="270" y="648"/>
      <point x="280" y="646" type="curve"/>
      <point x="287" y="630"/>
      <point x="304" y="624"/>
      <point x="308" y="605" type="curve"/>
      <point x="308" y="603"/>
      <point x="310" y="603"/>
      <point x="311" y="602" type="curve"/>
      <point x="313" y="580"/>
      <point x="303" y="567"/>
      <point x="299" y="552" type="curve"/>
      <point x="287" y="542"/>
      <point x="278" y="529"/>
      <point x="264" y="522" type="curve" smooth="yes"/>
      <point x="255" y="517"/>
      <point x="244" y="515"/>
      <point x="233" y="512" type="curve"/>
      <point x="220" y="511"/>
      <point x="214" y="504"/>
      <point x="204" y="500" type="curve"/>
      <point x="194" y="500"/>
      <point x="189" y="497"/>
      <point x="180" y="497" type="curve"/>
      <point x="170" y="489"/>
      <point x="155" y="487"/>
      <point x="142" y="481" type="curve"/>
      <point x="134" y="475"/>
      <point x="122" y="472"/>
      <point x="117" y="462" type="curve"/>
      <point x="111" y="459"/>
      <point x="110" y="453"/>
      <point x="105" y="449" type="curve"/>
      <point x="86" y="441"/>
      <point x="87" y="413"/>
      <point x="74" y="399" type="curve"/>
      <point x="76" y="385"/>
      <point x="72" y="377"/>
      <point x="70" y="368" type="curve"/>
      <point x="71" y="356"/>
      <point x="68" y="347"/>
      <point x="68" y="338" type="curve" smooth="yes"/>
      <point x="70" y="312"/>
      <point x="87" y="295"/>
      <point x="90" y="269" type="curve"/>
      <point x="99" y="263"/>
      <point x="101" y="249"/>
      <point x="111" y="245" type="curve"/>
      <point x="118" y="234"/>
      <point x="127" y="228"/>
      <point x="135" y="219" type="curve"/>
      <point x="156" y="209"/>
      <point x="182" y="204"/>
      <point x="207" y="196" type="curve"/>
      <point x="228" y="195"/>
      <point x="246" y="196"/>
      <point x="265" y="197" type="curve"/>
      <point x="273" y="199"/>
      <point x="279" y="204"/>
      <point x="290" y="202" type="curve"/>
      <point x="296" y="208"/>
      <point x="304" y="209"/>
      <point x="312" y="211" type="curve"/>
      <point x="319" y="220"/>
      <point x="330" y="227"/>
      <point x="339" y="234" type="curve"/>
      <point x="342" y="242"/>
      <point x="349" y="246"/>
      <point x="352" y="252" type="curve" smooth="yes"/>
      <point x="355" y="261"/>
      <point x="363" y="263"/>
      <point x="367" y="269" type="curve" smooth="yes"/>
      <point x="370" y="273"/>
      <point x="370" y="279"/>
      <point x="372" y="283" type="curve" smooth="yes"/>
      <point x="378" y="295" type="line"/>
      <point x="377" y="307"/>
      <point x="383" y="314"/>
      <point x="384" y="323" type="curve"/>
      <point x="383" y="334"/>
      <point x="386" y="349"/>
      <point x="381" y="355" type="curve"/>
      <point x="364" y="364"/>
      <point x="341" y="357"/>
      <point x="323" y="356" type="curve" smooth="yes"/>
      <point x="313" y="356"/>
      <point x="303" y="358"/>
      <point x="296" y="355" type="curve"/>
      <point x="287" y="348"/>
      <point x="288" y="333"/>
      <point x="284" y="323" type="curve"/>
      <point x="276" y="316"/>
      <point x="270" y="305"/>
      <point x="262" y="300" type="curve" smooth="yes"/>
      <point x="251" y="295"/>
      <point x="240" y="287"/>
      <point x="225" y="288" type="curve" smooth="yes"/>
      <point x="215" y="288"/>
      <point x="206" y="295"/>
      <point x="195" y="293" type="curve"/>
      <point x="175" y="305"/>
      <point x="155" y="326"/>
      <point x="160" y="359" type="curve"/>
      <point x="163" y="368"/>
      <point x="167" y="374"/>
      <point x="172" y="382" type="curve"/>
      <point x="184" y="391"/>
      <point x="197" y="399"/>
      <point x="213" y="405" type="curve" smooth="yes"/>
      <point x="227" y="409"/>
      <point x="243" y="410"/>
      <point x="253" y="417" type="curve"/>
      <point x="266" y="422"/>
      <point x="279" y="427"/>
      <point x="294" y="430" type="curve"/>
    </contour>
    <contour>
      <point x="284" y="88"/>
      <point x="275" y="105"/>
      <point x="267" y="123" type="curve"/>
      <point x="257" y="128"/>
      <point x="246" y="140"/>
      <point x="232" y="141" type="curve" smooth="yes"/>
      <point x="222" y="142"/>
      <point x="215" y="136"/>
      <point x="204" y="136" type="curve"/>
      <point x="197" y="130"/>
      <point x="191" y="124"/>
      <point x="183" y="119" type="curve"/>
      <point x="181" y="111"/>
      <point x="176" y="107"/>
      <point x="175" y="98" type="curve"/>
      <point x="171" y="92"/>
      <point x="165" y="87"/>
      <point x="165" y="77" type="curve" smooth="yes"/>
      <point x="166" y="61"/>
      <point x="175" y="52"/>
      <point x="181" y="40" type="curve"/>
      <point x="192" y="35"/>
      <point x="204" y="25"/>
      <point x="220" y="24" type="curve" smooth="yes"/>
      <point x="234" y="22"/>
      <point x="248" y="27"/>
      <point x="262" y="29" type="curve"/>
      <point x="271" y="39"/>
      <point x="282" y="51"/>
      <point x="285" y="64" type="curve"/>
    </contour>
  </outline>
</glyph>
<glyph name="at" format="2">
  <advance width="794"/>
  <unicode hex="0040"/>
  <outline>
    <contour>
      <point x="83" y="542" type="line"/>
      <point x="82" y="540"/>
      <point x="83" y="537"/>
      <point x="82" y="535" type="curve" smooth="yes"/>
      <point x="81" y="533"/>
      <point x="78" y="532"/>
      <point x="77" y="530" type="curve" smooth="yes"/>
      <point x="74" y="525" type="line"/>
      <point x="61" y="509"/>
      <point x="55" y="489"/>
      <point x="47" y="468" type="curve"/>
      <point x="44" y="454"/>
      <point x="42" y="440"/>
      <point x="37" y="429" type="curve"/>
      <point x="33" y="402"/>
      <point x="32" y="374"/>
      <point x="32" y="346" type="curve" smooth="yes"/>
      <point x="31" y="336"/>
      <point x="30" y="327"/>
      <point x="30" y="318" type="curve" smooth="yes"/>
      <point x="31" y="301"/>
      <point x="42" y="288"/>
      <point x="39" y="271" type="curve"/>
      <point x="45" y="257"/>
      <point x="50" y="242"/>
      <point x="53" y="224" type="curve"/>
      <point x="76" y="184"/>
      <point x="100" y="144"/>
      <point x="132" y="114" type="curve"/>
      <point x="141" y="102"/>
      <point x="156" y="96"/>
      <point x="164" y="82" type="curve"/>
      <point x="178" y="76"/>
      <point x="189" y="66"/>
      <point x="202" y="59" type="curve" smooth="yes"/>
      <point x="217" y="50"/>
      <point x="233" y="39"/>
      <point x="250" y="34" type="curve" smooth="yes"/>
      <point x="252" y="33"/>
      <point x="254" y="31"/>
      <point x="257" y="30" type="curve" smooth="yes"/>
      <point x="263" y="29"/>
      <point x="270" y="28"/>
      <point x="276" y="26" type="curve"/>
      <point x="277" y="23" type="line"/>
      <point x="279" y="21"/>
      <point x="293" y="18"/>
      <point x="294" y="18" type="curve"/>
      <point x="303" y="14"/>
      <point x="324" y="14"/>
      <point x="332" y="10" type="curve" smooth="yes"/>
      <point x="351" y="2"/>
      <point x="370" y="2"/>
      <point x="381" y="-1" type="curve"/>
      <point x="399" y="1"/>
      <point x="428" y="-5"/>
      <point x="454" y="0" type="curve" smooth="yes"/>
      <point x="487" y="7"/>
      <point x="512" y="7"/>
      <point x="540" y="16" type="curve" smooth="yes"/>
      <point x="555" y="20"/>
      <point x="639" y="42"/>
      <point x="650" y="49" type="curve"/>
      <point x="663" y="53"/>
      <point x="684" y="59"/>
      <point x="693" y="67" type="curve"/>
      <point x="708" y="71"/>
      <point x="715" y="78"/>
      <point x="688" y="133" type="curve"/>
      <point x="674" y="131"/>
      <point x="647" y="127"/>
      <point x="639" y="117" type="curve"/>
      <point x="630" y="115"/>
      <point x="581" y="96"/>
      <point x="532" y="90" type="curve" smooth="yes"/>
      <point x="481" y="85"/>
      <point x="466" y="81"/>
      <point x="443" y="80" type="curve" smooth="yes"/>
      <point x="422" y="79"/>
      <point x="380" y="85"/>
      <point x="363" y="85" type="curve" smooth="yes"/>
      <point x="357" y="85"/>
      <point x="324" y="102"/>
      <point x="317" y="102" type="curve"/>
      <point x="295" y="111"/>
      <point x="278" y="122"/>
      <point x="254" y="129" type="curve"/>
      <point x="245" y="135"/>
      <point x="238" y="142"/>
      <point x="227" y="145" type="curve"/>
      <point x="222" y="155"/>
      <point x="214" y="160"/>
      <point x="206" y="168" type="curve"/>
      <point x="194" y="177"/>
      <point x="181" y="190"/>
      <point x="169" y="201" type="curve"/>
      <point x="167" y="209"/>
      <point x="162" y="212"/>
      <point x="157" y="218" type="curve"/>
      <point x="154" y="233"/>
      <point x="145" y="244"/>
      <point x="140" y="259" type="curve" smooth="yes"/>
      <point x="135" y="273"/>
      <point x="130" y="288"/>
      <point x="123" y="301" type="curve"/>
      <point x="120" y="336" type="line" smooth="yes"/>
      <point x="120" y="346"/>
      <point x="118" y="357"/>
      <point x="119" y="366" type="curve" smooth="yes"/>
      <point x="119" y="376"/>
      <point x="122" y="385"/>
      <point x="123" y="395" type="curve"/>
      <point x="126" y="404"/>
      <point x="128" y="414"/>
      <point x="129" y="423" type="curve"/>
      <point x="135" y="431"/>
      <point x="136" y="443"/>
      <point x="140" y="453" type="curve"/>
      <point x="148" y="462"/>
      <point x="147" y="473"/>
      <point x="152" y="484" type="curve" smooth="yes"/>
      <point x="158" y="495"/>
      <point x="171" y="503"/>
      <point x="174" y="516" type="curve"/>
      <point x="187" y="527"/>
      <point x="198" y="540"/>
      <point x="207" y="554" type="curve"/>
      <point x="212" y="554"/>
      <point x="216" y="559"/>
      <point x="219" y="562" type="curve" smooth="yes"/>
      <point x="223" y="565"/>
      <point x="234" y="568"/>
      <point x="239" y="574" type="curve"/>
      <point x="251" y="578"/>
      <point x="260" y="590"/>
      <point x="273" y="595" type="curve" smooth="yes"/>
      <point x="284" y="600"/>
      <point x="299" y="602"/>
      <point x="314" y="607" type="curve" smooth="yes"/>
      <point x="334" y="614" type="line"/>
      <point x="341" y="615"/>
      <point x="348" y="618"/>
      <point x="355" y="618" type="curve"/>
      <point x="365" y="620"/>
      <point x="378" y="619"/>
      <point x="390" y="620" type="curve" smooth="yes"/>
      <point x="402" y="621"/>
      <point x="414" y="622"/>
      <point x="427" y="621" type="curve" smooth="yes"/>
      <point x="437" y="621"/>
      <point x="448" y="617"/>
      <point x="459" y="617" type="curve"/>
      <point x="469" y="614"/>
      <point x="479" y="611"/>
      <point x="490" y="609" type="curve"/>
      <point x="508" y="602"/>
      <point x="522" y="592"/>
      <point x="541" y="586" type="curve"/>
      <point x="547" y="579"/>
      <point x="558" y="576"/>
      <point x="564" y="568" type="curve"/>
      <point x="592" y="554"/>
      <point x="608" y="529"/>
      <point x="630" y="510" type="curve"/>
      <point x="635" y="498"/>
      <point x="642" y="488"/>
      <point x="650" y="479" type="curve"/>
      <point x="653" y="468"/>
      <point x="661" y="458"/>
      <point x="667" y="448" type="curve"/>
      <point x="666" y="447"/>
      <point x="667" y="445"/>
      <point x="668" y="444" type="curve"/>
      <point x="669" y="423"/>
      <point x="678" y="409"/>
      <point x="680" y="389" type="curve" smooth="yes"/>
      <point x="680" y="386" type="line"/>
      <point x="682" y="386"/>
      <point x="682" y="386"/>
      <point x="682" y="385" type="curve" smooth="yes"/>
      <point x="680" y="378"/>
      <point x="682" y="370"/>
      <point x="682" y="363" type="curve" smooth="yes"/>
      <point x="681" y="355"/>
      <point x="680" y="343"/>
      <point x="677" y="327" type="curve" smooth="yes"/>
      <point x="670" y="294"/>
      <point x="664" y="282"/>
      <point x="657" y="271" type="curve" smooth="yes"/>
      <point x="629" y="230" type="line" smooth="yes"/>
      <point x="625" y="224"/>
      <point x="592" y="214"/>
      <point x="582" y="213" type="curve" smooth="yes"/>
      <point x="576" y="212"/>
      <point x="561" y="215"/>
      <point x="561" y="229" type="curve"/>
      <point x="558" y="242" type="line" smooth="yes"/>
      <point x="554" y="259"/>
      <point x="559" y="242"/>
      <point x="556" y="261" type="curve" smooth="yes"/>
      <point x="554" y="277"/>
      <point x="556" y="292"/>
      <point x="556" y="308" type="curve" smooth="yes"/>
      <point x="556" y="323"/>
      <point x="550" y="337"/>
      <point x="554" y="352" type="curve"/>
      <point x="551" y="367" type="line"/>
      <point x="553" y="389"/>
      <point x="556" y="414"/>
      <point x="551" y="434" type="curve"/>
      <point x="556" y="460"/>
      <point x="557" y="498"/>
      <point x="546" y="520" type="curve"/>
      <point x="528" y="523"/>
      <point x="502" y="524"/>
      <point x="487" y="515" type="curve"/>
      <point x="484" y="504"/>
      <point x="491" y="480"/>
      <point x="481" y="475" type="curve"/>
      <point x="469" y="478"/>
      <point x="464" y="490"/>
      <point x="456" y="500" type="curve"/>
      <point x="446" y="506"/>
      <point x="432" y="515"/>
      <point x="420" y="519" type="curve" smooth="yes"/>
      <point x="408" y="523" type="line"/>
      <point x="405" y="523"/>
      <point x="403" y="524"/>
      <point x="401" y="525" type="curve"/>
      <point x="386" y="528"/>
      <point x="371" y="524"/>
      <point x="358" y="525" type="curve" smooth="yes"/>
      <point x="352" y="525"/>
      <point x="348" y="526"/>
      <point x="344" y="526" type="curve" smooth="yes"/>
      <point x="338" y="526"/>
      <point x="327" y="523"/>
      <point x="323" y="522" type="curve" smooth="yes"/>
      <point x="313" y="520" type="line"/>
      <point x="303" y="516"/>
      <point x="295" y="510"/>
      <point x="286" y="509" type="curve"/>
      <point x="259" y="488" type="line"/>
      <point x="245" y="472" type="line" smooth="yes"/>
      <point x="240" y="466"/>
      <point x="237" y="459"/>
      <point x="232" y="454" type="curve"/>
      <point x="229" y="445"/>
      <point x="227" y="439"/>
      <point x="222" y="434" type="curve"/>
      <point x="222" y="425"/>
      <point x="217" y="420"/>
      <point x="215" y="413" type="curve" smooth="yes"/>
      <point x="212" y="400"/>
      <point x="215" y="384"/>
      <point x="208" y="376" type="curve"/>
      <point x="212" y="365"/>
      <point x="207" y="352"/>
      <point x="206" y="342" type="curve"/>
      <point x="210" y="324"/>
      <point x="208" y="299"/>
      <point x="212" y="282" type="curve"/>
      <point x="217" y="274"/>
      <point x="222" y="266"/>
      <point x="222" y="253" type="curve"/>
      <point x="229" y="248"/>
      <point x="235" y="240"/>
      <point x="237" y="229" type="curve"/>
      <point x="243" y="226"/>
      <point x="246" y="220"/>
      <point x="250" y="213" type="curve"/>
      <point x="255" y="210"/>
      <point x="261" y="207"/>
      <point x="262" y="201" type="curve"/>
      <point x="270" y="198"/>
      <point x="275" y="194"/>
      <point x="279" y="189" type="curve"/>
      <point x="287" y="188"/>
      <point x="292" y="184"/>
      <point x="296" y="180" type="curve"/>
      <point x="305" y="178"/>
      <point x="312" y="175"/>
      <point x="320" y="173" type="curve"/>
      <point x="339" y="173"/>
      <point x="358" y="168"/>
      <point x="378" y="169" type="curve" smooth="yes"/>
      <point x="380" y="169"/>
      <point x="385" y="171"/>
      <point x="390" y="172" type="curve" smooth="yes"/>
      <point x="405" y="173"/>
      <point x="417" y="175"/>
      <point x="432" y="180" type="curve"/>
      <point x="436" y="184"/>
      <point x="441" y="188"/>
      <point x="450" y="189" type="curve"/>
      <point x="454" y="196"/>
      <point x="462" y="200"/>
      <point x="467" y="205" type="curve" smooth="yes"/>
      <point x="473" y="210"/>
      <point x="482" y="208"/>
      <point x="486" y="221" type="curve" smooth="yes"/>
      <point x="487" y="224"/>
      <point x="487" y="202"/>
      <point x="497" y="194" type="curve"/>
      <point x="497" y="194"/>
      <point x="505" y="176"/>
      <point x="510" y="173" type="curve" smooth="yes"/>
      <point x="517" y="169"/>
      <point x="537" y="157"/>
      <point x="538" y="157" type="curve" smooth="yes"/>
      <point x="568" y="155"/>
      <point x="583" y="142"/>
      <point x="628" y="161" type="curve" smooth="yes"/>
      <point x="641" y="167"/>
      <point x="674" y="188"/>
      <point x="687" y="201" type="curve"/>
      <point x="701" y="203"/>
      <point x="719" y="231"/>
      <point x="727" y="244" type="curve" smooth="yes"/>
      <point x="744" y="274"/>
      <point x="745" y="295"/>
      <point x="753" y="311" type="curve" smooth="yes"/>
      <point x="759" y="324"/>
      <point x="755" y="330"/>
      <point x="763" y="366" type="curve" smooth="yes"/>
      <point x="763" y="367"/>
      <point x="765" y="391"/>
      <point x="764" y="391" type="curve"/>
      <point x="763" y="413"/>
      <point x="754" y="429"/>
      <point x="755" y="453" type="curve"/>
      <point x="749" y="463"/>
      <point x="747" y="477"/>
      <point x="740" y="487" type="curve"/>
      <point x="738" y="501"/>
      <point x="728" y="507"/>
      <point x="727" y="522" type="curve"/>
      <point x="715" y="536"/>
      <point x="706" y="554"/>
      <point x="694" y="566" type="curve"/>
      <point x="683" y="582"/>
      <point x="669" y="596"/>
      <point x="659" y="612" type="curve"/>
      <point x="647" y="617"/>
      <point x="636" y="624"/>
      <point x="628" y="632" type="curve"/>
      <point x="617" y="637"/>
      <point x="608" y="645"/>
      <point x="600" y="653" type="curve"/>
      <point x="572" y="661"/>
      <point x="559" y="684"/>
      <point x="523" y="684" type="curve"/>
      <point x="516" y="689"/>
      <point x="508" y="694"/>
      <point x="498" y="697" type="curve" smooth="yes"/>
      <point x="491" y="699"/>
      <point x="482" y="701"/>
      <point x="473" y="702" type="curve" smooth="yes"/>
      <point x="465" y="704"/>
      <point x="456" y="706"/>
      <point x="448" y="707" type="curve" smooth="yes"/>
      <point x="444" y="707"/>
      <point x="438" y="706"/>
      <point x="433" y="707" type="curve" smooth="yes"/>
      <point x="429" y="707"/>
      <point x="426" y="710"/>
      <point x="421" y="710" type="curve" smooth="yes"/>
      <point x="398" y="713"/>
      <point x="381" y="710"/>
      <point x="361" y="708" type="curve" smooth="yes"/>
      <point x="349" y="708"/>
      <point x="338" y="707"/>
      <point x="328" y="705" type="curve" smooth="yes"/>
      <point x="324" y="704"/>
      <point x="320" y="701"/>
      <point x="316" y="701" type="curve"/>
      <point x="310" y="699"/>
      <point x="305" y="700"/>
      <point x="299" y="699" type="curve" smooth="yes"/>
      <point x="294" y="698"/>
      <point x="291" y="695"/>
      <point x="286" y="694" type="curve" smooth="yes"/>
      <point x="280" y="692"/>
      <point x="276" y="692"/>
      <point x="271" y="690" type="curve" smooth="yes"/>
      <point x="257" y="682"/>
      <point x="239" y="679"/>
      <point x="227" y="669" type="curve"/>
      <point x="211" y="663"/>
      <point x="203" y="650"/>
      <point x="184" y="647" type="curve"/>
      <point x="168" y="633"/>
      <point x="153" y="619"/>
      <point x="134" y="609" type="curve"/>
      <point x="117" y="585" type="line" smooth="yes"/>
      <point x="111" y="578"/>
      <point x="102" y="573"/>
      <point x="97" y="565" type="curve" smooth="yes"/>
      <point x="94" y="560"/>
      <point x="92" y="551"/>
      <point x="88" y="546" type="curve"/>
    </contour>
    <contour>
      <point x="487" y="392"/>
      <point x="490" y="383"/>
      <point x="490" y="369" type="curve"/>
      <point x="492" y="370"/>
      <point x="492" y="369"/>
      <point x="492" y="368" type="curve" smooth="yes"/>
      <point x="493" y="326"/>
      <point x="491" y="285"/>
      <point x="466" y="270" type="curve"/>
      <point x="463" y="266"/>
      <point x="461" y="260"/>
      <point x="456" y="256" type="curve" smooth="yes"/>
      <point x="451" y="253"/>
      <point x="446" y="250"/>
      <point x="440" y="245" type="curve"/>
      <point x="436" y="244"/>
      <point x="432" y="243"/>
      <point x="429" y="241" type="curve"/>
      <point x="424" y="240"/>
      <point x="418" y="242"/>
      <point x="416" y="239" type="curve"/>
      <point x="409" y="240"/>
      <point x="409" y="235"/>
      <point x="402" y="235" type="curve"/>
      <point x="397" y="233"/>
      <point x="393" y="231"/>
      <point x="386" y="231" type="curve" smooth="yes"/>
      <point x="378" y="230"/>
      <point x="375" y="236"/>
      <point x="364" y="236" type="curve" smooth="yes"/>
      <point x="358" y="236"/>
      <point x="352" y="240"/>
      <point x="344" y="239" type="curve"/>
      <point x="333" y="244"/>
      <point x="324" y="249"/>
      <point x="316" y="257" type="curve" smooth="yes"/>
      <point x="310" y="265"/>
      <point x="299" y="270"/>
      <point x="292" y="276" type="curve"/>
      <point x="290" y="284"/>
      <point x="285" y="290"/>
      <point x="286" y="302" type="curve"/>
      <point x="282" y="310"/>
      <point x="280" y="317"/>
      <point x="276" y="324" type="curve"/>
      <point x="277" y="331"/>
      <point x="276" y="337"/>
      <point x="275" y="344" type="curve"/>
      <point x="276" y="355"/>
      <point x="278" y="365"/>
      <point x="278" y="378" type="curve"/>
      <point x="282" y="385"/>
      <point x="285" y="392"/>
      <point x="288" y="402" type="curve" smooth="yes"/>
      <point x="290" y="409"/>
      <point x="296" y="415"/>
      <point x="297" y="424" type="curve"/>
      <point x="309" y="430"/>
      <point x="315" y="439"/>
      <point x="324" y="447" type="curve"/>
      <point x="334" y="452"/>
      <point x="344" y="457"/>
      <point x="355" y="460" type="curve"/>
      <point x="366" y="460"/>
      <point x="376" y="465"/>
      <point x="388" y="463" type="curve"/>
      <point x="401" y="463"/>
      <point x="409" y="459"/>
      <point x="420" y="459" type="curve"/>
      <point x="426" y="454"/>
      <point x="433" y="453"/>
      <point x="439" y="450" type="curve"/>
      <point x="450" y="442"/>
      <point x="458" y="434"/>
      <point x="468" y="426" type="curve"/>
      <point x="470" y="422"/>
      <point x="473" y="419"/>
      <point x="476" y="415" type="curve" smooth="yes"/>
      <point x="479" y="412"/>
      <point x="481" y="406"/>
      <point x="484" y="403" type="curve"/>
    </contour>
  </outline>
</glyph>
<glyph name="A" format="2">
  <advance width="680"/>
  <unicode hex="0041"/>
  <anchor x="352" y="0" name="bottom"/>
  <anchor x="612" y="10" name="ogonek"/>
  <anchor x="347" y="695" name="top"/>
  <outline>
    <contour>
      <point x="466" y="464" type="line" smooth="yes"/>
      <point x="463" y="473"/>
      <point x="456" y="475"/>
      <point x="454" y="482" type="curve" smooth="yes"/>
      <point x="451" y="496"/>
      <point x="445" y="507"/>
      <point x="441" y="519" type="curve"/>
      <point x="432" y="532"/>
      <point x="424" y="546"/>
      <point x="421" y="565" type="curve"/>
      <point x="414" y="575"/>
      <point x="407" y="585"/>
      <point x="403" y="597" type="curve" smooth="yes"/>
      <point x="398" y="608"/>
      <point x="392" y="618"/>
      <point x="386" y="630" type="curve" smooth="yes"/>
      <point x="381" y="641"/>
      <point x="374" y="651"/>
      <point x="371" y="665" type="curve"/>
      <point x="364" y="675"/>
      <point x="359" y="687"/>
      <point x="343" y="688" type="curve"/>
      <point x="334" y="687"/>
      <point x="333" y="678"/>
      <point x="329" y="673" type="curve"/>
      <point x="329" y="665"/>
      <point x="322" y="661"/>
      <point x="321" y="653" type="curve"/>
      <point x="308" y="639"/>
      <point x="300" y="620"/>
      <point x="294" y="600" type="curve"/>
      <point x="288" y="593"/>
      <point x="284" y="582"/>
      <point x="280" y="572" type="curve"/>
      <point x="275" y="564"/>
      <point x="273" y="553"/>
      <point x="265" y="546" type="curve"/>
      <point x="265" y="533"/>
      <point x="256" y="520"/>
      <point x="253" y="513" type="curve" smooth="yes"/>
      <point x="251" y="505" type="line" smooth="yes"/>
      <point x="250" y="502"/>
      <point x="246" y="501"/>
      <point x="245" y="499" type="curve" smooth="yes"/>
      <point x="244" y="497"/>
      <point x="245" y="493"/>
      <point x="244" y="491" type="curve" smooth="yes"/>
      <point x="240" y="482"/>
      <point x="234" y="476"/>
      <point x="229" y="467" type="curve" smooth="yes"/>
      <point x="224" y="459"/>
      <point x="222" y="449"/>
      <point x="216" y="442" type="curve"/>
      <point x="216" y="435"/>
      <point x="210" y="430"/>
      <point x="210" y="423" type="curve"/>
      <point x="201" y="410"/>
      <point x="197" y="393"/>
      <point x="187" y="381" type="curve"/>
      <point x="184" y="366"/>
      <point x="177" y="354"/>
      <point x="170" y="342" type="curve"/>
      <point x="171" y="332"/>
      <point x="163" y="328"/>
      <point x="160" y="322" type="curve" smooth="yes"/>
      <point x="156" y="314"/>
      <point x="155" y="307"/>
      <point x="152" y="300" type="curve" smooth="yes"/>
      <point x="150" y="296"/>
      <point x="146" y="292"/>
      <point x="144" y="287" type="curve"/>
      <point x="142" y="285"/>
      <point x="144" y="281"/>
      <point x="142" y="279" type="curve"/>
      <point x="141" y="277"/>
      <point x="138" y="276"/>
      <point x="137" y="273" type="curve" smooth="yes"/>
      <point x="131" y="259" type="line"/>
      <point x="125" y="249"/>
      <point x="122" y="240"/>
      <point x="117" y="230" type="curve" smooth="yes"/>
      <point x="114" y="225"/>
      <point x="111" y="218"/>
      <point x="109" y="212" type="curve" smooth="yes"/>
      <point x="107" y="207"/>
      <point x="104" y="204"/>
      <point x="102" y="198" type="curve"/>
      <point x="99" y="193"/>
      <point x="99" y="188"/>
      <point x="97" y="182" type="curve" smooth="yes"/>
      <point x="93" y="173"/>
      <point x="84" y="165"/>
      <point x="83" y="154" type="curve"/>
      <point x="65" y="117" type="line" smooth="yes"/>
      <point x="59" y="104"/>
      <point x="51" y="91"/>
      <point x="48" y="76" type="curve"/>
      <point x="41" y="69"/>
      <point x="36" y="57"/>
      <point x="30" y="48" type="curve"/>
      <point x="26" y="37"/>
      <point x="17" y="29"/>
      <point x="21" y="10" type="curve"/>
      <point x="27" y="-2"/>
      <point x="42" y="-7"/>
      <point x="59" y="-7" type="curve" smooth="yes"/>
      <point x="69" y="-6"/>
      <point x="81" y="-1"/>
      <point x="92" y="-2" type="curve"/>
      <point x="100" y="6"/>
      <point x="110" y="13"/>
      <point x="115" y="23" type="curve" smooth="yes"/>
      <point x="119" y="29"/>
      <point x="119" y="37"/>
      <point x="122" y="43" type="curve"/>
      <point x="132" y="56"/>
      <point x="136" y="73"/>
      <point x="147" y="85" type="curve"/>
      <point x="148" y="95"/>
      <point x="153" y="100"/>
      <point x="154" y="110" type="curve"/>
      <point x="167" y="127" type="line"/>
      <point x="171" y="145"/>
      <point x="174" y="163"/>
      <point x="190" y="169" type="curve"/>
      <point x="204" y="171"/>
      <point x="218" y="169"/>
      <point x="230" y="169" type="curve" smooth="yes"/>
      <point x="271" y="169"/>
      <point x="314" y="172"/>
      <point x="361" y="171" type="curve" smooth="yes"/>
      <point x="367" y="171"/>
      <point x="372" y="173"/>
      <point x="378" y="174" type="curve"/>
      <point x="396" y="169"/>
      <point x="416" y="174"/>
      <point x="438" y="174" type="curve" smooth="yes"/>
      <point x="459" y="174"/>
      <point x="481" y="171"/>
      <point x="503" y="172" type="curve"/>
      <point x="513" y="166"/>
      <point x="517" y="153"/>
      <point x="521" y="143" type="curve"/>
      <point x="526" y="139" type="line"/>
      <point x="529" y="135"/>
      <point x="531" y="130"/>
      <point x="535" y="127" type="curve"/>
      <point x="535" y="119"/>
      <point x="538" y="116"/>
      <point x="538" y="108" type="curve"/>
      <point x="543" y="103"/>
      <point x="547" y="98"/>
      <point x="552" y="90" type="curve" smooth="yes"/>
      <point x="554" y="86"/>
      <point x="552" y="78"/>
      <point x="555" y="75" type="curve" smooth="yes"/>
      <point x="563" y="64"/>
      <point x="569" y="50"/>
      <point x="575" y="36" type="curve"/>
      <point x="584" y="27"/>
      <point x="588" y="11"/>
      <point x="598" y="1" type="curve"/>
      <point x="623" y="-5"/>
      <point x="636" y="11"/>
      <point x="651" y="18" type="curve"/>
      <point x="653" y="27"/>
      <point x="662" y="29"/>
      <point x="660" y="40" type="curve" smooth="yes"/>
      <point x="659" y="49"/>
      <point x="655" y="57"/>
      <point x="655" y="67" type="curve"/>
      <point x="650" y="73"/>
      <point x="645" y="81"/>
      <point x="642" y="88" type="curve"/>
      <point x="637" y="106"/>
      <point x="627" y="118"/>
      <point x="622" y="135" type="curve"/>
      <point x="611" y="147"/>
      <point x="606" y="165"/>
      <point x="598" y="180" type="curve"/>
      <point x="595" y="184"/>
      <point x="597" y="193"/>
      <point x="595" y="197" type="curve" smooth="yes"/>
      <point x="591" y="204"/>
      <point x="586" y="209"/>
      <point x="581" y="217" type="curve" smooth="yes"/>
      <point x="572" y="235"/>
      <point x="566" y="259"/>
      <point x="553" y="276" type="curve" smooth="yes"/>
      <point x="542" y="294"/>
      <point x="536" y="316"/>
      <point x="525" y="334" type="curve"/>
      <point x="520" y="352"/>
      <point x="511" y="367"/>
      <point x="503" y="381" type="curve"/>
      <point x="501" y="387"/>
      <point x="496" y="394"/>
      <point x="494" y="398" type="curve" smooth="yes"/>
      <point x="493" y="401"/>
      <point x="494" y="403"/>
      <point x="493" y="406" type="curve" smooth="yes"/>
      <point x="489" y="414"/>
      <point x="485" y="421"/>
      <point x="480" y="427" type="curve"/>
      <point x="481" y="440"/>
      <point x="472" y="447"/>
      <point x="468" y="456" type="curve"/>
    </contour>
    <contour>
      <point x="470" y="258" type="line"/>
      <point x="462" y="250"/>
      <point x="445" y="251"/>
      <point x="430" y="250" type="curve"/>
      <point x="422" y="251"/>
      <point x="418" y="253"/>
      <point x="411" y="253" type="curve"/>
      <point x="378" y="249" type="line"/>
      <point x="364" y="252"/>
      <point x="340" y="254"/>
      <point x="326" y="249" type="curve"/>
      <point x="307" y="246"/>
      <point x="289" y="251"/>
      <point x="273" y="252" type="curve" smooth="yes"/>
      <point x="256" y="252"/>
      <point x="240" y="247"/>
      <point x="224" y="253" type="curve"/>
      <point x="226" y="267"/>
      <point x="228" y="280"/>
      <point x="237" y="287" type="curve"/>
      <point x="253" y="319" type="line" smooth="yes"/>
      <point x="263" y="338"/>
      <point x="270" y="364"/>
      <point x="284" y="379" type="curve"/>
      <point x="291" y="411"/>
      <point x="313" y="427"/>
      <point x="319" y="459" type="curve"/>
      <point x="325" y="465"/>
      <point x="326" y="475"/>
      <point x="332" y="479" type="curve"/>
      <point x="332" y="493"/>
      <point x="335" y="502"/>
      <point x="344" y="508" type="curve"/>
      <point x="352" y="507"/>
      <point x="353" y="498"/>
      <point x="354" y="491" type="curve"/>
      <point x="359" y="487"/>
      <point x="360" y="478"/>
      <point x="364" y="474" type="curve"/>
      <point x="367" y="464"/>
      <point x="374" y="456"/>
      <point x="378" y="447" type="curve" smooth="yes"/>
      <point x="389" y="421" type="line" smooth="yes"/>
      <point x="397" y="403"/>
      <point x="410" y="388"/>
      <point x="415" y="369" type="curve"/>
      <point x="424" y="356"/>
      <point x="433" y="341"/>
      <point x="438" y="324" type="curve"/>
      <point x="448" y="306"/>
      <point x="456" y="287"/>
      <point x="468" y="272" type="curve"/>
      <point x="467" y="268"/>
      <point x="469" y="268"/>
      <point x="470" y="265" type="curve"/>
    </contour>
  </outline>
</glyph>
<glyph name="C" format="2">
  <advance width="652"/>
  <unicode hex="0043"/>
  <anchor x="404" y="0" name="bottom"/>
  <anchor x="404" y="695" name="top"/>
  <outline>
    <contour>
      <point x="560" y="683" type="line"/>
      <point x="543" y="686"/>
      <point x="530" y="692"/>
      <point x="516" y="699" type="curve"/>
      <point x="498" y="696"/>
      <point x="481" y="706"/>
      <point x="462" y="708" type="curve" smooth="yes"/>
      <point x="431" y="711"/>
      <point x="400" y="706"/>
      <point x="369" y="708" type="curve"/>
      <point x="351" y="701"/>
      <point x="331" y="700"/>
      <point x="312" y="695" type="curve"/>
      <point x="294" y="688" type="line" smooth="yes"/>
      <point x="290" y="687"/>
      <point x="287" y="688"/>
      <point x="284" y="687" type="curve" smooth="yes"/>
      <point x="275" y="684"/>
      <point x="262" y="678"/>
      <point x="255" y="675" type="curve" smooth="yes"/>
      <point x="225" y="661" type="line"/>
      <point x="214" y="652"/>
      <point x="201" y="649"/>
      <point x="194" y="636" type="curve"/>
      <point x="177" y="626" type="line"/>
      <point x="172" y="619"/>
      <point x="165" y="613"/>
      <point x="158" y="608" type="curve"/>
      <point x="153" y="601"/>
      <point x="145" y="595"/>
      <point x="140" y="588" type="curve"/>
      <point x="126" y="577"/>
      <point x="117" y="561"/>
      <point x="105" y="548" type="curve"/>
      <point x="101" y="534"/>
      <point x="94" y="522"/>
      <point x="85" y="513" type="curve"/>
      <point x="83" y="508"/>
      <point x="76" y="498"/>
      <point x="76" y="488" type="curve"/>
      <point x="71" y="482"/>
      <point x="71" y="472"/>
      <point x="65" y="466" type="curve"/>
      <point x="63" y="447"/>
      <point x="57" y="430"/>
      <point x="53" y="412" type="curve"/>
      <point x="53" y="400"/>
      <point x="52" y="387"/>
      <point x="52" y="374" type="curve" smooth="yes"/>
      <point x="51" y="360"/>
      <point x="49" y="348"/>
      <point x="50" y="336" type="curve" smooth="yes"/>
      <point x="50" y="330"/>
      <point x="52" y="323"/>
      <point x="53" y="317" type="curve" smooth="yes"/>
      <point x="55" y="297" type="line" smooth="yes"/>
      <point x="57" y="278"/>
      <point x="60" y="257"/>
      <point x="65" y="244" type="curve"/>
      <point x="66" y="243"/>
      <point x="66" y="240"/>
      <point x="67" y="237" type="curve" smooth="yes"/>
      <point x="74" y="214"/>
      <point x="86" y="194"/>
      <point x="93" y="174" type="curve"/>
      <point x="103" y="162"/>
      <point x="112" y="151"/>
      <point x="120" y="140" type="curve" smooth="yes"/>
      <point x="123" y="136"/>
      <point x="128" y="133"/>
      <point x="128" y="127" type="curve"/>
      <point x="140" y="111"/>
      <point x="156" y="100"/>
      <point x="166" y="84" type="curve"/>
      <point x="176" y="78"/>
      <point x="186" y="73"/>
      <point x="192" y="65" type="curve"/>
      <point x="204" y="61"/>
      <point x="208" y="51"/>
      <point x="218" y="47" type="curve" smooth="yes"/>
      <point x="239" y="36"/>
      <point x="261" y="28"/>
      <point x="279" y="15" type="curve"/>
      <point x="303" y="10"/>
      <point x="325" y="3"/>
      <point x="348" y="-3" type="curve"/>
      <point x="377" y="-5"/>
      <point x="409" y="-8"/>
      <point x="441" y="-7" type="curve" smooth="yes"/>
      <point x="460" y="-5"/>
      <point x="480" y="-1"/>
      <point x="497" y="3" type="curve" smooth="yes"/>
      <point x="517" y="7"/>
      <point x="534" y="14"/>
      <point x="549" y="20" type="curve"/>
      <point x="558" y="21"/>
      <point x="563" y="23"/>
      <point x="569" y="27" type="curve"/>
      <point x="584" y="31"/>
      <point x="597" y="36"/>
      <point x="604" y="47" type="curve"/>
      <point x="607" y="54"/>
      <point x="605" y="65"/>
      <point x="607" y="72" type="curve"/>
      <point x="605" y="75"/>
      <point x="606" y="82"/>
      <point x="604" y="85" type="curve"/>
      <point x="604" y="98"/>
      <point x="604" y="110"/>
      <point x="606" y="120" type="curve" smooth="yes"/>
      <point x="607" y="127"/>
      <point x="604" y="130"/>
      <point x="604" y="137" type="curve"/>
      <point x="601" y="140"/>
      <point x="603" y="148"/>
      <point x="596" y="148" type="curve" smooth="yes"/>
      <point x="576" y="147"/>
      <point x="572" y="129"/>
      <point x="558" y="123" type="curve"/>
      <point x="547" y="121"/>
      <point x="541" y="114"/>
      <point x="531" y="110" type="curve"/>
      <point x="517" y="110"/>
      <point x="511" y="102"/>
      <point x="501" y="99" type="curve"/>
      <point x="494" y="99"/>
      <point x="489" y="94"/>
      <point x="481" y="93" type="curve" smooth="yes"/>
      <point x="472" y="91"/>
      <point x="460" y="93"/>
      <point x="451" y="91" type="curve" smooth="yes"/>
      <point x="443" y="90"/>
      <point x="438" y="87"/>
      <point x="430" y="87" type="curve" smooth="yes"/>
      <point x="423" y="86"/>
      <point x="414" y="86"/>
      <point x="406" y="87" type="curve" smooth="yes"/>
      <point x="374" y="88"/>
      <point x="347" y="96"/>
      <point x="320" y="100" type="curve"/>
      <point x="313" y="105"/>
      <point x="303" y="108"/>
      <point x="294" y="111" type="curve"/>
      <point x="288" y="119"/>
      <point x="277" y="121"/>
      <point x="267" y="123" type="curve"/>
      <point x="260" y="130"/>
      <point x="251" y="138"/>
      <point x="242" y="143" type="curve" smooth="yes"/>
      <point x="232" y="148"/>
      <point x="227" y="158"/>
      <point x="217" y="163" type="curve"/>
      <point x="212" y="173"/>
      <point x="205" y="178"/>
      <point x="200" y="187" type="curve"/>
      <point x="187" y="197"/>
      <point x="177" y="211"/>
      <point x="170" y="229" type="curve"/>
      <point x="166" y="235"/>
      <point x="161" y="242"/>
      <point x="160" y="250" type="curve"/>
      <point x="151" y="262"/>
      <point x="146" y="279"/>
      <point x="140" y="294" type="curve"/>
      <point x="139" y="317"/>
      <point x="138" y="340"/>
      <point x="138" y="366" type="curve"/>
      <point x="141" y="378"/>
      <point x="142" y="393"/>
      <point x="143" y="407" type="curve"/>
      <point x="147" y="419"/>
      <point x="152" y="429"/>
      <point x="154" y="442" type="curve"/>
      <point x="159" y="449"/>
      <point x="163" y="459"/>
      <point x="169" y="464" type="curve" smooth="yes"/>
      <point x="172" y="467"/>
      <point x="172" y="469"/>
      <point x="174" y="473" type="curve" smooth="yes"/>
      <point x="175" y="477"/>
      <point x="175" y="482"/>
      <point x="178" y="485" type="curve"/>
      <point x="184" y="494"/>
      <point x="192" y="500"/>
      <point x="195" y="511" type="curve"/>
      <point x="214" y="526"/>
      <point x="228" y="546"/>
      <point x="249" y="560" type="curve"/>
      <point x="267" y="576"/>
      <point x="287" y="589"/>
      <point x="312" y="598" type="curve"/>
      <point x="353" y="601"/>
      <point x="382" y="617"/>
      <point x="426" y="618" type="curve"/>
      <point x="447" y="614"/>
      <point x="469" y="612"/>
      <point x="488" y="608" type="curve" smooth="yes"/>
      <point x="508" y="603"/>
      <point x="526" y="597"/>
      <point x="545" y="589" type="curve" smooth="yes"/>
      <point x="563" y="581"/>
      <point x="572" y="557"/>
      <point x="598" y="561" type="curve"/>
      <point x="611" y="568"/>
      <point x="605" y="588"/>
      <point x="604" y="604" type="curve" smooth="yes"/>
      <point x="604" y="623"/>
      <point x="606" y="644"/>
      <point x="600" y="656" type="curve" smooth="yes"/>
      <point x="595" y="665"/>
      <point x="586" y="666"/>
      <point x="580" y="670" type="curve" smooth="yes"/>
    </contour>
  </outline>
</glyph>
<glyph name="F" format="2">
  <advance width="472"/>
  <unicode hex="0046"/>
  <anchor x="231" y="0" name="bottom"/>
  <anchor x="231" y="695" name="top"/>
  <outline>
    <contour>
      <point x="71" y="317" type="line" smooth="yes"/>
      <point x="69" y="285"/>
      <point x="71" y="250"/>
      <point x="71" y="215" type="curve" smooth="yes"/>
      <point x="71" y="175"/>
      <point x="70" y="134"/>
      <point x="72" y="93" type="curve" smooth="yes"/>
      <point x="72" y="86"/>
      <point x="69" y="80"/>
      <point x="69" y="72" type="curve" smooth="yes"/>
      <point x="69" y="64"/>
      <point x="71" y="55"/>
      <point x="71" y="47" type="curve" smooth="yes"/>
      <point x="70" y="34"/>
      <point x="65" y="22"/>
      <point x="69" y="12" type="curve"/>
      <point x="77" y="3"/>
      <point x="93" y="1"/>
      <point x="107" y="1" type="curve" smooth="yes"/>
      <point x="117" y="1"/>
      <point x="127" y="2"/>
      <point x="136" y="3" type="curve" smooth="yes"/>
      <point x="147" y="4"/>
      <point x="156" y="2"/>
      <point x="162" y="8" type="curve" smooth="yes"/>
      <point x="172" y="20"/>
      <point x="166" y="34"/>
      <point x="165" y="48" type="curve" smooth="yes"/>
      <point x="164" y="68"/>
      <point x="166" y="87"/>
      <point x="167" y="108" type="curve" smooth="yes"/>
      <point x="167" y="129"/>
      <point x="168" y="152"/>
      <point x="167" y="174" type="curve"/>
      <point x="162" y="201" type="line"/>
      <point x="162" y="214"/>
      <point x="164" y="226"/>
      <point x="165" y="237" type="curve" smooth="yes"/>
      <point x="166" y="248"/>
      <point x="165" y="260"/>
      <point x="165" y="270" type="curve" smooth="yes"/>
      <point x="165" y="282"/>
      <point x="162" y="295"/>
      <point x="162" y="305" type="curve" smooth="yes"/>
      <point x="162" y="316"/>
      <point x="165" y="329"/>
      <point x="168" y="337" type="curve"/>
      <point x="176" y="342"/>
      <point x="188" y="340"/>
      <point x="199" y="340" type="curve" smooth="yes"/>
      <point x="219" y="341"/>
      <point x="253" y="342"/>
      <point x="272" y="340" type="curve" smooth="yes"/>
      <point x="277" y="340"/>
      <point x="281" y="338"/>
      <point x="286" y="339" type="curve" smooth="yes"/>
      <point x="305" y="342"/>
      <point x="330" y="342"/>
      <point x="353" y="342" type="curve" smooth="yes"/>
      <point x="379" y="342"/>
      <point x="405" y="338"/>
      <point x="420" y="352" type="curve"/>
      <point x="425" y="363"/>
      <point x="423" y="377"/>
      <point x="420" y="389" type="curve"/>
      <point x="420" y="404"/>
      <point x="421" y="419"/>
      <point x="414" y="426" type="curve"/>
      <point x="404" y="431"/>
      <point x="392" y="427"/>
      <point x="382" y="427" type="curve" smooth="yes"/>
      <point x="347" y="428"/>
      <point x="307" y="430"/>
      <point x="272" y="426" type="curve"/>
      <point x="263" y="426"/>
      <point x="258" y="430"/>
      <point x="248" y="429" type="curve" smooth="yes"/>
      <point x="237" y="429"/>
      <point x="230" y="425"/>
      <point x="220" y="426" type="curve" smooth="yes"/>
      <point x="212" y="427"/>
      <point x="206" y="430"/>
      <point x="199" y="430" type="curve"/>
      <point x="186" y="432"/>
      <point x="174" y="428"/>
      <point x="165" y="435" type="curve"/>
      <point x="161" y="448"/>
      <point x="167" y="463"/>
      <point x="167" y="479" type="curve" smooth="yes"/>
      <point x="167" y="508"/>
      <point x="162" y="540"/>
      <point x="168" y="565" type="curve"/>
      <point x="168" y="571"/>
      <point x="164" y="577"/>
      <point x="162" y="586" type="curve"/>
      <point x="162" y="595"/>
      <point x="161" y="604"/>
      <point x="167" y="610" type="curve"/>
      <point x="200" y="611"/>
      <point x="233" y="612"/>
      <point x="268" y="612" type="curve" smooth="yes"/>
      <point x="292" y="612"/>
      <point x="318" y="610"/>
      <point x="338" y="610" type="curve" smooth="yes"/>
      <point x="341" y="610"/>
      <point x="341" y="611"/>
      <point x="344" y="612" type="curve"/>
      <point x="346" y="612"/>
      <point x="349" y="610"/>
      <point x="350" y="610" type="curve" smooth="yes"/>
      <point x="360" y="610"/>
      <point x="369" y="612"/>
      <point x="379" y="612" type="curve" smooth="yes"/>
      <point x="391" y="612"/>
      <point x="405" y="606"/>
      <point x="417" y="613" type="curve"/>
      <point x="433" y="635"/>
      <point x="430" y="690"/>
      <point x="407" y="702" type="curve"/>
      <point x="390" y="700"/>
      <point x="371" y="701"/>
      <point x="360" y="700" type="curve" smooth="yes"/>
      <point x="346" y="699"/>
      <point x="335" y="700"/>
      <point x="321" y="700" type="curve" smooth="yes"/>
      <point x="295" y="701"/>
      <point x="273" y="699"/>
      <point x="249" y="696" type="curve" smooth="yes"/>
      <point x="244" y="696"/>
      <point x="238" y="697"/>
      <point x="235" y="695" type="curve"/>
      <point x="231" y="697"/>
      <point x="225" y="700"/>
      <point x="222" y="696" type="curve"/>
      <point x="208" y="697"/>
      <point x="201" y="694"/>
      <point x="188" y="695" type="curve"/>
      <point x="178" y="693"/>
      <point x="177" y="700"/>
      <point x="168" y="699" type="curve"/>
      <point x="158" y="700"/>
      <point x="148" y="696"/>
      <point x="136" y="696" type="curve" smooth="yes"/>
      <point x="113" y="696"/>
      <point x="85" y="704"/>
      <point x="69" y="691" type="curve"/>
      <point x="61" y="670"/>
      <point x="69" y="648"/>
      <point x="69" y="626" type="curve" smooth="yes"/>
      <point x="69" y="619"/>
      <point x="68" y="613"/>
      <point x="68" y="604" type="curve" smooth="yes"/>
      <point x="68" y="595"/>
      <point x="71" y="584"/>
      <point x="71" y="575" type="curve" smooth="yes"/>
      <point x="70" y="567"/>
      <point x="68" y="560"/>
      <point x="68" y="551" type="curve" smooth="yes"/>
      <point x="68" y="542"/>
      <point x="71" y="531"/>
      <point x="71" y="522" type="curve" smooth="yes"/>
      <point x="71" y="512"/>
      <point x="69" y="504"/>
      <point x="69" y="494" type="curve" smooth="yes"/>
      <point x="71" y="438"/>
      <point x="70" y="384"/>
      <point x="71" y="332" type="curve" smooth="yes"/>
    </contour>
  </outline>
</glyph>
<glyph name="H" format="2">
  <advance width="655"/>
  <unicode hex="0048"/>
  <anchor x="329" y="0" name="bottom"/>
  <anchor x="329" y="348" name="center"/>
  <anchor x="329" y="695" name="top"/>
  <anchor x="33" y="695" name="topleft"/>
  <outline>
    <contour>
      <point x="584" y="242" type="line" smooth="yes"/>
      <point x="584" y="260"/>
      <point x="583" y="276"/>
      <point x="586" y="290" type="curve" smooth="yes"/>
      <point x="590" y="318"/>
      <point x="586" y="349"/>
      <point x="586" y="371" type="curve" smooth="yes"/>
      <point x="586" y="375"/>
      <point x="588" y="381"/>
      <point x="588" y="386" type="curve" smooth="yes"/>
      <point x="588" y="396"/>
      <point x="584" y="406"/>
      <point x="584" y="416" type="curve" smooth="yes"/>
      <point x="584" y="434"/>
      <point x="585" y="453"/>
      <point x="586" y="464" type="curve" smooth="yes"/>
      <point x="586" y="470"/>
      <point x="588" y="474"/>
      <point x="586" y="479" type="curve"/>
      <point x="582" y="500"/>
      <point x="588" y="523"/>
      <point x="588" y="545" type="curve" smooth="yes"/>
      <point x="588" y="564"/>
      <point x="583" y="583"/>
      <point x="586" y="603" type="curve"/>
      <point x="574" y="631"/>
      <point x="598" y="675"/>
      <point x="578" y="696" type="curve"/>
      <point x="550" y="700"/>
      <point x="523" y="702"/>
      <point x="500" y="693" type="curve"/>
      <point x="497" y="686"/>
      <point x="494" y="681"/>
      <point x="494" y="673" type="curve" smooth="yes"/>
      <point x="494" y="666"/>
      <point x="497" y="657"/>
      <point x="497" y="650" type="curve" smooth="yes"/>
      <point x="497" y="637"/>
      <point x="495" y="624"/>
      <point x="496" y="612" type="curve" smooth="yes"/>
      <point x="496" y="604"/>
      <point x="498" y="593"/>
      <point x="500" y="589" type="curve"/>
      <point x="500" y="588"/>
      <point x="497" y="587"/>
      <point x="497" y="586" type="curve" smooth="yes"/>
      <point x="497" y="582"/>
      <point x="500" y="578"/>
      <point x="500" y="572" type="curve" smooth="yes"/>
      <point x="500" y="567"/>
      <point x="497" y="563"/>
      <point x="497" y="558" type="curve" smooth="yes"/>
      <point x="500" y="458" type="line" smooth="yes"/>
      <point x="501" y="449"/>
      <point x="497" y="444"/>
      <point x="497" y="438" type="curve"/>
      <point x="494" y="434"/>
      <point x="496" y="424"/>
      <point x="491" y="423" type="curve" smooth="yes"/>
      <point x="457" y="417"/>
      <point x="412" y="424"/>
      <point x="373" y="421" type="curve"/>
      <point x="366" y="422"/>
      <point x="361" y="425"/>
      <point x="350" y="424" type="curve"/>
      <point x="341" y="425"/>
      <point x="333" y="423"/>
      <point x="326" y="421" type="curve"/>
      <point x="300" y="424"/>
      <point x="271" y="423"/>
      <point x="240" y="423" type="curve" smooth="yes"/>
      <point x="211" y="423"/>
      <point x="179" y="416"/>
      <point x="158" y="427" type="curve"/>
      <point x="154" y="447"/>
      <point x="158" y="467"/>
      <point x="153" y="484" type="curve"/>
      <point x="156" y="498"/>
      <point x="158" y="514"/>
      <point x="158" y="529" type="curve" smooth="yes"/>
      <point x="158" y="555"/>
      <point x="157" y="584"/>
      <point x="157" y="608" type="curve" smooth="yes"/>
      <point x="156" y="638"/>
      <point x="164" y="668"/>
      <point x="157" y="695" type="curve"/>
      <point x="135" y="702"/>
      <point x="93" y="707"/>
      <point x="71" y="695" type="curve"/>
      <point x="63" y="687"/>
      <point x="65" y="676"/>
      <point x="65" y="667" type="curve" smooth="yes"/>
      <point x="65" y="624"/>
      <point x="66" y="590"/>
      <point x="66" y="551" type="curve" smooth="yes"/>
      <point x="67" y="526"/>
      <point x="67" y="499"/>
      <point x="66" y="474" type="curve" smooth="yes"/>
      <point x="66" y="448"/>
      <point x="67" y="424"/>
      <point x="68" y="400" type="curve" smooth="yes"/>
      <point x="69" y="372"/>
      <point x="65" y="347"/>
      <point x="71" y="322" type="curve"/>
      <point x="67" y="287"/>
      <point x="73" y="240"/>
      <point x="66" y="207" type="curve"/>
      <point x="71" y="143"/>
      <point x="67" y="83"/>
      <point x="68" y="21" type="curve"/>
      <point x="73" y="17"/>
      <point x="72" y="7"/>
      <point x="82" y="6" type="curve"/>
      <point x="91" y="0"/>
      <point x="109" y="4"/>
      <point x="121" y="6" type="curve"/>
      <point x="135" y="3"/>
      <point x="154" y="3"/>
      <point x="160" y="13" type="curve"/>
      <point x="165" y="30"/>
      <point x="157" y="47"/>
      <point x="157" y="64" type="curve" smooth="yes"/>
      <point x="154" y="116"/>
      <point x="158" y="155"/>
      <point x="155" y="204" type="curve"/>
      <point x="156" y="210"/>
      <point x="158" y="215"/>
      <point x="158" y="224" type="curve" smooth="yes"/>
      <point x="159" y="233"/>
      <point x="154" y="235"/>
      <point x="155" y="244" type="curve" smooth="yes"/>
      <point x="157" y="290" type="line" smooth="yes"/>
      <point x="157" y="308"/>
      <point x="154" y="326"/>
      <point x="161" y="339" type="curve"/>
      <point x="179" y="345"/>
      <point x="208" y="340"/>
      <point x="227" y="339" type="curve" smooth="yes"/>
      <point x="230" y="339"/>
      <point x="233" y="340"/>
      <point x="237" y="340" type="curve" smooth="yes"/>
      <point x="264" y="339"/>
      <point x="295" y="336"/>
      <point x="320" y="339" type="curve" smooth="yes"/>
      <point x="330" y="340"/>
      <point x="339" y="346"/>
      <point x="349" y="346" type="curve" smooth="yes"/>
      <point x="360" y="346"/>
      <point x="369" y="337"/>
      <point x="379" y="337" type="curve" smooth="yes"/>
      <point x="387" y="337"/>
      <point x="394" y="340"/>
      <point x="401" y="340" type="curve"/>
      <point x="422" y="335"/>
      <point x="443" y="340"/>
      <point x="465" y="340" type="curve"/>
      <point x="469" y="341"/>
      <point x="476" y="339"/>
      <point x="476" y="339" type="curve"/>
      <point x="482" y="338"/>
      <point x="491" y="343"/>
      <point x="496" y="337" type="curve"/>
      <point x="502" y="323"/>
      <point x="497" y="308"/>
      <point x="497" y="294" type="curve" smooth="yes"/>
      <point x="497" y="175" type="line" smooth="yes"/>
      <point x="497" y="164"/>
      <point x="500" y="154"/>
      <point x="500" y="143" type="curve" smooth="yes"/>
      <point x="500" y="124"/>
      <point x="498" y="104"/>
      <point x="497" y="85" type="curve" smooth="yes"/>
      <point x="497" y="66"/>
      <point x="498" y="48"/>
      <point x="496" y="30" type="curve" smooth="yes"/>
      <point x="494" y="20"/>
      <point x="502" y="18"/>
      <point x="503" y="12" type="curve"/>
      <point x="514" y="4"/>
      <point x="529" y="7"/>
      <point x="544" y="8" type="curve" smooth="yes"/>
      <point x="559" y="8"/>
      <point x="575" y="4"/>
      <point x="586" y="12" type="curve"/>
      <point x="590" y="17"/>
      <point x="590" y="24"/>
      <point x="590" y="33" type="curve" smooth="yes"/>
      <point x="589" y="43"/>
      <point x="585" y="55"/>
      <point x="584" y="67" type="curve" smooth="yes"/>
      <point x="582" y="101"/>
      <point x="588" y="135"/>
      <point x="588" y="169" type="curve" smooth="yes"/>
      <point x="588" y="189"/>
      <point x="584" y="209"/>
      <point x="584" y="229" type="curve" smooth="yes"/>
    </contour>
  </outline>
</glyph>
<glyph name="I" format="2">
  <advance width="220"/>
  <unicode hex="0049"/>
  <anchor x="108" y="0" name="bottom"/>
  <anchor x="87" y="10" name="ogonek"/>
  <anchor x="108" y="695" name="top"/>
  <anchor x="21" y="695" name="topleft"/>
  <outline>
    <contour>
      <point x="154" y="81"/>
      <point x="154" y="137"/>
      <point x="152" y="189" type="curve"/>
      <point x="155" y="210"/>
      <point x="156" y="231"/>
      <point x="152" y="250" type="curve"/>
      <point x="157" y="299"/>
      <point x="148" y="345"/>
      <point x="155" y="398" type="curve"/>
      <point x="148" y="417"/>
      <point x="154" y="440"/>
      <point x="153" y="462" type="curve" smooth="yes"/>
      <point x="153" y="482"/>
      <point x="150" y="500"/>
      <point x="155" y="517" type="curve"/>
      <point x="153" y="524"/>
      <point x="152" y="532"/>
      <point x="149" y="540" type="curve"/>
      <point x="157" y="577"/>
      <point x="152" y="624"/>
      <point x="155" y="659" type="curve" smooth="yes"/>
      <point x="155" y="661"/>
      <point x="154" y="663"/>
      <point x="153" y="665" type="curve"/>
      <point x="152" y="674"/>
      <point x="149" y="682"/>
      <point x="143" y="688" type="curve"/>
      <point x="124" y="696"/>
      <point x="83" y="697"/>
      <point x="69" y="682" type="curve"/>
      <point x="64" y="670"/>
      <point x="68" y="655"/>
      <point x="68" y="647" type="curve" smooth="yes"/>
      <point x="67" y="637"/>
      <point x="68" y="623"/>
      <point x="66" y="616" type="curve" smooth="yes"/>
      <point x="62" y="598"/>
      <point x="70" y="580"/>
      <point x="71" y="561" type="curve" smooth="yes"/>
      <point x="71" y="558"/>
      <point x="69" y="552"/>
      <point x="69" y="548" type="curve" smooth="yes"/>
      <point x="70" y="534"/>
      <point x="71" y="527"/>
      <point x="66" y="516" type="curve"/>
      <point x="73" y="480"/>
      <point x="64" y="437"/>
      <point x="74" y="406" type="curve"/>
      <point x="68" y="388"/>
      <point x="71" y="364"/>
      <point x="71" y="348" type="curve" smooth="yes"/>
      <point x="71" y="331"/>
      <point x="69" y="316"/>
      <point x="73" y="301" type="curve"/>
      <point x="73" y="293"/>
      <point x="67" y="292"/>
      <point x="68" y="284" type="curve"/>
      <point x="73" y="270"/>
      <point x="69" y="254"/>
      <point x="69" y="239" type="curve"/>
      <point x="70" y="232"/>
      <point x="74" y="229"/>
      <point x="74" y="222" type="curve"/>
      <point x="59" y="192"/>
      <point x="81" y="151"/>
      <point x="66" y="122" type="curve"/>
      <point x="71" y="112"/>
      <point x="72" y="99"/>
      <point x="74" y="87" type="curve"/>
      <point x="73" y="63"/>
      <point x="64" y="34"/>
      <point x="79" y="18" type="curve"/>
      <point x="90" y="16"/>
      <point x="108" y="15"/>
      <point x="117" y="20" type="curve"/>
      <point x="129" y="20"/>
      <point x="142" y="21"/>
      <point x="149" y="29" type="curve"/>
    </contour>
  </outline>
</glyph>
<glyph name="K" format="2">
  <advance width="597"/>
  <unicode hex="004B"/>
  <anchor x="304" y="0" name="bottom"/>
  <anchor x="304" y="695" name="top"/>
  <outline>
    <contour>
      <point x="567" y="32"/>
      <point x="565" y="34"/>
      <point x="563" y="35" type="curve"/>
      <point x="554" y="45"/>
      <point x="546" y="52"/>
      <point x="541" y="65" type="curve"/>
      <point x="527" y="74"/>
      <point x="518" y="90"/>
      <point x="505" y="100" type="curve"/>
      <point x="500" y="111"/>
      <point x="493" y="118"/>
      <point x="485" y="125" type="curve"/>
      <point x="479" y="134"/>
      <point x="474" y="143"/>
      <point x="465" y="151" type="curve"/>
      <point x="462" y="161"/>
      <point x="453" y="167"/>
      <point x="445" y="175" type="curve" smooth="yes"/>
      <point x="442" y="179"/>
      <point x="439" y="183"/>
      <point x="438" y="189" type="curve"/>
      <point x="435" y="194"/>
      <point x="428" y="195"/>
      <point x="427" y="201" type="curve"/>
      <point x="418" y="207"/>
      <point x="411" y="215"/>
      <point x="406" y="224" type="curve"/>
      <point x="398" y="230"/>
      <point x="391" y="239"/>
      <point x="386" y="247" type="curve"/>
      <point x="371" y="262"/>
      <point x="360" y="280"/>
      <point x="346" y="294" type="curve"/>
      <point x="340" y="303"/>
      <point x="332" y="310"/>
      <point x="326" y="319" type="curve"/>
      <point x="318" y="324"/>
      <point x="312" y="333"/>
      <point x="307" y="342" type="curve"/>
      <point x="298" y="348"/>
      <point x="295" y="358"/>
      <point x="285" y="364" type="curve"/>
      <point x="280" y="376"/>
      <point x="268" y="377"/>
      <point x="268" y="391" type="curve" smooth="yes"/>
      <point x="268" y="401"/>
      <point x="279" y="409"/>
      <point x="287" y="418" type="curve" smooth="yes"/>
      <point x="295" y="426"/>
      <point x="305" y="434"/>
      <point x="308" y="441" type="curve"/>
      <point x="320" y="444"/>
      <point x="324" y="455"/>
      <point x="334" y="461" type="curve"/>
      <point x="339" y="471"/>
      <point x="351" y="475"/>
      <point x="357" y="484" type="curve"/>
      <point x="370" y="490"/>
      <point x="377" y="505"/>
      <point x="386" y="513" type="curve" smooth="yes"/>
      <point x="388" y="515"/>
      <point x="390" y="516"/>
      <point x="392" y="517" type="curve"/>
      <point x="396" y="522"/>
      <point x="400" y="526"/>
      <point x="404" y="529" type="curve" smooth="yes"/>
      <point x="420" y="544"/>
      <point x="432" y="562"/>
      <point x="453" y="572" type="curve"/>
      <point x="467" y="595"/>
      <point x="490" y="611"/>
      <point x="508" y="630" type="curve"/>
      <point x="518" y="638"/>
      <point x="526" y="649"/>
      <point x="537" y="656" type="curve"/>
      <point x="545" y="668"/>
      <point x="560" y="672"/>
      <point x="558" y="693" type="curve"/>
      <point x="549" y="703"/>
      <point x="535" y="697"/>
      <point x="520" y="696" type="curve" smooth="yes"/>
      <point x="501" y="695"/>
      <point x="480" y="697"/>
      <point x="461" y="696" type="curve"/>
      <point x="440" y="686"/>
      <point x="426" y="667"/>
      <point x="409" y="652" type="curve"/>
      <point x="407" y="646"/>
      <point x="401" y="643"/>
      <point x="398" y="639" type="curve"/>
      <point x="393" y="636"/>
      <point x="389" y="631"/>
      <point x="386" y="626" type="curve"/>
      <point x="377" y="619"/>
      <point x="366" y="614"/>
      <point x="363" y="601" type="curve"/>
      <point x="356" y="599"/>
      <point x="351" y="595"/>
      <point x="346" y="591" type="curve"/>
      <point x="340" y="579"/>
      <point x="328" y="575"/>
      <point x="322" y="563" type="curve"/>
      <point x="315" y="563"/>
      <point x="313" y="558"/>
      <point x="307" y="557" type="curve"/>
      <point x="302" y="550"/>
      <point x="299" y="542"/>
      <point x="292" y="537" type="curve" smooth="yes"/>
      <point x="286" y="532"/>
      <point x="281" y="526"/>
      <point x="277" y="517" type="curve"/>
      <point x="269" y="514"/>
      <point x="264" y="509"/>
      <point x="257" y="505" type="curve"/>
      <point x="254" y="499"/>
      <point x="250" y="496"/>
      <point x="247" y="493" type="curve" smooth="yes"/>
      <point x="244" y="489"/>
      <point x="242" y="482"/>
      <point x="236" y="481" type="curve"/>
      <point x="230" y="473"/>
      <point x="220" y="467"/>
      <point x="215" y="458" type="curve" smooth="yes"/>
      <point x="209" y="449"/>
      <point x="197" y="445"/>
      <point x="192" y="436" type="curve"/>
      <point x="181" y="431"/>
      <point x="178" y="420"/>
      <point x="163" y="419" type="curve"/>
      <point x="158" y="423"/>
      <point x="162" y="428"/>
      <point x="161" y="435" type="curve" smooth="yes"/>
      <point x="160" y="454"/>
      <point x="159" y="477"/>
      <point x="160" y="498" type="curve" smooth="yes"/>
      <point x="160" y="506"/>
      <point x="164" y="508"/>
      <point x="165" y="514" type="curve"/>
      <point x="157" y="531"/>
      <point x="160" y="559"/>
      <point x="158" y="581" type="curve"/>
      <point x="161" y="593"/>
      <point x="162" y="604"/>
      <point x="161" y="616" type="curve" smooth="yes"/>
      <point x="161" y="626"/>
      <point x="160" y="641"/>
      <point x="160" y="653" type="curve" smooth="yes"/>
      <point x="160" y="668"/>
      <point x="164" y="683"/>
      <point x="157" y="693" type="curve"/>
      <point x="147" y="702"/>
      <point x="133" y="696"/>
      <point x="118" y="696" type="curve" smooth="yes"/>
      <point x="103" y="696"/>
      <point x="86" y="700"/>
      <point x="73" y="696" type="curve"/>
      <point x="64" y="687"/>
      <point x="63" y="660"/>
      <point x="67" y="643" type="curve"/>
      <point x="72" y="568"/>
      <point x="64" y="477"/>
      <point x="70" y="395" type="curve" smooth="yes"/>
      <point x="71" y="388"/>
      <point x="66" y="386"/>
      <point x="67" y="377" type="curve" smooth="yes"/>
      <point x="71" y="358"/>
      <point x="69" y="339"/>
      <point x="68" y="320" type="curve" smooth="yes"/>
      <point x="68" y="300"/>
      <point x="70" y="279"/>
      <point x="70" y="258" type="curve" smooth="yes"/>
      <point x="70" y="233"/>
      <point x="68" y="209"/>
      <point x="68" y="186" type="curve" smooth="yes"/>
      <point x="68" y="157"/>
      <point x="66" y="117"/>
      <point x="71" y="91" type="curve"/>
      <point x="69" y="68"/>
      <point x="67" y="37"/>
      <point x="68" y="17" type="curve"/>
      <point x="75" y="5"/>
      <point x="94" y="5"/>
      <point x="113" y="6" type="curve"/>
      <point x="126" y="3"/>
      <point x="153" y="2"/>
      <point x="161" y="10" type="curve" smooth="yes"/>
      <point x="170" y="19"/>
      <point x="167" y="41"/>
      <point x="163" y="53" type="curve"/>
      <point x="162" y="80"/>
      <point x="161" y="105"/>
      <point x="158" y="130" type="curve"/>
      <point x="161" y="141"/>
      <point x="160" y="155"/>
      <point x="163" y="165" type="curve"/>
      <point x="157" y="187"/>
      <point x="161" y="214"/>
      <point x="160" y="241" type="curve" smooth="yes"/>
      <point x="159" y="260"/>
      <point x="157" y="277"/>
      <point x="158" y="293" type="curve"/>
      <point x="160" y="302"/>
      <point x="170" y="303"/>
      <point x="172" y="313" type="curve"/>
      <point x="179" y="316"/>
      <point x="181" y="325"/>
      <point x="192" y="328" type="curve"/>
      <point x="204" y="321"/>
      <point x="209" y="307"/>
      <point x="218" y="299" type="curve" smooth="yes"/>
      <point x="228" y="289"/>
      <point x="236" y="279"/>
      <point x="245" y="269" type="curve"/>
      <point x="249" y="266"/>
      <point x="252" y="263"/>
      <point x="255" y="259" type="curve" smooth="yes"/>
      <point x="259" y="254"/>
      <point x="260" y="249"/>
      <point x="264" y="245" type="curve" smooth="yes"/>
      <point x="269" y="239"/>
      <point x="280" y="232"/>
      <point x="282" y="222" type="curve"/>
      <point x="288" y="218"/>
      <point x="290" y="212"/>
      <point x="294" y="206" type="curve"/>
      <point x="311" y="194"/>
      <point x="322" y="177"/>
      <point x="334" y="160" type="curve" smooth="yes"/>
      <point x="347" y="144"/>
      <point x="360" y="128"/>
      <point x="375" y="116" type="curve"/>
      <point x="379" y="110"/>
      <point x="382" y="105"/>
      <point x="386" y="100" type="curve"/>
      <point x="388" y="94"/>
      <point x="395" y="93"/>
      <point x="398" y="87" type="curve" smooth="yes"/>
      <point x="405" y="77"/>
      <point x="412" y="69"/>
      <point x="419" y="58" type="curve"/>
      <point x="427" y="50"/>
      <point x="435" y="40"/>
      <point x="444" y="33" type="curve"/>
      <point x="452" y="23"/>
      <point x="458" y="13"/>
      <point x="471" y="8" type="curve"/>
      <point x="484" y="5"/>
      <point x="501" y="7"/>
      <point x="517" y="8" type="curve" smooth="yes"/>
      <point x="534" y="8"/>
      <point x="552" y="8"/>
      <point x="566" y="15" type="curve"/>
      <point x="567" y="19"/>
      <point x="568" y="23"/>
      <point x="567" y="30" type="curve" smooth="yes"/>
    </contour>
  </outline>
</glyph>
<glyph name="Q" format="2">
  <advance width="841"/>
  <unicode hex="0051"/>
  <anchor x="430" y="0" name="bottom"/>
  <anchor x="430" y="695" name="top"/>
  <outline>
    <contour>
      <point x="488" y="702" type="line"/>
      <point x="481" y="705"/>
      <point x="474" y="707"/>
      <point x="466" y="710" type="curve"/>
      <point x="450" y="706"/>
      <point x="438" y="712"/>
      <point x="423" y="713" type="curve"/>
      <point x="414" y="712"/>
      <point x="405" y="709"/>
      <point x="394" y="708" type="curve" smooth="yes"/>
      <point x="381" y="707"/>
      <point x="366" y="709"/>
      <point x="353" y="707" type="curve"/>
      <point x="346" y="700"/>
      <point x="332" y="700"/>
      <point x="321" y="696" type="curve"/>
      <point x="303" y="693"/>
      <point x="284" y="688"/>
      <point x="273" y="682" type="curve"/>
      <point x="267" y="677"/>
      <point x="259" y="675"/>
      <point x="250" y="673" type="curve"/>
      <point x="234" y="663"/>
      <point x="219" y="650"/>
      <point x="199" y="643" type="curve"/>
      <point x="194" y="635"/>
      <point x="187" y="631"/>
      <point x="179" y="624" type="curve" smooth="yes"/>
      <point x="172" y="619"/>
      <point x="164" y="612"/>
      <point x="156" y="608" type="curve"/>
      <point x="149" y="596"/>
      <point x="140" y="585"/>
      <point x="128" y="578" type="curve"/>
      <point x="125" y="562"/>
      <point x="111" y="558"/>
      <point x="105" y="545" type="curve"/>
      <point x="90" y="520"/>
      <point x="81" y="491"/>
      <point x="67" y="466" type="curve"/>
      <point x="65" y="446"/>
      <point x="60" y="429"/>
      <point x="55" y="412" type="curve"/>
      <point x="57" y="401"/>
      <point x="52" y="389"/>
      <point x="52" y="377" type="curve" smooth="yes"/>
      <point x="51" y="369"/>
      <point x="54" y="360"/>
      <point x="53" y="352" type="curve" smooth="yes"/>
      <point x="53" y="342"/>
      <point x="50" y="334"/>
      <point x="50" y="325" type="curve" smooth="yes"/>
      <point x="51" y="307"/>
      <point x="55" y="290"/>
      <point x="58" y="273" type="curve" smooth="yes"/>
      <point x="64" y="249" type="line" smooth="yes"/>
      <point x="66" y="242"/>
      <point x="72" y="234"/>
      <point x="69" y="226" type="curve"/>
      <point x="79" y="210"/>
      <point x="87" y="189"/>
      <point x="96" y="172" type="curve"/>
      <point x="108" y="155"/>
      <point x="121" y="140"/>
      <point x="132" y="123" type="curve"/>
      <point x="145" y="114"/>
      <point x="154" y="101"/>
      <point x="167" y="91" type="curve"/>
      <point x="174" y="87"/>
      <point x="178" y="81"/>
      <point x="188" y="78" type="curve"/>
      <point x="192" y="71"/>
      <point x="199" y="67"/>
      <point x="204" y="60" type="curve"/>
      <point x="215" y="57"/>
      <point x="222" y="50"/>
      <point x="231" y="45" type="curve" smooth="yes"/>
      <point x="240" y="39"/>
      <point x="250" y="37"/>
      <point x="258" y="30" type="curve"/>
      <point x="265" y="31"/>
      <point x="268" y="27"/>
      <point x="276" y="27" type="curve"/>
      <point x="280" y="22"/>
      <point x="287" y="21"/>
      <point x="290" y="17" type="curve"/>
      <point x="319" y="8"/>
      <point x="347" y="-1"/>
      <point x="379" y="-5" type="curve"/>
      <point x="410" y="-3"/>
      <point x="449" y="-8"/>
      <point x="479" y="1" type="curve" smooth="yes"/>
      <point x="488" y="3"/>
      <point x="491" y="-1"/>
      <point x="498" y="0" type="curve"/>
      <point x="522" y="10"/>
      <point x="547" y="17"/>
      <point x="573" y="24" type="curve"/>
      <point x="588" y="34"/>
      <point x="600" y="46"/>
      <point x="621" y="48" type="curve"/>
      <point x="633" y="43"/>
      <point x="642" y="35"/>
      <point x="647" y="23" type="curve"/>
      <point x="666" y="17"/>
      <point x="671" y="-3"/>
      <point x="690" y="-11" type="curve"/>
      <point x="705" y="-11"/>
      <point x="720" y="-10"/>
      <point x="731" y="-11" type="curve" smooth="yes"/>
      <point x="743" y="-11" type="line" smooth="yes"/>
      <point x="762" y="-11"/>
      <point x="780" y="-16"/>
      <point x="791" y="-2" type="curve"/>
      <point x="791" y="4"/>
      <point x="791" y="10"/>
      <point x="787" y="12" type="curve"/>
      <point x="778" y="21"/>
      <point x="768" y="31"/>
      <point x="755" y="36" type="curve"/>
      <point x="749" y="42"/>
      <point x="746" y="51"/>
      <point x="739" y="55" type="curve"/>
      <point x="735" y="63"/>
      <point x="722" y="63"/>
      <point x="720" y="72" type="curve"/>
      <point x="713" y="76"/>
      <point x="708" y="84"/>
      <point x="702" y="88" type="curve"/>
      <point x="700" y="92"/>
      <point x="696" y="95"/>
      <point x="693" y="99" type="curve" smooth="yes"/>
      <point x="691" y="101"/>
      <point x="686" y="104"/>
      <point x="687" y="110" type="curve"/>
      <point x="691" y="121"/>
      <point x="703" y="125"/>
      <point x="711" y="131" type="curve"/>
      <point x="719" y="142"/>
      <point x="726" y="153"/>
      <point x="737" y="160" type="curve"/>
      <point x="740" y="172"/>
      <point x="747" y="179"/>
      <point x="754" y="187" type="curve"/>
      <point x="755" y="202"/>
      <point x="763" y="211"/>
      <point x="768" y="222" type="curve"/>
      <point x="772" y="239"/>
      <point x="777" y="253"/>
      <point x="783" y="267" type="curve"/>
      <point x="787" y="312"/>
      <point x="790" y="355"/>
      <point x="789" y="404" type="curve"/>
      <point x="783" y="422"/>
      <point x="782" y="440"/>
      <point x="777" y="456" type="curve" smooth="yes"/>
      <point x="772" y="472"/>
      <point x="762" y="487"/>
      <point x="759" y="502" type="curve"/>
      <point x="748" y="517"/>
      <point x="737" y="531"/>
      <point x="730" y="549" type="curve"/>
      <point x="719" y="562"/>
      <point x="710" y="577"/>
      <point x="700" y="589" type="curve"/>
      <point x="687" y="599"/>
      <point x="676" y="616"/>
      <point x="664" y="621" type="curve"/>
      <point x="662" y="621"/>
      <point x="662" y="624"/>
      <point x="661" y="624" type="curve"/>
      <point x="660" y="625"/>
      <point x="659" y="624"/>
      <point x="658" y="624" type="curve"/>
      <point x="658" y="625"/>
      <point x="657" y="628"/>
      <point x="656" y="628" type="curve"/>
      <point x="656" y="629"/>
      <point x="654" y="628"/>
      <point x="653" y="628" type="curve"/>
      <point x="652" y="632" type="line"/>
      <point x="647" y="636"/>
      <point x="641" y="638"/>
      <point x="637" y="641" type="curve" smooth="yes"/>
      <point x="633" y="643"/>
      <point x="629" y="644"/>
      <point x="626" y="648" type="curve"/>
      <point x="619" y="650"/>
      <point x="617" y="657"/>
      <point x="609" y="658" type="curve"/>
      <point x="600" y="666"/>
      <point x="587" y="671"/>
      <point x="577" y="678" type="curve"/>
      <point x="550" y="685"/>
      <point x="528" y="694"/>
      <point x="502" y="702" type="curve"/>
    </contour>
    <contour>
      <point x="565" y="227" type="line"/>
      <point x="559" y="230"/>
      <point x="551" y="237"/>
      <point x="546" y="244" type="curve" smooth="yes"/>
      <point x="544" y="246"/>
      <point x="543" y="250"/>
      <point x="542" y="252" type="curve"/>
      <point x="534" y="258" type="line" smooth="yes"/>
      <point x="526" y="265"/>
      <point x="518" y="273"/>
      <point x="507" y="279" type="curve"/>
      <point x="487" y="279"/>
      <point x="464" y="273"/>
      <point x="447" y="281" type="curve"/>
      <point x="440" y="282"/>
      <point x="437" y="278"/>
      <point x="431" y="277" type="curve"/>
      <point x="417" y="280"/>
      <point x="400" y="280"/>
      <point x="396" y="267" type="curve"/>
      <point x="396" y="253"/>
      <point x="407" y="250"/>
      <point x="414" y="244" type="curve" smooth="yes"/>
      <point x="422" y="237"/>
      <point x="429" y="231"/>
      <point x="435" y="222" type="curve"/>
      <point x="446" y="216"/>
      <point x="457" y="209"/>
      <point x="464" y="198" type="curve"/>
      <point x="476" y="192"/>
      <point x="484" y="182"/>
      <point x="493" y="174" type="curve"/>
      <point x="501" y="164"/>
      <point x="513" y="158"/>
      <point x="522" y="148" type="curve"/>
      <point x="528" y="146"/>
      <point x="531" y="140"/>
      <point x="536" y="137" type="curve"/>
      <point x="540" y="133"/>
      <point x="549" y="133"/>
      <point x="548" y="123" type="curve"/>
      <point x="549" y="116"/>
      <point x="543" y="117"/>
      <point x="540" y="113" type="curve"/>
      <point x="534" y="113"/>
      <point x="533" y="107"/>
      <point x="527" y="108" type="curve"/>
      <point x="517" y="106"/>
      <point x="509" y="102"/>
      <point x="501" y="99" type="curve" smooth="yes"/>
      <point x="487" y="94"/>
      <point x="465" y="96"/>
      <point x="452" y="91" type="curve"/>
      <point x="439" y="90"/>
      <point x="429" y="93"/>
      <point x="420" y="93" type="curve" smooth="yes"/>
      <point x="412" y="93"/>
      <point x="408" y="91"/>
      <point x="401" y="91" type="curve" smooth="yes"/>
      <point x="385" y="92"/>
      <point x="370" y="101"/>
      <point x="351" y="99" type="curve"/>
      <point x="332" y="104"/>
      <point x="315" y="110"/>
      <point x="298" y="119" type="curve"/>
      <point x="289" y="122"/>
      <point x="281" y="125"/>
      <point x="272" y="130" type="curve"/>
      <point x="267" y="135" type="line"/>
      <point x="262" y="138"/>
      <point x="254" y="140"/>
      <point x="249" y="143" type="curve" smooth="yes"/>
      <point x="236" y="152"/>
      <point x="227" y="165"/>
      <point x="215" y="175" type="curve"/>
      <point x="213" y="178"/>
      <point x="208" y="179"/>
      <point x="206" y="182" type="curve" smooth="yes"/>
      <point x="202" y="187" type="line" smooth="yes"/>
      <point x="197" y="193"/>
      <point x="192" y="202"/>
      <point x="185" y="209" type="curve"/>
      <point x="183" y="220"/>
      <point x="176" y="227"/>
      <point x="171" y="235" type="curve"/>
      <point x="170" y="247"/>
      <point x="162" y="251"/>
      <point x="160" y="262" type="curve"/>
      <point x="160" y="271"/>
      <point x="153" y="279"/>
      <point x="151" y="288" type="curve" smooth="yes"/>
      <point x="147" y="301"/>
      <point x="149" y="315"/>
      <point x="144" y="325" type="curve"/>
      <point x="143" y="343"/>
      <point x="143" y="353"/>
      <point x="144" y="371" type="curve"/>
      <point x="147" y="388"/>
      <point x="149" y="407"/>
      <point x="154" y="424" type="curve" smooth="yes"/>
      <point x="159" y="439"/>
      <point x="166" y="453"/>
      <point x="172" y="467" type="curve"/>
      <point x="192" y="494" type="line"/>
      <point x="192" y="502"/>
      <point x="199" y="502"/>
      <point x="200" y="510" type="curve"/>
      <point x="206" y="512"/>
      <point x="206" y="518"/>
      <point x="209" y="523" type="curve"/>
      <point x="226" y="532"/>
      <point x="237" y="549"/>
      <point x="254" y="560" type="curve" smooth="yes"/>
      <point x="268" y="571"/>
      <point x="287" y="580"/>
      <point x="302" y="591" type="curve"/>
      <point x="316" y="593"/>
      <point x="326" y="601"/>
      <point x="341" y="604" type="curve" smooth="yes"/>
      <point x="350" y="607"/>
      <point x="358" y="606"/>
      <point x="368" y="608" type="curve" smooth="yes"/>
      <point x="379" y="610"/>
      <point x="391" y="615"/>
      <point x="403" y="616" type="curve"/>
      <point x="431" y="614"/>
      <point x="461" y="613"/>
      <point x="488" y="608" type="curve" smooth="yes"/>
      <point x="510" y="602"/>
      <point x="528" y="594"/>
      <point x="550" y="588" type="curve"/>
      <point x="562" y="579"/>
      <point x="578" y="572"/>
      <point x="588" y="561" type="curve"/>
      <point x="603" y="554"/>
      <point x="611" y="541"/>
      <point x="625" y="534" type="curve"/>
      <point x="634" y="519"/>
      <point x="644" y="507"/>
      <point x="656" y="494" type="curve"/>
      <point x="665" y="477"/>
      <point x="676" y="462"/>
      <point x="684" y="442" type="curve" smooth="yes"/>
      <point x="685" y="440"/>
      <point x="684" y="437"/>
      <point x="685" y="435" type="curve" smooth="yes"/>
      <point x="691" y="420"/>
      <point x="695" y="394"/>
      <point x="699" y="374" type="curve"/>
      <point x="700" y="357"/>
      <point x="695" y="343"/>
      <point x="699" y="331" type="curve"/>
      <point x="693" y="316"/>
      <point x="691" y="299"/>
      <point x="687" y="284" type="curve"/>
      <point x="681" y="271"/>
      <point x="676" y="257"/>
      <point x="670" y="244" type="curve" smooth="yes"/>
      <point x="659" y="215"/>
      <point x="648" y="190"/>
      <point x="625" y="174" type="curve"/>
      <point x="616" y="175"/>
      <point x="614" y="183"/>
      <point x="606" y="187" type="curve"/>
      <point x="603" y="194"/>
      <point x="595" y="195"/>
      <point x="594" y="204" type="curve"/>
      <point x="585" y="206"/>
      <point x="582" y="214"/>
      <point x="577" y="218" type="curve" smooth="yes"/>
      <point x="573" y="222"/>
      <point x="569" y="222"/>
      <point x="566" y="224" type="curve"/>
    </contour>
  </outline>
</glyph>
<glyph name="R" format="2">
  <advance width="530"/>
  <unicode hex="0052"/>
  <anchor x="270" y="0" name="bottom"/>
  <anchor x="270" y="695" name="top"/>
  <outline>
    <contour>
      <point x="268" y="201" type="line"/>
      <point x="280" y="181"/>
      <point x="294" y="160"/>
      <point x="311" y="143" type="curve"/>
      <point x="317" y="135"/>
      <point x="323" y="124"/>
      <point x="326" y="117" type="curve"/>
      <point x="330" y="116" type="line"/>
      <point x="331" y="111"/>
      <point x="332" y="106"/>
      <point x="335" y="103" type="curve" smooth="yes"/>
      <point x="340" y="96"/>
      <point x="349" y="92"/>
      <point x="352" y="84" type="curve" smooth="yes"/>
      <point x="357" y="75"/>
      <point x="364" y="70"/>
      <point x="368" y="61" type="curve" smooth="yes"/>
      <point x="373" y="53"/>
      <point x="379" y="47"/>
      <point x="385" y="40" type="curve"/>
      <point x="386" y="35"/>
      <point x="392" y="34"/>
      <point x="393" y="30" type="curve"/>
      <point x="399" y="29"/>
      <point x="396" y="19"/>
      <point x="403" y="20" type="curve"/>
      <point x="409" y="16"/>
      <point x="417" y="15"/>
      <point x="424" y="12" type="curve"/>
      <point x="447" y="15"/>
      <point x="476" y="14"/>
      <point x="488" y="29" type="curve"/>
      <point x="488" y="34"/>
      <point x="491" y="35"/>
      <point x="490" y="41" type="curve"/>
      <point x="489" y="43"/>
      <point x="488" y="45"/>
      <point x="488" y="48" type="curve"/>
      <point x="460" y="70"/>
      <point x="443" y="104"/>
      <point x="420" y="131" type="curve" smooth="yes"/>
      <point x="416" y="135"/>
      <point x="415" y="140"/>
      <point x="413" y="143" type="curve"/>
      <point x="407" y="157"/>
      <point x="396" y="165"/>
      <point x="389" y="177" type="curve"/>
      <point x="382" y="184"/>
      <point x="379" y="194"/>
      <point x="372" y="198" type="curve"/>
      <point x="371" y="210"/>
      <point x="360" y="212"/>
      <point x="355" y="220" type="curve"/>
      <point x="353" y="227"/>
      <point x="348" y="231"/>
      <point x="346" y="237" type="curve"/>
      <point x="335" y="245"/>
      <point x="328" y="258"/>
      <point x="320" y="269" type="curve"/>
      <point x="313" y="272"/>
      <point x="312" y="282"/>
      <point x="306" y="285" type="curve"/>
      <point x="302" y="292"/>
      <point x="296" y="296"/>
      <point x="296" y="305" type="curve"/>
      <point x="303" y="311"/>
      <point x="311" y="312"/>
      <point x="322" y="313" type="curve"/>
      <point x="337" y="321"/>
      <point x="356" y="326"/>
      <point x="372" y="336" type="curve"/>
      <point x="372" y="337"/>
      <point x="373" y="337"/>
      <point x="375" y="337" type="curve"/>
      <point x="384" y="353"/>
      <point x="397" y="364"/>
      <point x="412" y="374" type="curve"/>
      <point x="426" y="400"/>
      <point x="437" y="428"/>
      <point x="447" y="459" type="curve"/>
      <point x="445" y="472"/>
      <point x="449" y="479"/>
      <point x="450" y="490" type="curve"/>
      <point x="448" y="501"/>
      <point x="447" y="519"/>
      <point x="452" y="529" type="curve"/>
      <point x="447" y="534"/>
      <point x="448" y="546"/>
      <point x="444" y="553" type="curve"/>
      <point x="443" y="563"/>
      <point x="435" y="567"/>
      <point x="436" y="580" type="curve"/>
      <point x="418" y="606" type="line"/>
      <point x="415" y="608" type="line"/>
      <point x="413" y="613" type="line"/>
      <point x="413" y="614"/>
      <point x="411" y="614"/>
      <point x="410" y="615" type="curve" smooth="yes"/>
      <point x="409" y="616"/>
      <point x="410" y="618"/>
      <point x="409" y="620" type="curve"/>
      <point x="402" y="628"/>
      <point x="394" y="633"/>
      <point x="386" y="638" type="curve"/>
      <point x="368" y="653" type="line"/>
      <point x="358" y="661" type="line"/>
      <point x="342" y="668"/>
      <point x="332" y="675"/>
      <point x="317" y="679" type="curve" smooth="yes"/>
      <point x="306" y="683"/>
      <point x="299" y="685"/>
      <point x="288" y="687" type="curve" smooth="yes"/>
      <point x="283" y="688"/>
      <point x="277" y="690"/>
      <point x="273" y="690" type="curve" smooth="yes"/>
      <point x="258" y="690"/>
      <point x="241" y="684"/>
      <point x="227" y="693" type="curve"/>
      <point x="222" y="692"/>
      <point x="219" y="689"/>
      <point x="213" y="688" type="curve"/>
      <point x="198" y="693"/>
      <point x="183" y="689"/>
      <point x="168" y="690" type="curve" smooth="yes"/>
      <point x="161" y="690"/>
      <point x="152" y="693"/>
      <point x="145" y="693" type="curve" smooth="yes"/>
      <point x="133" y="693"/>
      <point x="123" y="690"/>
      <point x="111" y="691" type="curve"/>
      <point x="96" y="686"/>
      <point x="74" y="688"/>
      <point x="67" y="673" type="curve"/>
      <point x="66" y="661"/>
      <point x="71" y="655"/>
      <point x="71" y="644" type="curve"/>
      <point x="67" y="631"/>
      <point x="68" y="616"/>
      <point x="70" y="603" type="curve" smooth="yes"/>
      <point x="70" y="600"/>
      <point x="67" y="599"/>
      <point x="67" y="597" type="curve" smooth="yes"/>
      <point x="67" y="594"/>
      <point x="70" y="590"/>
      <point x="70" y="588" type="curve" smooth="yes"/>
      <point x="67" y="552"/>
      <point x="66" y="517"/>
      <point x="71" y="482" type="curve" smooth="yes"/>
      <point x="72" y="476"/>
      <point x="68" y="472"/>
      <point x="67" y="466" type="curve"/>
      <point x="68" y="460"/>
      <point x="73" y="457"/>
      <point x="73" y="449" type="curve"/>
      <point x="70" y="436"/>
      <point x="66" y="421"/>
      <point x="67" y="406" type="curve" smooth="yes"/>
      <point x="67" y="398"/>
      <point x="71" y="390"/>
      <point x="71" y="383" type="curve" smooth="yes"/>
      <point x="72" y="372"/>
      <point x="70" y="364"/>
      <point x="67" y="354" type="curve"/>
      <point x="71" y="346"/>
      <point x="70" y="331"/>
      <point x="67" y="322" type="curve"/>
      <point x="70" y="317"/>
      <point x="72" y="311"/>
      <point x="73" y="304" type="curve"/>
      <point x="73" y="283"/>
      <point x="68" y="258"/>
      <point x="73" y="235" type="curve"/>
      <point x="66" y="212"/>
      <point x="72" y="176"/>
      <point x="65" y="152" type="curve"/>
      <point x="65" y="144"/>
      <point x="70" y="141"/>
      <point x="70" y="134" type="curve" smooth="yes"/>
      <point x="71" y="105"/>
      <point x="66" y="82"/>
      <point x="67" y="53" type="curve"/>
      <point x="65" y="41"/>
      <point x="63" y="35"/>
      <point x="67" y="24" type="curve"/>
      <point x="77" y="5"/>
      <point x="115" y="6"/>
      <point x="143" y="10" type="curve"/>
      <point x="150" y="15"/>
      <point x="154" y="22"/>
      <point x="160" y="30" type="curve"/>
      <point x="156" y="56"/>
      <point x="160" y="86"/>
      <point x="158" y="116" type="curve" smooth="yes"/>
      <point x="158" y="126"/>
      <point x="154" y="137"/>
      <point x="154" y="146" type="curve" smooth="yes"/>
      <point x="154" y="162"/>
      <point x="159" y="176"/>
      <point x="152" y="189" type="curve"/>
      <point x="153" y="196"/>
      <point x="160" y="198"/>
      <point x="160" y="207" type="curve"/>
      <point x="156" y="216"/>
      <point x="154" y="224"/>
      <point x="156" y="232" type="curve" smooth="yes"/>
      <point x="158" y="245"/>
      <point x="161" y="253"/>
      <point x="162" y="264" type="curve" smooth="yes"/>
      <point x="162" y="275"/>
      <point x="162" y="280"/>
      <point x="168" y="290" type="curve"/>
      <point x="182" y="292"/>
      <point x="194" y="289"/>
      <point x="198" y="281" type="curve" smooth="yes"/>
      <point x="203" y="271"/>
      <point x="212" y="266"/>
      <point x="219" y="261" type="curve"/>
      <point x="223" y="252"/>
      <point x="230" y="247"/>
      <point x="235" y="241" type="curve" smooth="yes"/>
      <point x="240" y="233"/>
      <point x="246" y="227"/>
      <point x="250" y="218" type="curve"/>
    </contour>
    <contour>
      <point x="261" y="616" type="line"/>
      <point x="275" y="614"/>
      <point x="282" y="604"/>
      <point x="300" y="606" type="curve"/>
      <point x="306" y="599"/>
      <point x="314" y="595"/>
      <point x="326" y="593" type="curve"/>
      <point x="338" y="577"/>
      <point x="354" y="564"/>
      <point x="363" y="546" type="curve"/>
      <point x="366" y="534"/>
      <point x="371" y="524"/>
      <point x="375" y="513" type="curve"/>
      <point x="375" y="474"/>
      <point x="357" y="453"/>
      <point x="345" y="426" type="curve"/>
      <point x="339" y="422"/>
      <point x="333" y="419"/>
      <point x="330" y="412" type="curve"/>
      <point x="314" y="406" type="line"/>
      <point x="308" y="405"/>
      <point x="308" y="399"/>
      <point x="302" y="398" type="curve"/>
      <point x="290" y="394"/>
      <point x="285" y="386"/>
      <point x="275" y="381" type="curve"/>
      <point x="235" y="383"/>
      <point x="206" y="375"/>
      <point x="171" y="381" type="curve"/>
      <point x="160" y="394" type="line"/>
      <point x="159" y="408"/>
      <point x="160" y="430"/>
      <point x="156" y="446" type="curve"/>
      <point x="158" y="457"/>
      <point x="159" y="469"/>
      <point x="161" y="479" type="curve"/>
      <point x="158" y="491"/>
      <point x="156" y="506"/>
      <point x="152" y="517" type="curve"/>
      <point x="154" y="542"/>
      <point x="152" y="561"/>
      <point x="158" y="581" type="curve"/>
      <point x="156" y="593"/>
      <point x="154" y="598"/>
      <point x="156" y="610" type="curve"/>
      <point x="168" y="619"/>
      <point x="186" y="616"/>
      <point x="206" y="616" type="curve" smooth="yes"/>
    </contour>
  </outline>
</glyph>
